<svg width="263" height="203" viewBox="0 0 263 203" fill="none" xmlns="http://www.w3.org/2000/svg">
<path d="M113.4 123.253C112.16 123.253 110.9 123.113 109.62 122.833C108.34 122.573 107.31 122.263 106.53 121.903L106.92 118.873C107.92 119.353 109.05 119.773 110.31 120.133C111.57 120.493 112.82 120.673 114.06 120.673C115.46 120.673 116.54 120.423 117.3 119.923C118.08 119.403 118.47 118.633 118.47 117.613C118.47 116.853 118.27 116.223 117.87 115.723C117.49 115.203 116.92 114.773 116.16 114.433C115.42 114.073 114.38 113.693 113.04 113.293C111.68 112.893 110.55 112.463 109.65 112.003C108.75 111.543 108.02 110.913 107.46 110.113C106.92 109.313 106.65 108.303 106.65 107.083C106.65 105.383 107.3 104.013 108.6 102.973C109.92 101.933 111.77 101.413 114.15 101.413C115.43 101.413 116.64 101.553 117.78 101.833C118.94 102.113 119.95 102.453 120.81 102.853L120.51 105.883C119.39 105.223 118.31 104.743 117.27 104.443C116.23 104.143 115.15 103.993 114.03 103.993C112.73 103.993 111.69 104.233 110.91 104.713C110.15 105.193 109.77 105.933 109.77 106.933C109.77 107.613 109.94 108.173 110.28 108.613C110.64 109.053 111.15 109.433 111.81 109.753C112.47 110.053 113.39 110.383 114.57 110.743C116.93 111.463 118.69 112.323 119.85 113.323C121.01 114.303 121.59 115.663 121.59 117.403C121.59 119.243 120.9 120.683 119.52 121.723C118.14 122.743 116.1 123.253 113.4 123.253Z" fill="#FEC850"/>
<path d="M136.234 108.133V122.833H133.834L133.534 121.213C133.054 121.873 132.484 122.363 131.824 122.683C131.184 122.983 130.394 123.133 129.454 123.133C127.694 123.133 126.344 122.603 125.404 121.543C124.484 120.463 124.024 118.843 124.024 116.683V108.133H126.724V115.933C126.724 117.533 126.994 118.733 127.534 119.533C128.094 120.333 128.964 120.733 130.144 120.733C130.844 120.733 131.494 120.593 132.094 120.313C132.714 120.033 133.194 119.623 133.534 119.083V108.133H136.234Z" fill="#FEC850"/>
<path d="M157.066 107.833C160.826 107.833 162.706 109.943 162.706 114.163V122.833H160.006V114.193C160.006 112.813 159.736 111.813 159.196 111.193C158.656 110.553 157.776 110.233 156.556 110.233C153.956 110.233 152.656 111.593 152.656 114.313V122.833H149.956V114.733C149.956 113.053 149.656 111.883 149.056 111.223C148.476 110.563 147.626 110.233 146.506 110.233C145.626 110.233 144.846 110.393 144.166 110.713C143.486 111.033 142.966 111.513 142.606 112.153V122.833H139.906V108.133H142.006L142.306 109.693C143.046 109.033 143.786 108.563 144.526 108.283C145.286 107.983 146.096 107.833 146.956 107.833C149.196 107.833 150.776 108.813 151.696 110.773C152.716 108.813 154.506 107.833 157.066 107.833Z" fill="#FEC850"/>
<path d="M183.375 107.833C187.135 107.833 189.015 109.943 189.015 114.163V122.833H186.315V114.193C186.315 112.813 186.045 111.813 185.505 111.193C184.965 110.553 184.085 110.233 182.865 110.233C180.265 110.233 178.965 111.593 178.965 114.313V122.833H176.265V114.733C176.265 113.053 175.965 111.883 175.365 111.223C174.785 110.563 173.935 110.233 172.815 110.233C171.935 110.233 171.155 110.393 170.475 110.713C169.795 111.033 169.275 111.513 168.915 112.153V122.833H166.215V108.133H168.315L168.615 109.693C169.355 109.033 170.095 108.563 170.835 108.283C171.595 107.983 172.405 107.833 173.265 107.833C175.505 107.833 177.085 108.813 178.005 110.773C179.025 108.813 180.815 107.833 183.375 107.833Z" fill="#FEC850"/>
<path d="M192.523 101.833H195.223V104.833H192.523V101.833ZM192.523 108.133H195.223V122.833H192.523V108.133Z" fill="#FEC850"/>
<path d="M203.951 123.133C202.651 123.133 201.681 122.793 201.041 122.113C200.421 121.433 200.111 120.603 200.111 119.623V110.233H197.591L197.831 108.133H200.111V104.503L202.811 104.233V108.133H206.681V110.233H202.811V117.973C202.811 118.993 202.871 119.693 202.991 120.073C203.111 120.453 203.361 120.703 203.741 120.823C204.141 120.923 204.861 120.973 205.901 120.973H206.591L206.381 123.133H203.951Z" fill="#FEC850"/>
<path d="M116.82 63.2533C114.7 63.2533 112.82 62.8033 111.18 61.9033C109.56 61.0033 108.3 59.7333 107.4 58.0933C106.5 56.4333 106.05 54.5133 106.05 52.3333C106.05 50.1733 106.51 48.2733 107.43 46.6333C108.37 44.9733 109.66 43.6933 111.3 42.7933C112.96 41.8733 114.84 41.4133 116.94 41.4133C118.96 41.4133 120.77 41.8233 122.37 42.6433L121.95 46.3033C121.09 45.9233 120.26 45.6333 119.46 45.4333C118.68 45.2133 117.83 45.1033 116.91 45.1033C114.77 45.1033 113.12 45.7633 111.96 47.0833C110.82 48.4033 110.25 50.1533 110.25 52.3333C110.25 54.5133 110.81 56.2633 111.93 57.5833C113.07 58.9033 114.7 59.5633 116.82 59.5633C117.76 59.5633 118.62 59.4633 119.4 59.2633C120.2 59.0633 121.05 58.7633 121.95 58.3633L122.37 62.0233C120.63 62.8433 118.78 63.2533 116.82 63.2533Z" fill="#39414A"/>
<path d="M128.861 63.1333C127.581 63.1333 126.621 62.7733 125.981 62.0533C125.341 61.3133 125.021 60.3633 125.021 59.2033V40.3333H128.741V57.6733C128.741 58.4733 128.781 59.0433 128.861 59.3833C128.961 59.7033 129.121 59.9033 129.341 59.9833C129.581 60.0433 129.981 60.0733 130.541 60.0733L130.211 63.1333H128.861Z" fill="#39414A"/>
<path d="M139.566 63.1333C137.986 63.1333 136.616 62.7833 135.456 62.0833C134.296 61.3833 133.406 60.4433 132.786 59.2633C132.166 58.0833 131.856 56.7833 131.856 55.3633C131.856 53.9433 132.166 52.6333 132.786 51.4333C133.406 50.2333 134.296 49.2833 135.456 48.5833C136.616 47.8833 137.986 47.5333 139.566 47.5333C141.146 47.5333 142.516 47.8833 143.676 48.5833C144.836 49.2833 145.726 50.2333 146.346 51.4333C146.966 52.6333 147.276 53.9433 147.276 55.3633C147.276 56.7833 146.966 58.0833 146.346 59.2633C145.726 60.4433 144.836 61.3833 143.676 62.0833C142.516 62.7833 141.146 63.1333 139.566 63.1333ZM139.566 60.0733C140.786 60.0733 141.736 59.6433 142.416 58.7833C143.116 57.9233 143.466 56.7833 143.466 55.3633C143.466 53.9233 143.116 52.7733 142.416 51.9133C141.736 51.0333 140.786 50.5933 139.566 50.5933C138.346 50.5933 137.386 51.0333 136.686 51.9133C136.006 52.7733 135.666 53.9233 135.666 55.3633C135.666 56.7833 136.006 57.9233 136.686 58.7833C137.386 59.6433 138.346 60.0733 139.566 60.0733Z" fill="#39414A"/>
<path d="M162.945 47.8333V62.8333H159.465L159.405 61.9333C158.945 62.2733 158.415 62.5633 157.815 62.8033C157.215 63.0233 156.635 63.1333 156.075 63.1333C153.855 63.1333 152.235 62.4933 151.215 61.2133C150.215 59.9333 149.715 58.1633 149.715 55.9033V47.8333H153.435V55.9033C153.435 57.3033 153.665 58.3433 154.125 59.0233C154.605 59.6833 155.365 60.0133 156.405 60.0133C157.565 60.0133 158.505 59.5933 159.225 58.7533V47.8333H162.945Z" fill="#39414A"/>
<path d="M180.098 40.3333V62.8333H176.588L176.528 61.8733C175.948 62.2933 175.338 62.6133 174.698 62.8333C174.078 63.0333 173.338 63.1333 172.478 63.1333C171.018 63.1333 169.758 62.7833 168.698 62.0833C167.658 61.3833 166.868 60.4433 166.328 59.2633C165.788 58.0833 165.518 56.7833 165.518 55.3633C165.518 53.9433 165.788 52.6433 166.328 51.4633C166.868 50.2833 167.658 49.3433 168.698 48.6433C169.758 47.9433 171.018 47.5933 172.478 47.5933C173.938 47.5933 175.238 47.9933 176.378 48.7933V40.3333H180.098ZM173.018 60.0733C174.198 60.0733 175.078 59.6533 175.658 58.8133C176.258 57.9733 176.558 56.8233 176.558 55.3633C176.558 53.9033 176.258 52.7533 175.658 51.9133C175.078 51.0733 174.198 50.6533 173.018 50.6533C171.858 50.6533 170.948 51.0833 170.288 51.9433C169.648 52.8033 169.328 53.9433 169.328 55.3633C169.328 56.7833 169.648 57.9233 170.288 58.7833C170.948 59.6433 171.858 60.0733 173.018 60.0733Z" fill="#39414A"/>
<path d="M107.31 71.8333H111.15V92.8333H107.31V71.8333Z" fill="#39414A"/>
<path d="M122.503 77.5933C124.363 77.5933 125.773 78.2133 126.733 79.4533C127.693 80.6933 128.173 82.3633 128.173 84.4633V92.8333H124.453V84.7633C124.453 83.3633 124.213 82.3333 123.733 81.6733C123.273 80.9933 122.523 80.6533 121.483 80.6533C120.343 80.6533 119.403 81.0833 118.663 81.9433V92.8333H114.943V77.8333H118.423L118.483 78.8833C119.743 78.0233 121.083 77.5933 122.503 77.5933Z" fill="#39414A"/>
<path d="M139.056 77.5933C140.916 77.5933 142.326 78.2133 143.286 79.4533C144.246 80.6933 144.726 82.3633 144.726 84.4633V92.8333H141.006V84.7633C141.006 83.3633 140.766 82.3333 140.286 81.6733C139.826 80.9933 139.076 80.6533 138.036 80.6533C136.896 80.6533 135.956 81.0833 135.216 81.9433V92.8333H131.496V77.8333H134.976L135.036 78.8833C136.296 78.0233 137.636 77.5933 139.056 77.5933Z" fill="#39414A"/>
<path d="M154.859 93.1333C153.279 93.1333 151.909 92.7833 150.749 92.0833C149.589 91.3833 148.699 90.4433 148.079 89.2633C147.459 88.0833 147.149 86.7833 147.149 85.3633C147.149 83.9433 147.459 82.6333 148.079 81.4333C148.699 80.2333 149.589 79.2833 150.749 78.5833C151.909 77.8833 153.279 77.5333 154.859 77.5333C156.439 77.5333 157.809 77.8833 158.969 78.5833C160.129 79.2833 161.019 80.2333 161.639 81.4333C162.259 82.6333 162.569 83.9433 162.569 85.3633C162.569 86.7833 162.259 88.0833 161.639 89.2633C161.019 90.4433 160.129 91.3833 158.969 92.0833C157.809 92.7833 156.439 93.1333 154.859 93.1333ZM154.859 90.0733C156.079 90.0733 157.029 89.6433 157.709 88.7833C158.409 87.9233 158.759 86.7833 158.759 85.3633C158.759 83.9233 158.409 82.7733 157.709 81.9133C157.029 81.0333 156.079 80.5933 154.859 80.5933C153.639 80.5933 152.679 81.0333 151.979 81.9133C151.299 82.7733 150.959 83.9233 150.959 85.3633C150.959 86.7833 151.299 87.9233 151.979 88.7833C152.679 89.6433 153.639 90.0733 154.859 90.0733Z" fill="#39414A"/>
<path d="M163.244 77.8333H166.904L170.594 88.2134L174.284 77.8333H177.944L172.184 92.8333H169.004L163.244 77.8333Z" fill="#39414A"/>
<path d="M182.871 93.1333C181.631 93.1333 180.591 92.7333 179.751 91.9333C178.931 91.1133 178.521 90.0133 178.521 88.6333C178.521 87.3333 178.991 86.2933 179.931 85.5133C180.871 84.7133 181.981 84.1533 183.261 83.8333C184.541 83.4933 185.771 83.3033 186.951 83.2633C186.911 82.3833 186.681 81.7533 186.261 81.3733C185.861 80.9933 185.191 80.8033 184.251 80.8033C183.591 80.8033 182.941 80.8933 182.301 81.0733C181.681 81.2533 180.961 81.5433 180.141 81.9433L179.811 78.9133C181.631 78.0333 183.451 77.5933 185.271 77.5933C187.031 77.5933 188.371 78.0733 189.291 79.0333C190.231 79.9933 190.701 81.5233 190.701 83.6233V87.6733C190.701 88.4333 190.731 88.9833 190.791 89.3233C190.871 89.6433 190.991 89.8533 191.151 89.9533C191.331 90.0333 191.621 90.0733 192.021 90.0733H192.501L192.171 93.1333H190.821C190.001 93.1333 189.311 92.9833 188.751 92.6833C188.191 92.3633 187.761 91.9334 187.461 91.3934C186.981 91.9334 186.321 92.3633 185.481 92.6833C184.661 92.9833 183.791 93.1333 182.871 93.1333ZM184.431 90.2833C184.811 90.2833 185.241 90.1934 185.721 90.0133C186.201 89.8134 186.621 89.5433 186.981 89.2033V85.7833C185.781 85.8433 184.721 86.1033 183.801 86.5633C182.881 87.0233 182.421 87.6633 182.421 88.4833C182.421 89.1033 182.581 89.5633 182.901 89.8633C183.221 90.1433 183.731 90.2833 184.431 90.2833Z" fill="#39414A"/>
<path d="M199.228 93.1333C197.908 93.1333 196.908 92.7533 196.228 91.9933C195.548 91.2133 195.208 90.2834 195.208 89.2033V80.8933H193.078L193.408 77.8333H195.208V74.5333L198.928 74.1433V77.8333H202.228V80.8933H198.928V87.6733C198.928 88.4733 198.968 89.0334 199.048 89.3534C199.148 89.6534 199.338 89.8533 199.618 89.9533C199.918 90.0333 200.448 90.0733 201.208 90.0733H202.228L201.898 93.1333H199.228Z" fill="#39414A"/>
<path d="M204.65 71.8333H208.37V75.5533H204.65V71.8333ZM204.65 77.8333H208.37V92.8333H204.65V77.8333Z" fill="#39414A"/>
<path d="M218.667 93.1333C217.087 93.1333 215.717 92.7833 214.557 92.0833C213.397 91.3833 212.507 90.4433 211.887 89.2633C211.267 88.0833 210.957 86.7833 210.957 85.3633C210.957 83.9433 211.267 82.6333 211.887 81.4333C212.507 80.2333 213.397 79.2833 214.557 78.5833C215.717 77.8833 217.087 77.5333 218.667 77.5333C220.247 77.5333 221.617 77.8833 222.777 78.5833C223.937 79.2833 224.827 80.2333 225.447 81.4333C226.067 82.6333 226.377 83.9433 226.377 85.3633C226.377 86.7833 226.067 88.0833 225.447 89.2633C224.827 90.4433 223.937 91.3833 222.777 92.0833C221.617 92.7833 220.247 93.1333 218.667 93.1333ZM218.667 90.0733C219.887 90.0733 220.837 89.6433 221.517 88.7833C222.217 87.9233 222.567 86.7833 222.567 85.3633C222.567 83.9233 222.217 82.7733 221.517 81.9133C220.837 81.0333 219.887 80.5933 218.667 80.5933C217.447 80.5933 216.487 81.0333 215.787 81.9133C215.107 82.7733 214.767 83.9233 214.767 85.3633C214.767 86.7833 215.107 87.9233 215.787 88.7833C216.487 89.6433 217.447 90.0733 218.667 90.0733Z" fill="#39414A"/>
<path d="M236.527 77.5933C238.387 77.5933 239.797 78.2133 240.757 79.4533C241.717 80.6933 242.197 82.3633 242.197 84.4633V92.8333H238.477V84.7633C238.477 83.3633 238.237 82.3333 237.757 81.6733C237.297 80.9933 236.547 80.6533 235.507 80.6533C234.367 80.6533 233.427 81.0833 232.687 81.9433V92.8333H228.967V77.8333H232.447L232.507 78.8833C233.767 78.0233 235.107 77.5933 236.527 77.5933Z" fill="#39414A"/>
<path d="M180.552 153.257C180.943 153.47 181.514 153.682 182.265 153.865C183.017 154.047 183.769 154.139 184.55 154.139C185.302 154.139 186.023 154.047 186.655 153.865C187.286 153.682 187.857 153.378 188.308 153.014C188.759 152.649 189.12 152.193 189.391 151.676C189.661 151.159 189.781 150.581 189.781 149.943C189.781 149.152 189.541 148.453 189.09 147.845C188.639 147.236 187.857 146.75 186.775 146.385L184.67 145.716C183.889 145.443 183.318 145.169 183.047 144.895C182.746 144.622 182.596 144.257 182.596 143.831C182.596 143.223 182.837 142.767 183.288 142.493C183.769 142.22 184.4 142.068 185.272 142.068C186.324 142.068 187.286 142.25 188.128 142.645C188.398 142.767 188.579 142.828 188.699 142.828C188.91 142.828 189.03 142.676 189.03 142.341V141.611C189.03 141.399 189 141.247 188.91 141.125C188.819 141.003 188.669 140.882 188.459 140.76C188.308 140.669 188.098 140.578 187.827 140.486C187.557 140.395 187.286 140.334 186.985 140.243C186.685 140.182 186.354 140.122 186.023 140.061C185.693 140.03 185.362 140 185.031 140C184.37 140 183.738 140.091 183.167 140.274C182.566 140.456 182.055 140.699 181.634 141.064C181.183 141.399 180.822 141.824 180.582 142.311C180.311 142.797 180.191 143.345 180.191 143.983C180.191 144.774 180.431 145.503 180.943 146.172C181.424 146.841 182.235 147.358 183.318 147.693L185.482 148.361C186.204 148.605 186.715 148.878 186.985 149.152C187.256 149.426 187.376 149.791 187.376 150.216C187.376 150.824 187.136 151.311 186.595 151.645C186.084 151.98 185.362 152.132 184.43 152.132C183.829 152.132 183.257 152.071 182.656 151.949C182.055 151.828 181.514 151.645 181.033 151.432C180.882 151.372 180.762 151.311 180.642 151.28C180.552 151.25 180.461 151.22 180.371 151.22C180.161 151.22 180.041 151.372 180.041 151.706V152.466C180.041 152.618 180.071 152.74 180.131 152.892C180.161 152.953 180.311 153.105 180.552 153.257Z" fill="#202B3C"/>
<path d="M155.448 145.959C154.907 145.868 154.366 145.838 153.885 145.838C152.351 145.838 151.149 146.233 150.247 146.993C149.345 147.784 148.894 148.787 148.894 150.095C148.894 151.311 149.255 152.253 149.976 152.983C150.698 153.713 151.69 154.047 152.953 154.047C154.696 154.047 156.17 153.348 157.312 151.98C157.462 152.314 157.613 152.618 157.763 152.861C157.913 153.105 158.094 153.348 158.304 153.561C158.454 153.713 158.575 153.774 158.755 153.774C158.875 153.774 158.996 153.743 159.146 153.652L160.078 153.013C160.258 152.861 160.349 152.74 160.349 152.557C160.349 152.466 160.318 152.345 160.258 152.223C160.048 151.828 159.898 151.463 159.777 151.159C159.657 150.824 159.597 150.368 159.597 149.821V144.926C159.597 143.284 159.176 142.037 158.364 141.247C157.553 140.426 156.26 140.03 154.486 140.03C153.674 140.03 152.893 140.122 152.171 140.304C151.45 140.486 150.818 140.73 150.307 141.003C150.097 141.095 149.946 141.216 149.886 141.307C149.796 141.399 149.766 141.581 149.766 141.824V142.554C149.766 142.858 149.856 143.041 150.067 143.041C150.127 143.041 150.187 143.041 150.307 143.01C150.397 142.98 150.578 142.919 150.818 142.828C151.329 142.615 151.87 142.432 152.412 142.311C152.953 142.189 153.494 142.128 154.005 142.128C155.147 142.128 155.959 142.372 156.41 142.828C156.891 143.284 157.102 144.105 157.102 145.23V146.324C156.56 146.142 155.989 146.02 155.448 145.959ZM157.132 148.605C157.132 149.122 157.072 149.547 156.981 149.912C156.891 150.277 156.711 150.581 156.47 150.885C156.079 151.341 155.598 151.676 155.057 151.858C154.516 152.041 154.005 152.132 153.524 152.132C152.863 152.132 152.321 151.949 151.961 151.584C151.6 151.22 151.419 150.703 151.419 150.003C151.419 149.243 151.66 148.666 152.141 148.27C152.622 147.875 153.374 147.662 154.336 147.662C154.787 147.662 155.238 147.693 155.719 147.753C156.2 147.814 156.651 147.905 157.072 147.997V148.605H157.132Z" fill="#202B3C"/>
<path d="M164.588 152.983C164.678 153.287 164.768 153.47 164.888 153.561C165.008 153.652 165.189 153.713 165.459 153.713H166.722C166.993 153.713 167.203 153.652 167.323 153.561C167.444 153.47 167.534 153.257 167.594 152.953L169.879 143.284L172.254 152.953C172.314 153.257 172.404 153.439 172.555 153.561C172.675 153.652 172.885 153.713 173.156 153.713H174.419C174.689 153.713 174.87 153.652 174.99 153.561C175.11 153.47 175.2 153.257 175.29 152.983L178.868 141.368C178.928 141.216 178.958 141.095 178.988 141.003C179.018 140.912 179.018 140.851 179.018 140.76C179.018 140.517 178.898 140.395 178.658 140.395H177.275C177.004 140.395 176.794 140.456 176.703 140.547C176.583 140.639 176.493 140.851 176.403 141.125L173.817 151.189L171.472 141.125C171.412 140.821 171.322 140.639 171.202 140.547C171.081 140.456 170.871 140.395 170.6 140.395H169.398C169.127 140.395 168.917 140.456 168.797 140.547C168.676 140.639 168.586 140.851 168.526 141.125L166.211 151.068L163.686 141.125C163.595 140.821 163.505 140.639 163.385 140.547C163.265 140.456 163.084 140.395 162.814 140.395H161.371C161.13 140.395 161.01 140.517 161.01 140.76C161.01 140.851 161.04 141.064 161.13 141.368L164.588 152.983Z" fill="#202B3C"/>
<path d="M186.655 160.25C181.183 162.591 175.2 163.747 169.789 163.747C161.762 163.747 153.975 161.527 147.691 157.818C147.15 157.483 146.729 158.061 147.18 158.486C153.013 163.807 160.709 167 169.278 167C175.381 167 182.476 165.054 187.376 161.405C188.188 160.828 187.497 159.916 186.655 160.25Z" fill="#F8981D"/>
<path d="M183.558 158.213C183.137 158.517 183.197 158.943 183.678 158.882C185.242 158.699 188.759 158.274 189.391 159.064C190.022 159.885 188.699 163.199 188.098 164.689C187.917 165.145 188.308 165.328 188.699 164.993C191.315 162.774 192.006 158.122 191.465 157.453C190.954 156.784 186.384 156.206 183.558 158.213Z" fill="#F8981D"/>
<path d="M107.826 154L105.326 145.666H107.129L108.728 152.316L110.497 145.921H112.078L113.864 152.316L115.463 145.666H117.266L114.749 154H113.031L111.296 147.843L109.544 154H107.826ZM118.484 154V145.666H120.015V154H118.484ZM118.484 143.795V142.094H120.015V143.795H118.484ZM124.963 154.17C124.436 154.17 124.013 154.074 123.696 153.881C123.378 153.688 123.146 153.442 122.998 153.141C122.857 152.835 122.786 152.515 122.786 152.18V146.856H121.357L121.493 145.666H122.786V143.608L124.317 143.455V145.666H126.511V146.856H124.317V151.245C124.317 151.778 124.348 152.163 124.41 152.401C124.473 152.639 124.626 152.79 124.869 152.852C125.119 152.914 125.519 152.945 126.069 152.945H126.46L126.341 154.17H124.963ZM127.802 154V141.243H129.35V147.111L128.805 147.077C129.197 146.584 129.616 146.199 130.064 145.921C130.518 145.637 131.096 145.496 131.799 145.496C132.519 145.496 133.12 145.657 133.602 145.98C134.084 146.304 134.444 146.754 134.682 147.333C134.926 147.911 135.048 148.586 135.048 149.357V154H133.517V149.544C133.517 148.625 133.347 147.948 133.007 147.511C132.672 147.075 132.156 146.856 131.459 146.856C130.932 146.856 130.464 146.998 130.056 147.282C129.653 147.565 129.333 147.945 129.095 148.421L129.35 147.486V154H127.802Z" fill="#39414A"/>
<path d="M48 37L66 37C72.6274 37 78 42.3726 78 49L78 103C78 109.627 72.6274 115 66 115L48 115C41.3726 115 36 109.627 36 103L36 49C36 42.3726 41.3726 37 48 37Z" fill="#222B34"/>
<path d="M27 93L51 93C57.6274 93 63 98.3726 63 105L63 142C63 148.627 57.6274 154 51 154L27 154C20.3726 154 15 148.627 15 142L15 105C15 98.3726 20.3726 93 27 93Z" fill="#39414A"/>
</svg>
