<svg width="255" height="80" viewBox="0 0 255 80" fill="none" xmlns="http://www.w3.org/2000/svg">
<g clip-path="url(#clip0_59_4271)">
<path d="M6.18204 2.86647C7.15002 2.86647 7.98692 3.07318 8.69274 3.48658C9.39855 3.89999 9.94304 4.48985 10.3262 5.25617C10.7094 6.02249 10.9009 6.94005 10.9009 8.00886C10.9009 9.07767 10.7094 9.99523 10.3262 10.7615C9.94304 11.5279 9.39855 12.1177 8.69274 12.5311C7.98692 12.9445 7.15002 13.1512 6.18204 13.1512C5.22414 13.1512 4.39229 12.9445 3.68647 12.5311C2.98065 12.1177 2.43616 11.5279 2.05301 10.7615C1.66985 9.99523 1.47827 9.07767 1.47827 8.00886C1.47827 6.94005 1.66985 6.02249 2.05301 5.25617C2.43616 4.48985 2.98065 3.89999 3.68647 3.48658C4.39229 3.07318 5.22414 2.86647 6.18204 2.86647ZM6.18204 4.27307C5.55689 4.27307 5.01744 4.41927 4.5637 4.71168C4.12004 5.00409 3.77722 5.42758 3.53522 5.98215C3.29323 6.53673 3.17223 7.21229 3.17223 8.00886C3.17223 8.79534 3.29323 9.47091 3.53522 10.0356C3.77722 10.5901 4.12004 11.0136 4.5637 11.306C5.01744 11.5984 5.55689 11.7447 6.18204 11.7447C6.81728 11.7447 7.35672 11.5984 7.80038 11.306C8.25412 11.0136 8.60199 10.5901 8.84398 10.0356C9.08598 9.47091 9.20697 8.79534 9.20697 8.00886C9.20697 7.21229 9.08598 6.53673 8.84398 5.98215C8.60199 5.42758 8.25412 5.00409 7.80038 4.71168C7.35672 4.41927 6.81728 4.27307 6.18204 4.27307ZM15.7729 13.1512C15.2788 13.1512 14.82 13.0605 14.3965 12.879C13.9831 12.6975 13.6504 12.4051 13.3983 12.0018C13.1462 11.5984 13.0202 11.0741 13.0202 10.4288V5.43767H14.6385V10.0204C14.6385 10.7061 14.7847 11.18 15.0771 11.4422C15.3695 11.6942 15.7779 11.8203 16.3022 11.8203C16.5543 11.8203 16.7963 11.7799 17.0282 11.6993C17.2702 11.6085 17.487 11.4724 17.6786 11.2909C17.8701 11.0993 18.0163 10.8573 18.1172 10.5649C18.2281 10.2725 18.2835 9.92969 18.2835 9.53645V5.43767H19.9019V13H18.4802L18.4045 11.7749C18.1424 12.2488 17.7895 12.5967 17.3458 12.8185C16.9022 13.0403 16.3778 13.1512 15.7729 13.1512ZM24.6384 3.21434V10.7313C24.6384 11.1044 24.7342 11.3766 24.9258 11.548C25.1274 11.7194 25.3946 11.8052 25.7274 11.8052C25.9996 11.8052 26.2366 11.7648 26.4382 11.6842C26.6399 11.5934 26.8264 11.4724 26.9978 11.3212L27.3608 12.5009C27.1289 12.7025 26.8415 12.8639 26.4987 12.9849C26.166 13.0958 25.7929 13.1512 25.3795 13.1512C24.9459 13.1512 24.5476 13.0807 24.1846 12.9395C23.8217 12.7983 23.5393 12.5715 23.3377 12.2589C23.136 11.9362 23.0301 11.5178 23.02 11.0035V3.66808L24.6384 3.21434ZM27.2398 5.43767V6.70814H21.5681V5.43767H27.2398ZM32.4704 2.86647C33.3678 2.86647 34.1442 3.03789 34.7996 3.38071C35.455 3.71345 36.0095 4.20753 36.4633 4.86293L35.3743 5.90653C34.9911 5.32171 34.5576 4.90326 34.0736 4.65118C33.5997 4.38902 33.035 4.25794 32.3796 4.25794C31.8956 4.25794 31.4973 4.32348 31.1848 4.45456C30.8722 4.58564 30.6403 4.7621 30.489 4.98393C30.3479 5.19567 30.2773 5.43767 30.2773 5.70991C30.2773 6.02249 30.3832 6.29473 30.5949 6.52664C30.8167 6.75855 31.2251 6.94005 31.82 7.07113L33.8467 7.52487C34.8147 7.73662 35.5003 8.05928 35.9037 8.49285C36.307 8.92642 36.5086 9.47595 36.5086 10.1414C36.5086 10.7565 36.3423 11.2909 36.0095 11.7447C35.6768 12.1984 35.213 12.5463 34.6181 12.7883C34.0332 13.0302 33.3426 13.1512 32.546 13.1512C31.8402 13.1512 31.2049 13.0605 30.6403 12.879C30.0756 12.6975 29.5816 12.4505 29.1581 12.1379C28.7346 11.8253 28.3867 11.4674 28.1145 11.064L29.2337 9.94482C29.4454 10.2977 29.7126 10.6153 30.0353 10.8977C30.358 11.1699 30.731 11.3817 31.1545 11.5329C31.5881 11.6842 32.067 11.7598 32.5914 11.7598C33.0552 11.7598 33.4535 11.7043 33.7862 11.5934C34.129 11.4825 34.3862 11.3212 34.5576 11.1094C34.7391 10.8876 34.8298 10.6254 34.8298 10.3229C34.8298 10.0305 34.729 9.7734 34.5273 9.55158C34.3357 9.32975 33.9727 9.15833 33.4383 9.03734L31.2453 8.53822C30.6403 8.40714 30.1412 8.22061 29.7479 7.97861C29.3547 7.73662 29.0623 7.44421 28.8707 7.10138C28.6791 6.74847 28.5833 6.35523 28.5833 5.92166C28.5833 5.357 28.7346 4.8478 29.0371 4.39406C29.3496 3.93024 29.7983 3.56221 30.3832 3.28996C30.968 3.00764 31.6637 2.86647 32.4704 2.86647ZM44.8592 5.43767L41.5469 13.8924C41.3251 14.4772 41.0831 14.941 40.821 15.2838C40.5689 15.6267 40.2765 15.8737 39.9437 16.0249C39.611 16.1762 39.2228 16.2518 38.7791 16.2518C38.4161 16.2518 38.0783 16.2014 37.7658 16.1006C37.4633 16.0098 37.1961 15.8838 36.9642 15.7224L37.3574 14.4671C37.549 14.6284 37.7506 14.7494 37.9624 14.8301C38.1842 14.9107 38.4212 14.9511 38.6732 14.9511C38.9455 14.9511 39.1875 14.8755 39.3992 14.7242C39.6211 14.583 39.8177 14.2957 39.9891 13.8621L40.3218 13.0454L39.5202 11.1699L37.1608 5.43767H38.9757L40.6546 10.1868L41.0932 11.6085L41.5923 10.0507L43.1804 5.43767H44.8592ZM48.9362 13.1512C48.1799 13.1512 47.4892 13.005 46.8641 12.7126C46.2389 12.4202 45.7449 12.0068 45.3819 11.4724L46.5011 10.5044C46.7229 10.9178 47.0405 11.2506 47.4539 11.5027C47.8774 11.7447 48.3816 11.8656 48.9664 11.8656C49.4302 11.8656 49.7983 11.785 50.0705 11.6237C50.3428 11.4623 50.4789 11.2355 50.4789 10.943C50.4789 10.7515 50.4133 10.5851 50.2823 10.4439C50.1613 10.2927 49.9243 10.1767 49.5714 10.0961L47.9833 9.76332C47.1767 9.60199 46.6019 9.34487 46.2591 8.99196C45.9163 8.62897 45.7449 8.17019 45.7449 7.61562C45.7449 7.20221 45.8659 6.81905 46.1079 6.46614C46.3498 6.11324 46.7028 5.83091 47.1666 5.61916C47.6405 5.39733 48.2051 5.28642 48.8605 5.28642C49.6168 5.28642 50.2621 5.42254 50.7965 5.69479C51.3309 5.95695 51.7393 6.33506 52.0216 6.82914L50.9024 7.76687C50.7108 7.36354 50.4285 7.06609 50.0554 6.87451C49.6823 6.67285 49.2941 6.57202 48.8908 6.57202C48.5681 6.57202 48.2908 6.61235 48.0589 6.69301C47.827 6.77368 47.6506 6.88459 47.5296 7.02576C47.4086 7.16692 47.3481 7.33329 47.3481 7.52487C47.3481 7.72653 47.4237 7.90299 47.5749 8.05423C47.7262 8.20548 47.9984 8.32144 48.3917 8.4021L50.1159 8.76509C50.8419 8.90626 51.3511 9.14825 51.6435 9.49108C51.946 9.82382 52.0972 10.2322 52.0972 10.7162C52.0972 11.2002 51.9712 11.6287 51.7191 12.0018C51.467 12.3648 51.104 12.6471 50.6301 12.8488C50.1562 13.0504 49.5916 13.1512 48.9362 13.1512ZM56.2761 3.21434V10.7313C56.2761 11.1044 56.3719 11.3766 56.5635 11.548C56.7651 11.7194 57.0324 11.8052 57.3651 11.8052C57.6373 11.8052 57.8743 11.7648 58.076 11.6842C58.2776 11.5934 58.4642 11.4724 58.6356 11.3212L58.9986 12.5009C58.7666 12.7025 58.4793 12.8639 58.1365 12.9849C57.8037 13.0958 57.4306 13.1512 57.0172 13.1512C56.5837 13.1512 56.1854 13.0807 55.8224 12.9395C55.4594 12.7983 55.1771 12.5715 54.9754 12.2589C54.7737 11.9362 54.6679 11.5178 54.6578 11.0035V3.66808L56.2761 3.21434ZM58.8776 5.43767V6.70814H53.2058V5.43767H58.8776ZM63.8056 13.1512C63.0494 13.1512 62.3839 12.995 61.8091 12.6824C61.2344 12.3698 60.7857 11.9211 60.4631 11.3363C60.1505 10.7414 59.9942 10.0356 59.9942 9.21883C59.9942 8.4021 60.1505 7.70132 60.4631 7.1165C60.7857 6.5216 61.2294 6.06786 61.794 5.75528C62.3587 5.44271 62.999 5.28642 63.7149 5.28642C64.4509 5.28642 65.0761 5.43767 65.5903 5.74016C66.1046 6.04265 66.4978 6.45606 66.77 6.98038C67.0423 7.5047 67.1784 8.09961 67.1784 8.76509C67.1784 8.94659 67.1734 9.118 67.1633 9.27933C67.1532 9.44066 67.1381 9.58183 67.1179 9.70282H61.0378V8.4626H66.407L65.6054 8.70459C65.6054 8.01894 65.434 7.49462 65.0912 7.13163C64.7484 6.75855 64.2795 6.57202 63.6846 6.57202C63.251 6.57202 62.8729 6.67285 62.5503 6.87451C62.2276 7.07617 61.9806 7.37867 61.8091 7.78199C61.6377 8.17523 61.552 8.65922 61.552 9.23396C61.552 9.79861 61.6428 10.2776 61.8243 10.6708C62.0058 11.064 62.2629 11.3615 62.5956 11.5632C62.9284 11.7648 63.3216 11.8656 63.7754 11.8656C64.2795 11.8656 64.6879 11.7699 65.0005 11.5783C65.313 11.3867 65.5601 11.1195 65.7416 10.7767L67.0272 11.3817C66.8457 11.7447 66.5986 12.0623 66.286 12.3345C65.9836 12.5967 65.6206 12.7983 65.1971 12.9395C64.7736 13.0807 64.3098 13.1512 63.8056 13.1512ZM69.2221 13V5.43767H70.659L70.7346 6.70814C70.9967 6.22415 71.3446 5.8662 71.7782 5.63429C72.2218 5.40238 72.6907 5.28642 73.1848 5.28642C73.7293 5.28642 74.2284 5.41246 74.6821 5.66454C75.1459 5.90653 75.4938 6.27456 75.7257 6.76864C75.8871 6.43589 76.1089 6.15861 76.3912 5.93678C76.6735 5.71495 76.9861 5.55362 77.3289 5.45279C77.6718 5.34188 78.0096 5.28642 78.3423 5.28642C78.8263 5.28642 79.28 5.38725 79.7035 5.58891C80.127 5.79058 80.4698 6.09811 80.732 6.51152C80.9942 6.92493 81.1252 7.45429 81.1252 8.09961V13H79.5069V8.35673C79.5069 7.74166 79.3607 7.298 79.0683 7.02576C78.7759 6.75351 78.4028 6.61739 77.9491 6.61739C77.5961 6.61739 77.2684 6.7031 76.966 6.87451C76.6735 7.04592 76.4366 7.30304 76.2551 7.64587C76.0736 7.97861 75.9828 8.39202 75.9828 8.88609V13H74.3645V8.35673C74.3645 7.74166 74.2183 7.298 73.9259 7.02576C73.6335 6.75351 73.2604 6.61739 72.8067 6.61739C72.5042 6.61739 72.2017 6.69806 71.8992 6.85939C71.5967 7.02072 71.3446 7.27279 71.143 7.61562C70.9413 7.95844 70.8405 8.41218 70.8405 8.97684V13H69.2221ZM86.4524 13.1512C85.6962 13.1512 85.0055 13.005 84.3803 12.7126C83.7552 12.4202 83.2611 12.0068 82.8981 11.4724L84.0174 10.5044C84.2392 10.9178 84.5568 11.2506 84.9702 11.5027C85.3937 11.7447 85.8979 11.8656 86.4827 11.8656C86.9465 11.8656 87.3145 11.785 87.5868 11.6237C87.859 11.4623 87.9951 11.2355 87.9951 10.943C87.9951 10.7515 87.9296 10.5851 87.7985 10.4439C87.6775 10.2927 87.4406 10.1767 87.0877 10.0961L85.4996 9.76332C84.6929 9.60199 84.1182 9.34487 83.7754 8.99196C83.4325 8.62897 83.2611 8.17019 83.2611 7.61562C83.2611 7.20221 83.3821 6.81905 83.6241 6.46614C83.8661 6.11324 84.219 5.83091 84.6828 5.61916C85.1567 5.39733 85.7214 5.28642 86.3768 5.28642C87.133 5.28642 87.7784 5.42254 88.3128 5.69479C88.8472 5.95695 89.2555 6.33506 89.5379 6.82914L88.4186 7.76687C88.2271 7.36354 87.9447 7.06609 87.5717 6.87451C87.1986 6.67285 86.8104 6.57202 86.4071 6.57202C86.0844 6.57202 85.8071 6.61235 85.5752 6.69301C85.3433 6.77368 85.1668 6.88459 85.0458 7.02576C84.9248 7.16692 84.8643 7.33329 84.8643 7.52487C84.8643 7.72653 84.94 7.90299 85.0912 8.05423C85.2425 8.20548 85.5147 8.32144 85.9079 8.4021L87.6322 8.76509C88.3581 8.90626 88.8673 9.14825 89.1597 9.49108C89.4622 9.82382 89.6135 10.2322 89.6135 10.7162C89.6135 11.2002 89.4874 11.6287 89.2354 12.0018C88.9833 12.3648 88.6203 12.6471 88.1464 12.8488C87.6725 13.0504 87.1078 13.1512 86.4524 13.1512Z" fill="#C9CBC6"/>
<path d="M16.4495 31.8937C16.1211 33.0864 15.5939 34.0716 14.8679 34.8495C14.1419 35.61 13.2777 36.1718 12.2751 36.5348C11.2726 36.8805 10.1663 37.0534 8.95634 37.0534C7.2278 37.0534 5.73262 36.7076 4.47079 36.0162C3.20896 35.3075 2.24098 34.2963 1.56686 32.9827C0.892728 31.669 0.555664 30.0874 0.555664 28.2378C0.555664 26.3883 0.892728 24.8067 1.56686 23.493C2.24098 22.1793 3.20896 21.1768 4.47079 20.4854C5.73262 19.7767 7.21916 19.4223 8.93041 19.4223C10.1231 19.4223 11.2207 19.5952 12.2233 19.9409C13.2258 20.2693 14.0728 20.7792 14.7642 21.4706C15.4556 22.162 15.9483 23.0522 16.2421 24.1412L12.327 25.7228C12.085 24.6511 11.6874 23.9165 11.1343 23.5189C10.5984 23.1214 9.91567 22.9226 9.08598 22.9226C8.27357 22.9226 7.56487 23.1214 6.95988 23.5189C6.37218 23.9165 5.91412 24.5128 5.5857 25.308C5.27456 26.0858 5.11899 27.0624 5.11899 28.2378C5.11899 29.3959 5.26592 30.3726 5.55977 31.1677C5.85362 31.9628 6.2944 32.5592 6.8821 32.9567C7.48708 33.3543 8.23035 33.5531 9.1119 33.5531C9.9416 33.5531 10.6417 33.3284 11.2121 32.8789C11.7998 32.4122 12.1973 31.7035 12.4048 30.7528L16.4495 31.8937Z" fill="#F2F5F0"/>
<path d="M22.9747 18.3333V32.3863C22.9747 32.9567 23.0697 33.3629 23.2599 33.6049C23.45 33.8469 23.7698 33.9679 24.2192 33.9679C24.4785 33.9679 24.6946 33.9506 24.8674 33.9161C25.0403 33.8815 25.2477 33.8296 25.4897 33.7605L25.2045 36.4052C24.8933 36.5953 24.4871 36.7509 23.9859 36.8719C23.4846 36.9929 22.992 37.0534 22.508 37.0534C21.1251 37.0534 20.1226 36.7336 19.5003 36.094C18.878 35.4545 18.5669 34.4087 18.5669 32.9567V18.3333H22.9747Z" fill="#F2F5F0"/>
<path d="M33.2719 23.5708C34.6375 23.5708 35.8302 23.8387 36.85 24.3746C37.8871 24.8931 38.6909 25.6623 39.2613 26.6822C39.849 27.6847 40.1429 28.8947 40.1429 30.3121C40.1429 31.7295 39.849 32.9481 39.2613 33.9679C38.6909 34.9705 37.8871 35.7397 36.85 36.2755C35.8302 36.7941 34.6375 37.0534 33.2719 37.0534C31.941 37.0534 30.7569 36.7941 29.7198 36.2755C28.6827 35.7397 27.8703 34.9705 27.2826 33.9679C26.7122 32.9481 26.4269 31.7295 26.4269 30.3121C26.4269 28.8947 26.7122 27.6847 27.2826 26.6822C27.8703 25.6623 28.6827 24.8931 29.7198 24.3746C30.7569 23.8387 31.941 23.5708 33.2719 23.5708ZM33.2719 26.7081C32.7707 26.7081 32.3385 26.8291 31.9755 27.0711C31.6125 27.3131 31.336 27.702 31.1458 28.2378C30.9557 28.7737 30.8606 29.4651 30.8606 30.3121C30.8606 31.1591 30.9557 31.8505 31.1458 32.3863C31.336 32.9049 31.6125 33.2938 31.9755 33.5531C32.3385 33.7951 32.7707 33.9161 33.2719 33.9161C33.7905 33.9161 34.2313 33.7951 34.5943 33.5531C34.9573 33.2938 35.2338 32.9049 35.424 32.3863C35.6141 31.8505 35.7092 31.1591 35.7092 30.3121C35.7092 29.4651 35.6141 28.7737 35.424 28.2378C35.2338 27.702 34.9573 27.3131 34.5943 27.0711C34.2313 26.8291 33.7905 26.7081 33.2719 26.7081Z" fill="#F2F5F0"/>
<path d="M47.0043 37.0534C46.1227 37.0534 45.3449 36.9064 44.6707 36.6126C44.0139 36.3014 43.4953 35.8088 43.1151 35.1347C42.7348 34.4606 42.5446 33.579 42.5446 32.49V23.8301H46.9524V31.4529C46.9524 32.2826 47.1166 32.8617 47.445 33.1901C47.7735 33.5185 48.2402 33.6827 48.8451 33.6827C49.1563 33.6827 49.4501 33.6309 49.7267 33.5271C50.0033 33.4061 50.2453 33.2333 50.4527 33.0086C50.6601 32.7666 50.8157 32.4641 50.9194 32.1011C51.0404 31.7208 51.1009 31.2801 51.1009 30.7788V23.8301H55.5086V36.7941H51.5676L51.4379 34.3568C51.0231 35.273 50.444 35.9557 49.7008 36.4052C48.9575 36.8373 48.0587 37.0534 47.0043 37.0534Z" fill="#F2F5F0"/>
<path d="M63.4463 37.0534C62.3746 37.0534 61.4325 36.7941 60.6201 36.2755C59.825 35.7397 59.2027 34.9705 58.7533 33.9679C58.3212 32.9654 58.1051 31.764 58.1051 30.3639C58.1051 28.912 58.3298 27.6847 58.7792 26.6822C59.2459 25.6796 59.8855 24.9104 60.6979 24.3746C61.5276 23.8387 62.4783 23.5708 63.55 23.5708C64.7254 23.5708 65.6674 23.9338 66.3761 24.6598C66.788 25.0619 67.1164 25.528 67.3614 26.0582V18.3333H71.7692V36.7941H67.8281L67.6657 34.2846C67.5516 34.5484 67.4156 34.7972 67.2577 35.031C66.8428 35.6705 66.307 36.1718 65.6501 36.5348C65.0106 36.8805 64.276 37.0534 63.4463 37.0534ZM64.976 33.8124C65.4773 33.8124 65.9008 33.6827 66.2465 33.4234C66.6095 33.1469 66.886 32.7407 67.0762 32.2048C67.2663 31.669 67.3614 31.0121 67.3614 30.2343C67.3614 29.5083 67.2663 28.8947 67.0762 28.3934C66.9033 27.8748 66.6354 27.4859 66.2724 27.2266C65.9267 26.9501 65.5032 26.8118 65.0019 26.8118C64.2414 26.8118 63.6364 27.097 63.187 27.6674C62.7548 28.2205 62.5388 29.1021 62.5388 30.3121C62.5388 31.522 62.7548 32.4122 63.187 32.9827C63.6191 33.5358 64.2155 33.8124 64.976 33.8124Z" fill="#F2F5F0"/>
<path d="M7.23745 40.8572V57.9697H2.77783V40.8572H7.23745Z" fill="#F2F5F0"/>
<path d="M10.6705 57.9697V45.0057H14.6115L14.747 47.5935C14.8906 47.2427 15.0615 46.9245 15.2597 46.6391C15.7092 46.0169 16.2623 45.5501 16.9191 45.239C17.5933 44.9106 18.3452 44.7464 19.1749 44.7464C20.0737 44.7464 20.8515 44.9192 21.5084 45.2649C22.1825 45.6106 22.7097 46.1206 23.09 46.7947C23.4703 47.4688 23.6604 48.3158 23.6604 49.3356V57.9697H19.2527V50.5024C19.2527 49.6036 19.0798 48.9813 18.7341 48.6356C18.3884 48.2899 17.9476 48.117 17.4118 48.117C16.9969 48.117 16.608 48.2207 16.245 48.4282C15.882 48.6183 15.5968 48.9294 15.3894 49.3616C15.182 49.7937 15.0782 50.3728 15.0782 51.0987V57.9697H10.6705Z" fill="#F2F5F0"/>
<path d="M48.9981 44.7464C50.3637 44.7464 51.5564 45.0143 52.5762 45.5501C53.6133 46.0687 54.4171 46.8379 54.9875 47.8577C55.5752 48.8603 55.8691 50.0703 55.8691 51.4877C55.8691 52.9051 55.5752 54.1237 54.9875 55.1435C54.4171 56.1461 53.6133 56.9153 52.5762 57.4511C51.5564 57.9697 50.3637 58.2289 48.9981 58.2289C47.6672 58.2289 46.4831 57.9697 45.446 57.4511C44.4089 56.9153 43.5965 56.1461 43.0088 55.1435C42.4384 54.1237 42.1532 52.9051 42.1532 51.4877C42.1532 50.0703 42.4384 48.8603 43.0088 47.8577C43.5965 46.8379 44.4089 46.0687 45.446 45.5501C46.4831 45.0143 47.6672 44.7464 48.9981 44.7464ZM48.9981 47.8837C48.4969 47.8837 48.0647 48.0047 47.7017 48.2467C47.3388 48.4887 47.0622 48.8776 46.872 49.4134C46.6819 49.9493 46.5868 50.6407 46.5868 51.4877C46.5868 52.3346 46.6819 53.0261 46.872 53.5619C47.0622 54.0805 47.3388 54.4694 47.7017 54.7287C48.0647 54.9707 48.4969 55.0917 48.9981 55.0917C49.5167 55.0917 49.9575 54.9707 50.3205 54.7287C50.6835 54.4694 50.96 54.0805 51.1502 53.5619C51.3403 53.0261 51.4354 52.3346 51.4354 51.4877C51.4354 50.6407 51.3403 49.9493 51.1502 49.4134C50.96 48.8776 50.6835 48.4887 50.3205 48.2467C49.9575 48.0047 49.5167 47.8837 48.9981 47.8837Z" fill="#F2F5F0"/>
<path d="M66.5473 45.0057H71.1107L66.4436 57.9697H61.1803L56.5132 45.0057H61.1543L63.8249 54.8842L66.5473 45.0057Z" fill="#F2F5F0"/>
<path d="M100.407 43.5018C99.5078 43.5018 98.851 43.3376 98.4361 43.0092C98.0386 42.6635 97.8398 42.1277 97.8398 41.4017C97.8398 40.6584 98.0386 40.1226 98.4361 39.7941C98.851 39.4484 99.5078 39.2756 100.407 39.2756C101.288 39.2756 101.936 39.4484 102.351 39.7941C102.766 40.1226 102.974 40.6584 102.974 41.4017C102.974 42.1277 102.766 42.6635 102.351 43.0092C101.936 43.3376 101.288 43.5018 100.407 43.5018ZM102.611 45.0057V57.9697H98.2028V45.0057H102.611Z" fill="#F2F5F0"/>
<path d="M111.919 44.7464C113.285 44.7464 114.477 45.0143 115.497 45.5501C116.534 46.0687 117.338 46.8379 117.908 47.8577C118.496 48.8603 118.79 50.0703 118.79 51.4877C118.79 52.9051 118.496 54.1237 117.908 55.1435C117.338 56.1461 116.534 56.9153 115.497 57.4511C114.477 57.9697 113.285 58.2289 111.919 58.2289C110.588 58.2289 109.404 57.9697 108.367 57.4511C107.33 56.9153 106.517 56.1461 105.93 55.1435C105.359 54.1237 105.074 52.9051 105.074 51.4877C105.074 50.0703 105.359 48.8603 105.93 47.8577C106.517 46.8379 107.33 46.0687 108.367 45.5501C109.404 45.0143 110.588 44.7464 111.919 44.7464ZM111.919 47.8837C111.418 47.8837 110.986 48.0047 110.623 48.2467C110.26 48.4887 109.983 48.8776 109.793 49.4134C109.603 49.9493 109.508 50.6407 109.508 51.4877C109.508 52.3346 109.603 53.0261 109.793 53.5619C109.983 54.0805 110.26 54.4694 110.623 54.7287C110.986 54.9707 111.418 55.0917 111.919 55.0917C112.438 55.0917 112.878 54.9707 113.241 54.7287C113.604 54.4694 113.881 54.0805 114.071 53.5619C114.261 53.0261 114.356 52.3346 114.356 51.4877C114.356 50.6407 114.261 49.9493 114.071 49.4134C113.881 48.8776 113.604 48.4887 113.241 48.2467C112.878 48.0047 112.438 47.8837 111.919 47.8837Z" fill="#F2F5F0"/>
<path d="M92.3036 53.3545C92.3036 53.9768 92.4505 54.4262 92.7443 54.7027C93.0555 54.962 93.479 55.0917 94.0148 55.0917C94.4297 55.0917 94.784 55.0484 95.0779 54.962C95.389 54.8583 95.6656 54.7114 95.9076 54.5212L96.3743 57.2437C95.9421 57.5548 95.3976 57.7968 94.7408 57.9697C94.084 58.1425 93.4098 58.2289 92.7184 58.2289C91.7332 58.2289 90.8775 58.0907 90.1515 57.8141C89.4428 57.5375 88.8897 57.0968 88.4921 56.4918C88.1119 55.8868 87.9131 55.083 87.8958 54.0805V48.143L85.666 48.143V45.0057L87.8958 45.0057V42.1017L92.3036 40.8831V45.0057L96.1668 45.0057V48.143L92.3036 48.143V53.3545Z" fill="#F2F5F0"/>
<path d="M26.7489 57.9697V45.0057H30.6899L30.8254 47.5935C30.969 47.2427 31.1399 46.9245 31.3382 46.6391C31.7876 46.0169 32.3407 45.5502 32.9975 45.239C33.6717 44.9106 34.4236 44.7464 35.2533 44.7464C36.1521 44.7464 36.93 44.9192 37.5868 45.2649C38.2609 45.6107 38.7881 46.1206 39.1684 46.7947C39.5487 47.4688 39.7388 48.3158 39.7388 49.3356V57.9697H35.3311V50.5024C35.3311 49.6036 35.1582 48.9813 34.8125 48.6356C34.4668 48.2899 34.026 48.117 33.4902 48.117C33.0753 48.117 32.6864 48.2207 32.3234 48.4282C31.9604 48.6183 31.6752 48.9294 31.4678 49.3616C31.2604 49.7937 31.1567 50.3728 31.1567 51.0987V57.9697H26.7489Z" fill="#F2F5F0"/>
<path d="M121.27 57.9697V45.0057H125.211L125.346 47.5935C125.49 47.2427 125.661 46.9245 125.859 46.6391C126.308 46.0169 126.861 45.5501 127.518 45.239C128.192 44.9106 128.944 44.7464 129.774 44.7464C130.673 44.7464 131.451 44.9192 132.108 45.2649C132.782 45.6106 133.309 46.1206 133.689 46.7947C134.069 47.4688 134.26 48.3158 134.26 49.3356V57.9697H129.852V50.5024C129.852 49.6036 129.679 48.9813 129.333 48.6356C128.988 48.2899 128.547 48.117 128.011 48.117C127.596 48.117 127.207 48.2207 126.844 48.4282C126.481 48.6183 126.196 48.9294 125.989 49.3616C125.781 49.7937 125.677 50.3728 125.677 51.0987V57.9697H121.27Z" fill="#F2F5F0"/>
<path fill-rule="evenodd" clip-rule="evenodd" d="M79.61 49.7505C79.61 49.1455 79.4371 48.6702 79.0914 48.3244C78.763 47.9615 78.3136 47.78 77.7432 47.78C77.1727 47.78 76.6801 47.9269 76.2653 48.2207C75.8677 48.4973 75.5911 48.9986 75.4356 49.7246L71.7019 48.843C71.9439 47.5985 72.5835 46.6046 73.6206 45.8613C74.6577 45.118 76.1183 44.7464 78.0024 44.7464C79.2643 44.7464 80.336 44.9365 81.2175 45.3168C82.1163 45.6798 82.7991 46.2329 83.2658 46.9762C83.7498 47.7022 83.9918 48.601 83.9918 49.6727V54.4175C83.9918 55.0917 84.2943 55.4287 84.8993 55.4287C85.2104 55.4287 85.4611 55.3941 85.6512 55.325L85.3919 57.84C84.8734 58.082 84.2424 58.203 83.4992 58.203C82.8251 58.203 82.2287 58.0993 81.7102 57.8919C81.1916 57.6672 80.7854 57.3387 80.4915 56.9066C80.3695 56.7199 80.2727 56.5138 80.2014 56.2883C80.1093 56.4526 79.9986 56.6068 79.8693 56.751C79.4371 57.2523 78.8667 57.624 78.158 57.866C77.4666 58.1079 76.7406 58.2289 75.9801 58.2289C75.0985 58.2289 74.3293 58.0907 73.6725 57.8141C73.0156 57.5375 72.5057 57.14 72.1427 56.6214C71.797 56.0856 71.6241 55.4287 71.6241 54.6509C71.6241 53.7175 71.9007 52.9483 72.4538 52.3433C73.0243 51.721 73.9145 51.2889 75.1244 51.0469L79.61 50.1213V49.7505ZM76.343 53.3545C76.6023 53.1471 76.9913 52.9915 77.5098 52.8878L79.61 52.4502V53.173C79.61 53.5533 79.5495 53.8817 79.4285 54.1582C79.3075 54.4348 79.1433 54.6682 78.9359 54.8583C78.7284 55.0312 78.4864 55.1608 78.2099 55.2472C77.9506 55.3337 77.674 55.3769 77.3802 55.3769C76.9999 55.3769 76.6715 55.2818 76.3949 55.0917C76.1183 54.9015 75.9801 54.6163 75.9801 54.236C75.9801 53.8385 76.1011 53.5446 76.343 53.3545Z" fill="#F2F5F0"/>
<path d="M22.2094 79.4045C21.3278 79.4045 20.55 79.2576 19.8758 78.9638C19.219 78.6526 18.7004 78.16 18.3202 77.4859C17.9399 76.8117 17.7497 75.9302 17.7497 74.8412V66.1813H22.1575V73.8041C22.1575 74.6338 22.3217 75.2129 22.6501 75.5413C22.9786 75.8697 23.4453 76.0339 24.0502 76.0339C24.3614 76.0339 24.6552 75.982 24.9318 75.8783C25.2084 75.7573 25.4504 75.5845 25.6578 75.3598C25.8652 75.1178 26.0208 74.8153 26.1245 74.4523C26.2455 74.072 26.306 73.6312 26.306 73.13V66.1813H30.7137V79.1453H26.7727L26.643 76.708C26.2282 77.6242 25.6491 78.3069 24.9059 78.7563C24.1626 79.1885 23.2638 79.4045 22.2094 79.4045Z" fill="#FA173D"/>
<path d="M33.8806 79.1453V66.1813H37.8217L37.9513 68.6963C38.3661 67.7802 38.9452 67.0887 39.6885 66.622C40.449 66.1553 41.3219 65.922 42.3072 65.922C43.2752 65.922 44.1135 66.138 44.8222 66.5702C45.5309 67.0023 46.0581 67.6419 46.4038 68.4889C46.6804 67.9184 47.0347 67.4431 47.4669 67.0628C47.9163 66.6825 48.4262 66.3973 48.9966 66.2072C49.567 66.017 50.1547 65.922 50.7597 65.922C51.624 65.922 52.3846 66.0948 53.0414 66.4405C53.6982 66.769 54.2168 67.2789 54.5971 67.9703C54.9946 68.6444 55.1934 69.4914 55.1934 70.5112V79.1453H50.7857V71.5224C50.7857 70.6927 50.6215 70.1137 50.293 69.7853C49.9819 69.4568 49.5584 69.2926 49.0226 69.2926C48.5904 69.2926 48.1929 69.405 47.8299 69.6297C47.4842 69.8371 47.2162 70.1569 47.0261 70.589C46.836 71.0212 46.7409 71.5656 46.7409 72.2225V79.1453H42.3331V71.5224C42.3331 70.6927 42.1689 70.1137 41.8405 69.7853C41.5121 69.4568 41.0886 69.2926 40.57 69.2926C40.1725 69.2926 39.7922 69.3963 39.4292 69.6038C39.0835 69.8112 38.8069 70.1396 38.5995 70.589C38.3921 71.0212 38.2884 71.5916 38.2884 72.3003V79.1453H33.8806Z" fill="#FA173D"/>
<path d="M58.2894 79.1453V66.1813H62.2304L62.3601 68.6963C62.7749 67.7802 63.354 67.0887 64.0973 66.622C64.8578 66.1553 65.7307 65.922 66.716 65.922C67.684 65.922 68.5223 66.138 69.231 66.5702C69.9397 67.0023 70.4669 67.6419 70.8126 68.4889C71.0892 67.9184 71.4435 67.4431 71.8757 67.0628C72.3251 66.6825 72.835 66.3973 73.4054 66.2072C73.9758 66.017 74.5635 65.922 75.1685 65.922C76.0328 65.922 76.7933 66.0948 77.4502 66.4405C78.107 66.769 78.6256 67.2789 79.0059 67.9703C79.4034 68.6444 79.6022 69.4914 79.6022 70.5112V79.1453H75.1945V71.5224C75.1945 70.6927 75.0302 70.1137 74.7018 69.7853C74.3907 69.4568 73.9672 69.2926 73.4313 69.2926C72.9992 69.2926 72.6016 69.405 72.2387 69.6297C71.8929 69.8371 71.625 70.1569 71.4349 70.589C71.2448 71.0212 71.1497 71.5656 71.1497 72.2225V79.1453H66.7419V71.5224C66.7419 70.6927 66.5777 70.1137 66.2493 69.7853C65.9209 69.4568 65.4974 69.2926 64.9788 69.2926C64.5812 69.2926 64.201 69.3963 63.838 69.6038C63.4923 69.8112 63.2157 70.1396 63.0083 70.589C62.8009 71.0212 62.6971 71.5916 62.6971 72.3003V79.1453H58.2894Z" fill="#FA173D"/>
<path d="M84.9021 64.6774C84.0032 64.6774 83.3464 64.5132 82.9315 64.1848C82.534 63.8391 82.3352 63.3033 82.3352 62.5773C82.3352 61.834 82.534 61.2982 82.9315 60.9697C83.3464 60.624 84.0032 60.4512 84.9021 60.4512C85.7836 60.4512 86.4318 60.624 86.8467 60.9697C87.2615 61.2982 87.4689 61.834 87.4689 62.5773C87.4689 63.3033 87.2615 63.8391 86.8467 64.1848C86.4318 64.5132 85.7836 64.6774 84.9021 64.6774ZM87.1059 66.1813V79.1453H82.6982V66.1813H87.1059Z" fill="#FA173D"/>
<path d="M95.6626 74.5301C95.6626 75.1523 95.8095 75.6018 96.1034 75.8783C96.4145 76.1376 96.838 76.2673 97.3738 76.2673C97.7887 76.2673 98.143 76.224 98.4369 76.1376C98.748 76.0339 99.0246 75.887 99.2666 75.6968L99.7333 78.4193C99.3011 78.7304 98.7567 78.9724 98.0998 79.1453C97.443 79.3181 96.7688 79.4045 96.0774 79.4045C95.0922 79.4045 94.2365 79.2663 93.5106 78.9897C92.8019 78.7131 92.2487 78.2724 91.8512 77.6674C91.4709 77.0624 91.2721 76.2586 91.2548 75.2561V69.3185H89.025V66.1813H91.2548V63.2773L95.6626 62.0587V66.1813H99.5259V69.3185H95.6626V74.5301Z" fill="#FA173D"/>
<path d="M8.16732 61.7735C9.75757 61.7735 11.1577 62.0241 12.3677 62.5254C13.5949 63.0094 14.658 63.7267 15.5568 64.6774L13.4048 67.5554C12.6615 66.7776 11.8577 66.1985 10.9935 65.8183C10.1465 65.4207 9.17851 65.2219 8.08954 65.2219C7.44998 65.2219 6.93142 65.2911 6.53386 65.4293C6.13629 65.5676 5.85109 65.7578 5.67823 65.9998C5.50538 66.2418 5.41895 66.5183 5.41895 66.8295C5.41895 67.1925 5.58316 67.5036 5.91158 67.7629C6.25729 68.0049 6.81042 68.2123 7.57098 68.3851L10.449 69.0333C12.1602 69.4309 13.4134 70.01 14.2085 70.7705C15.0037 71.5311 15.4012 72.5423 15.4012 73.8041C15.4012 75.0141 15.0901 76.0425 14.4678 76.8895C13.8456 77.7192 12.9899 78.3501 11.901 78.7823C10.812 79.1971 9.56743 79.4045 8.16732 79.4045C7.02649 79.4045 5.93751 79.2835 4.90039 79.0415C3.86327 78.7823 2.92986 78.4193 2.10017 77.9526C1.27047 77.4859 0.570416 76.95 0 76.345L2.15202 73.3633C2.58416 73.8646 3.11136 74.314 3.73363 74.7116C4.37319 75.0919 5.0646 75.3943 5.80787 75.6191C6.56843 75.8438 7.33763 75.9561 8.11547 75.9561C8.72045 75.9561 9.22173 75.8956 9.61929 75.7746C10.0341 75.6536 10.3366 75.4721 10.5268 75.2301C10.7169 74.9881 10.812 74.7029 10.812 74.3745C10.812 74.0115 10.6823 73.709 10.4231 73.467C10.1638 73.2077 9.67114 72.9917 8.94516 72.8188L5.78194 72.1188C4.81397 71.8941 3.9497 71.6002 3.18914 71.2372C2.44587 70.8569 1.85817 70.3557 1.42604 69.7334C0.993907 69.0938 0.77784 68.2987 0.77784 67.348C0.77784 66.2763 1.07169 65.3256 1.65939 64.4959C2.24709 63.649 3.09407 62.9835 4.20034 62.4995C5.3066 62.0155 6.62893 61.7735 8.16732 61.7735Z" fill="#FA173D"/>
<path d="M175.931 41.694C175.918 42.2243 175.982 42.7546 176.138 43.2716C176.28 43.7091 176.462 44.1333 176.682 44.5443C176.759 44.6636 176.798 44.7961 176.811 44.942C176.785 45.1673 176.669 45.3529 176.475 45.459L175.4 46.2014C175.257 46.2942 175.102 46.3472 174.946 46.3605C174.752 46.3605 174.558 46.2677 174.428 46.1086C174.182 45.87 173.988 45.5916 173.82 45.2999C173.651 44.995 173.47 44.6503 173.289 44.2659C172.071 45.8435 170.193 46.7317 168.238 46.7052C166.968 46.7715 165.725 46.3075 164.792 45.4325C162.979 43.4042 163.122 40.2755 165.09 38.4062C166.282 37.4385 167.797 36.948 169.325 37.0408C169.934 37.0408 170.53 37.0805 171.139 37.1733C171.773 37.2661 172.434 37.3987 173.12 37.571V36.2718C173.224 35.251 172.926 34.2435 172.304 33.4481C171.501 32.8117 170.504 32.5333 169.507 32.6261C168.872 32.6261 168.263 32.7057 167.642 32.8515C167.02 33.0106 166.398 33.2095 165.79 33.4613C165.608 33.5541 165.401 33.6204 165.181 33.6867C165.103 33.7 165 33.7265 164.909 33.7265C164.663 33.7265 164.559 33.5409 164.559 33.1697V32.308C164.559 32.0959 164.585 31.8838 164.689 31.6982C164.818 31.5391 164.987 31.4065 165.168 31.327C165.854 30.9955 166.58 30.7171 167.331 30.5315C168.199 30.3062 169.105 30.1868 169.999 30.2001C171.631 30.0543 173.25 30.5713 174.506 31.6319C175.542 32.825 176.06 34.3893 175.944 35.9669V41.7072L175.931 41.694ZM168.924 44.3719C169.533 44.3719 170.141 44.2526 170.711 44.0538C171.346 43.8284 171.903 43.4439 172.343 42.9269C172.615 42.5955 172.809 42.211 172.926 41.8C173.042 41.2963 173.107 40.7925 173.094 40.2755V39.5331C172.563 39.4005 172.032 39.3077 171.501 39.2414C170.983 39.1751 170.426 39.1354 169.895 39.1354C168.989 39.0558 168.095 39.3077 167.331 39.8513C166.295 40.8986 166.204 42.5955 167.111 43.7488C167.616 44.1996 168.25 44.425 168.924 44.3852V44.3719ZM182.756 46.2942C182.523 46.3207 182.303 46.2544 182.095 46.1351C181.914 45.9495 181.785 45.6976 181.746 45.4457L177.705 31.8042C177.614 31.5788 177.575 31.3402 177.55 31.0883C177.511 30.8762 177.653 30.6906 177.86 30.6641C177.899 30.6641 177.925 30.6641 177.977 30.6641H179.661C179.907 30.6376 180.14 30.7039 180.347 30.8364C180.515 31.0353 180.645 31.2739 180.697 31.5258L183.585 43.192L186.266 31.5258C186.292 31.2607 186.421 31.022 186.603 30.8364C186.81 30.7039 187.043 30.6508 187.289 30.6641H188.675C188.921 30.6376 189.154 30.7039 189.361 30.8364C189.555 31.022 189.659 31.2739 189.685 31.5258L192.405 43.3511L195.384 31.5258C195.422 31.2739 195.552 31.0353 195.72 30.8364C195.927 30.7039 196.174 30.6508 196.394 30.6641H198C198.207 30.6376 198.388 30.7834 198.414 30.9823V31.0883C198.414 31.1811 198.401 31.2739 198.388 31.3667C198.349 31.5126 198.311 31.6584 198.259 31.791L194.101 45.4325C194.05 45.6976 193.92 45.9363 193.739 46.1219C193.544 46.2544 193.311 46.3075 193.078 46.2809H191.589C191.343 46.3075 191.11 46.2412 190.902 46.0953C190.721 45.8965 190.604 45.6446 190.566 45.3795L187.872 34.0181L185.23 45.3795C185.191 45.6446 185.074 45.8832 184.893 46.0953C184.686 46.2412 184.453 46.2942 184.207 46.2809H182.73L182.756 46.2942ZM204.877 46.7582C203.983 46.7582 203.09 46.6521 202.222 46.4533C201.535 46.3075 200.862 46.0821 200.24 45.7374C200.007 45.6313 199.826 45.459 199.709 45.2469C199.645 45.1011 199.606 44.9287 199.606 44.7564V43.8682C199.606 43.497 199.735 43.3114 200.007 43.3114C200.111 43.3114 200.227 43.3246 200.331 43.3644C200.435 43.4042 200.577 43.4704 200.758 43.55C201.367 43.8284 202.002 44.0272 202.649 44.1731C203.323 44.3189 204.009 44.3852 204.696 44.3852C205.576 44.4382 206.444 44.2261 207.221 43.8019C207.778 43.4572 208.128 42.8076 208.115 42.1315C208.115 41.6675 207.946 41.23 207.648 40.8986C207.143 40.4611 206.548 40.1562 205.913 39.9706L203.4 39.1619C202.325 38.8835 201.367 38.2472 200.655 37.3722C200.098 36.643 199.787 35.7416 199.787 34.8136C199.774 34.1242 199.942 33.4613 200.253 32.8515C200.564 32.2947 200.979 31.791 201.497 31.4065C202.028 30.9955 202.649 30.6906 203.284 30.4918C203.983 30.2796 204.708 30.1868 205.447 30.1868C205.835 30.1868 206.224 30.2134 206.599 30.2664C206.988 30.3194 207.364 30.3857 207.713 30.4652C208.063 30.5448 208.387 30.6376 208.697 30.7436C208.944 30.8232 209.177 30.9292 209.41 31.0486C209.617 31.1546 209.785 31.3004 209.915 31.486C210.031 31.6584 210.083 31.8572 210.07 32.0694V32.9045C210.07 33.2757 209.941 33.4613 209.682 33.4613C209.449 33.4348 209.228 33.3553 209.021 33.2492C207.985 32.7852 206.858 32.5599 205.719 32.5731C204.929 32.5333 204.139 32.7057 203.426 33.0636C202.895 33.3951 202.572 34.0049 202.61 34.6412C202.61 35.1185 202.792 35.5692 203.115 35.8874C203.672 36.3381 204.32 36.6696 205.019 36.8552L207.467 37.6638C208.503 37.9422 209.436 38.5255 210.148 39.3607C210.679 40.0766 210.964 40.9383 210.951 41.8266C210.951 42.5424 210.809 43.2451 210.498 43.8814C210.2 44.4912 209.772 45.0215 209.254 45.4457C208.672 45.8965 208.037 46.2279 207.338 46.4268C206.548 46.6654 205.719 46.7715 204.89 46.7582" fill="white"/>
<path d="M208.141 55.3354C202.468 59.6174 194.257 61.8976 187.172 61.8976C177.718 61.9507 168.587 58.3845 161.555 51.8885C161.037 51.398 161.503 50.7219 162.137 51.1064C169.934 55.6668 178.78 58.0663 187.768 58.0663C194.477 58.0266 201.121 56.6478 207.312 53.9699C208.27 53.5457 209.086 54.6195 208.141 55.3221V55.3354ZM209.008 59.1932C208.801 59.7235 209.254 59.9356 209.708 59.5379C212.751 56.9262 213.541 51.4643 212.92 50.6821C212.298 49.9 206.988 49.2239 203.737 51.5571C203.232 51.915 203.336 52.4056 203.88 52.3393C205.719 52.1139 209.772 51.6234 210.498 52.5646C211.223 53.5192 209.695 57.43 209.008 59.1799" fill="white"/>
<path d="M157.851 28.8078V20.5752H158.951L159.081 21.1585C159.34 20.9199 159.638 20.721 159.949 20.6017C160.272 20.4691 160.596 20.4028 160.946 20.4028C161.658 20.4028 162.228 20.6812 162.656 21.2248C163.083 21.7683 163.29 22.4975 163.29 23.4254C163.29 24.0353 163.187 24.5788 162.992 25.0561C162.798 25.5333 162.513 25.9045 162.15 26.1697C161.788 26.4348 161.347 26.5674 160.855 26.5674C160.544 26.5674 160.234 26.5143 159.949 26.395C159.651 26.289 159.405 26.1299 159.185 25.931V28.8078H157.864H157.851ZM160.532 21.4767C160.039 21.4767 159.599 21.6225 159.185 21.9141V25.0428C159.599 25.3477 160.052 25.4936 160.519 25.4936C160.985 25.4936 161.36 25.3345 161.594 24.9898C161.827 24.6451 161.943 24.1413 161.943 23.4652C161.943 22.7891 161.827 22.2853 161.606 21.9672C161.373 21.6357 161.024 21.4767 160.544 21.4767H160.532Z" fill="white"/>
<path d="M167.098 26.6071C166.23 26.6071 165.544 26.3288 165.065 25.7852C164.572 25.2417 164.339 24.4728 164.339 23.505C164.339 22.5372 164.585 21.7683 165.065 21.2248C165.557 20.6812 166.23 20.4028 167.098 20.4028C167.966 20.4028 168.652 20.6812 169.131 21.2248C169.623 21.7683 169.857 22.524 169.857 23.505C169.857 24.486 169.61 25.2417 169.131 25.7852C168.639 26.3288 167.966 26.6071 167.098 26.6071ZM167.098 25.5333C168.043 25.5333 168.51 24.8572 168.51 23.4917C168.51 22.1263 168.03 21.4634 167.098 21.4634C166.165 21.4634 165.686 22.1395 165.686 23.4917C165.686 24.844 166.152 25.5333 167.098 25.5333Z" fill="white"/>
<path d="M175.762 26.435L174.636 22.0336L173.509 26.435H172.201L170.349 20.5753H171.683L172.9 25.043L174.053 20.5753H175.309L176.462 25.1225L177.64 20.5753H178.974L177.083 26.435H175.775H175.762Z" fill="white"/>
<path d="M180.813 23.8364C180.839 24.4197 180.995 24.844 181.279 25.1224C181.564 25.4008 182.005 25.5333 182.601 25.5333C183.132 25.5333 183.714 25.4273 184.336 25.2152V26.1697C184.077 26.3022 183.779 26.4215 183.429 26.5011C183.08 26.5806 182.717 26.6204 182.342 26.6204C181.396 26.6204 180.684 26.3553 180.192 25.8382C179.699 25.3212 179.466 24.5523 179.466 23.558C179.466 22.5637 179.699 21.7948 180.179 21.238C180.658 20.6812 181.318 20.4028 182.173 20.4028C182.911 20.4028 183.468 20.6149 183.87 21.0127C184.258 21.4236 184.466 22.0069 184.466 22.7626C184.466 23.1603 184.427 23.5182 184.362 23.8364H180.813ZM182.173 21.3971C181.785 21.3971 181.474 21.5297 181.241 21.8081C180.995 22.0865 180.865 22.4577 180.826 22.9217H183.287V22.8289C183.287 22.3649 183.196 22.0069 183.002 21.7551C182.808 21.5032 182.536 21.3839 182.173 21.3839V21.3971Z" fill="white"/>
<path d="M185.748 26.4349V20.5753H186.849L187.03 21.4502C187.328 21.1188 187.613 20.8802 187.872 20.7344C188.131 20.6018 188.416 20.5222 188.727 20.5222C188.869 20.5222 189.024 20.5222 189.193 20.562V21.8082C188.986 21.7684 188.765 21.7551 188.545 21.7551C187.988 21.7551 187.496 21.901 187.069 22.1926V26.4482H185.748V26.4349Z" fill="white"/>
<path d="M191.148 23.8364C191.174 24.4197 191.33 24.844 191.615 25.1224C191.9 25.4008 192.34 25.5333 192.936 25.5333C193.467 25.5333 194.05 25.4273 194.671 25.2152V26.1697C194.412 26.3022 194.114 26.4215 193.765 26.5011C193.415 26.5806 193.052 26.6204 192.677 26.6204C191.731 26.6204 191.019 26.3553 190.527 25.8382C190.035 25.3212 189.802 24.5523 189.802 23.558C189.802 22.5637 190.035 21.7948 190.514 21.238C190.993 20.6812 191.654 20.4028 192.508 20.4028C193.247 20.4028 193.803 20.6149 194.205 21.0127C194.594 21.4236 194.801 22.0069 194.801 22.7626C194.801 23.1603 194.762 23.5182 194.697 23.8364H191.148ZM192.508 21.3971C192.12 21.3971 191.809 21.5297 191.576 21.8081C191.33 22.0865 191.2 22.4577 191.161 22.9217H193.622V22.8289C193.622 22.3649 193.532 22.0069 193.337 21.7551C193.143 21.5032 192.871 21.3839 192.508 21.3839V21.3971Z" fill="white"/>
<path d="M200.072 26.4349L199.942 25.8649C199.437 26.3289 198.842 26.5543 198.181 26.5543C197.456 26.5543 196.886 26.2759 196.458 25.7323C196.031 25.1888 195.811 24.4464 195.811 23.5184C195.811 22.9086 195.915 22.365 196.109 21.901C196.303 21.437 196.588 21.0658 196.951 20.8007C197.313 20.5355 197.754 20.403 198.259 20.403C198.854 20.403 199.411 20.6018 199.904 20.9995V17.9106H201.225V26.4349H200.085H200.072ZM198.582 25.4937C199.023 25.4937 199.45 25.3479 199.878 25.0562V21.8878C199.489 21.6094 199.075 21.4768 198.608 21.4768C198.103 21.4768 197.741 21.6359 197.495 21.9673C197.249 22.2987 197.145 22.7893 197.145 23.4654C197.145 24.8176 197.624 25.4937 198.582 25.4937Z" fill="white"/>
<path d="M205.783 26.4349V17.9106H207.104V21.0923C207.635 20.6283 208.231 20.403 208.866 20.403C209.578 20.403 210.148 20.6814 210.575 21.2249C211.003 21.7685 211.21 22.4976 211.21 23.4256C211.21 24.0354 211.106 24.579 210.912 25.0562C210.718 25.5335 210.433 25.9047 210.07 26.1698C209.708 26.4349 209.267 26.5675 208.775 26.5675C208.438 26.5675 208.115 26.5012 207.804 26.3819C207.493 26.2626 207.234 26.077 207.001 25.8516L206.871 26.4482H205.771L205.783 26.4349ZM208.464 21.4768C207.972 21.4768 207.532 21.6226 207.117 21.9143V25.043C207.532 25.3479 207.985 25.4937 208.451 25.4937C208.918 25.4937 209.293 25.3346 209.526 24.9899C209.76 24.6452 209.876 24.1415 209.876 23.4654C209.876 22.7893 209.76 22.2855 209.539 21.9673C209.306 21.6359 208.957 21.4768 208.477 21.4768H208.464Z" fill="white"/>
<path d="M213.93 26.5013L211.689 20.5753H213.023L214.565 25.2153L216.067 20.5753H217.401L214.837 27.363C214.629 27.9198 214.383 28.3307 214.098 28.5826C213.813 28.8345 213.438 28.9538 212.984 28.9538C212.648 28.9538 212.337 28.9008 212.039 28.7815V27.8402C212.22 27.88 212.415 27.8933 212.609 27.8933C212.933 27.8933 213.166 27.8402 213.334 27.7077C213.49 27.5883 213.645 27.3232 213.8 26.899L213.943 26.488L213.93 26.5013Z" fill="white"/>
</g>
<defs>
<clipPath id="clip0_59_4271">
<rect width="220" height="80" fill="white"/>
</clipPath>
</defs>
</svg>
