<svg width="95" height="29" viewBox="0 0 95 29" fill="none" xmlns="http://www.w3.org/2000/svg">
<path d="M4.83258 14.8737H2.82614L2.07985 19.6402V14.8737H0V27.8409H2.07985V22.9644L2.77721 27.8409H4.96716L3.69478 20.8012L4.83258 14.8737Z" fill="#474747"/>
<path d="M10.8888 25.5432C10.8888 25.751 10.7909 25.8487 10.5952 25.8487C10.3872 25.8487 10.2893 25.751 10.2893 25.5432V14.8859H8.20947V25.4821C8.20947 26.2276 8.44193 26.8387 8.8946 27.3276C9.34727 27.8164 9.91005 28.0609 10.5829 28.0609C11.2558 28.0609 11.8186 27.8164 12.2835 27.3276C12.7484 26.8387 12.9686 26.2276 12.9686 25.4821V14.8859H10.8888V25.5432Z" fill="#474747"/>
<path d="M19.2081 25.5432C19.2081 25.751 19.1103 25.8487 18.9145 25.8487C18.7065 25.8487 18.6087 25.751 18.6087 25.5432V14.8859H16.5288V25.4821C16.5288 26.2276 16.7613 26.8387 17.2139 27.3276C17.6666 27.8164 18.2294 28.0609 18.9023 28.0609C19.5752 28.0609 20.138 27.8164 20.6029 27.3276C21.0678 26.8387 21.288 26.2276 21.288 25.4821V14.8859H19.2081V25.5432Z" fill="#474747"/>
<path d="M29.6807 14.8737H27.6743L26.928 19.6402V14.8737H24.8481V27.8409H26.928V22.9644L27.6253 27.8409H29.8153L28.5429 20.8012L29.6807 14.8737Z" fill="#474747"/>
<path d="M34.5008 14.8737L33.0571 27.8409H35.0636L35.2226 25.8487H36.3359L36.495 27.8409H38.5504L37.1434 14.8737H34.5008ZM35.4061 23.7344L35.6998 20.1412L35.7976 18.4913L35.8955 20.1412L36.1891 23.7344H35.4061Z" fill="#474747"/>
<path d="M44.6554 25.5432C44.6554 25.751 44.5575 25.8487 44.3618 25.8487C44.1538 25.8487 44.0559 25.751 44.0559 25.5432V14.8859H41.9761V25.4821C41.9761 26.2276 42.2085 26.8387 42.6612 27.3276C43.1139 27.8164 43.6767 28.0609 44.3495 28.0609C45.0224 28.0609 45.5852 27.8164 46.0501 27.3276C46.515 26.8387 46.7352 26.2276 46.7352 25.4821V14.8859H44.6554V25.5432Z" fill="#474747"/>
<path d="M52.6446 14.6659C51.9962 14.6659 51.4579 14.8982 51.0297 15.3626C50.5403 15.8881 50.3079 16.6214 50.3079 17.5502C50.3079 18.5035 50.4914 19.3468 50.8584 20.0923L52.5101 23.4411C52.8404 24.101 52.9994 24.7243 52.9994 25.3232C52.9994 25.641 52.9016 25.7876 52.6936 25.7876C52.4856 25.7876 52.3877 25.6532 52.3877 25.3965V23.8688H50.3079V25.4454C50.3079 26.252 50.5525 26.8998 51.0542 27.3764C51.4946 27.8164 52.0329 28.0364 52.6813 28.0364C53.3298 28.0364 53.8681 27.8042 54.3085 27.3398C54.7979 26.8142 55.0426 26.0809 55.0426 25.1521C55.0426 24.2355 54.8468 23.3922 54.4676 22.61L52.8281 19.2613C52.5345 18.6135 52.3877 17.978 52.3877 17.3791C52.3877 17.0614 52.4856 16.9025 52.6936 16.9025C52.9016 16.9025 52.9994 17.0369 52.9994 17.2936V18.8335H55.0303V17.2569C55.0303 16.4625 54.7734 15.8148 54.2718 15.3259C53.8314 14.8859 53.2808 14.6659 52.6446 14.6659Z" fill="#474747"/>
<path d="M59.8261 15.8881L58.6272 15.6315V27.8409H60.707V15.9492C60.4134 15.9737 60.1075 15.9614 59.8261 15.8881Z" fill="#474747"/>
<path d="M66.9345 14.8737H64.2551V27.8409H66.3472V22.5733H66.494C66.7876 22.5733 66.9345 22.7322 66.9345 23.0378V27.8286H69.0143V22.9522C69.0143 22.6345 68.9409 22.3289 68.8063 22.0356C68.6717 21.7423 68.476 21.5467 68.2435 21.4612C68.4637 21.339 68.6473 21.1556 68.7941 20.9112C68.9409 20.6668 69.0265 20.3979 69.0265 20.129V17.2081C69.0265 16.4748 68.8308 15.9003 68.4515 15.4848C68.06 15.0815 67.5584 14.8737 66.9345 14.8737ZM66.9345 19.8846C66.9345 20.1901 66.7999 20.3368 66.543 20.3368H66.3594V17.0003H66.543C66.7999 17.0003 66.9345 17.1592 66.9345 17.4647V19.8846Z" fill="#474747"/>
<path d="M73.8711 14.8737L72.4275 27.8409H74.4339L74.593 25.8487H75.7063L75.8653 27.8409H77.933L76.526 14.8737H73.8711ZM74.7765 23.7344L75.0701 20.1412L75.168 18.4913L75.2659 20.1412L75.5595 23.7344H74.7765Z" fill="#474747"/>
<path d="M84.0258 20.3001H83.414V14.8737H81.3464V27.8409H83.414V22.4633H84.0258V27.8409H86.0934V14.8737H84.0258V20.3001Z" fill="#474747"/>
<path d="M93.6054 14.8737H90.9505L89.5068 27.8409H91.5133L91.6723 25.8487H92.7857L92.9447 27.8409H95.0001L93.6054 14.8737ZM91.8558 23.7344L92.1495 20.1412L92.2473 18.4913L92.3452 20.1412L92.6388 23.7344H91.8558Z" fill="#474747"/>
<path d="M63.6066 4.08202C62.4565 7.27186 60.6336 11.6105 60.2299 12.4661C59.8261 13.3338 59.557 13.3093 58.8841 13.2971C56.6207 13.2605 54.3574 13.2849 52.094 13.2849C54.6999 13.7371 57.3303 14.0426 59.9362 14.4215C60.6091 14.5193 60.9272 14.3726 61.2086 13.7738C62.273 11.5617 64.8545 4.70532 65.5151 3.36094C64.5241 3.00652 64.0103 3.26317 63.6066 4.08202Z" fill="#474747"/>
<path d="M28.8978 3.06762H30.7452C31.1611 3.06762 31.6016 2.7743 31.7239 2.40766L32.2989 0.794401C32.4335 0.439974 32.2011 0.134434 31.7851 0.134434H29.9377C29.5217 0.134434 29.0813 0.427753 28.9589 0.794401L28.3839 2.40766C28.2494 2.7743 28.4818 3.06762 28.8978 3.06762Z" fill="#474747"/>
<path d="M27.1238 2.40766L27.6988 0.794401C27.8334 0.439974 27.601 0.134434 27.185 0.134434H25.3376C24.9216 0.134434 24.4812 0.427753 24.3588 0.794401L23.7838 2.40766C23.6493 2.76208 23.8817 3.06762 24.2977 3.06762H26.1451C26.5488 3.06762 26.9892 2.7743 27.1238 2.40766Z" fill="#474747"/>
<path d="M34.0237 7.66297H35.8711C36.2871 7.66297 36.7275 7.36965 36.8499 7.003L37.4249 5.38975C37.5595 5.03532 37.327 4.72978 36.9111 4.72978H35.0637C34.6477 4.72978 34.2073 5.0231 34.0849 5.38975L33.5099 7.003C33.3753 7.36965 33.6078 7.66297 34.0237 7.66297Z" fill="#474747"/>
<path d="M32.311 4.74199H30.4636C30.0476 4.74199 29.6072 5.03531 29.4848 5.40196L28.9098 7.01522C28.7752 7.36964 29.0077 7.67518 29.4237 7.67518H31.271C31.687 7.67518 32.1275 7.38186 32.2498 7.01522L32.8248 5.40196C32.9594 5.03531 32.7269 4.74199 32.311 4.74199Z" fill="#474747"/>
<path d="M38.465 9.17843H36.5075C36.067 9.17843 35.6021 9.48397 35.4676 9.87506L34.8558 11.5861C34.7213 11.965 34.9659 12.2827 35.3942 12.2827H37.3517C37.7921 12.2827 38.257 11.9772 38.3916 11.5861L39.0033 9.87506C39.1379 9.48397 38.8932 9.17843 38.465 9.17843Z" fill="#474747"/>
<path d="M57.3549 12.185C58.3948 12.185 59.398 11.4639 59.7773 10.4373C60.8417 7.54074 61.8939 4.64422 62.946 1.74769C63.0928 1.3566 63.1051 0.989951 62.9827 0.672189C62.7747 0.183324 62.3343 0 61.7103 0C56.3884 0 51.0787 0 45.7567 0C45.6466 0 45.5487 0 45.4386 0.0122216C44.9615 0.0488865 44.5088 0.256654 44.0806 0.598859C43.7503 0.867735 43.5301 1.1855 43.3221 1.5277C42.2087 4.57089 40.0677 10.4006 39.9943 10.6573C39.9209 10.9139 39.9699 11.2317 40.0433 11.4761C40.2023 12.0016 40.6794 12.185 41.3034 12.185C45.2918 12.185 49.2802 12.185 53.2564 12.185C54.6144 12.1972 55.9846 12.1972 57.3549 12.185ZM43.5178 9.20288C43.2609 8.78734 42.796 8.64069 42.1843 8.70179C42.8205 6.9541 43.4566 5.21863 44.0806 3.48316C45.2673 3.6176 46.5275 2.66431 46.8211 1.46659C51.0297 1.46659 55.2384 1.46659 59.4592 1.46659C58.7374 2.81097 59.4592 3.7887 60.805 3.56871C60.1688 5.31641 59.5326 7.0641 58.8964 8.82401C57.673 8.64069 56.4496 9.52064 56.0581 10.7184C51.8617 10.7184 47.6775 10.7184 43.4567 10.7184C43.7136 10.1439 43.7747 9.61841 43.5178 9.20288Z" fill="#474747"/>
<path d="M50.2589 9.85062C52.3143 9.85062 54.6266 8.15181 55.3729 6.09858C56.1192 4.03313 55.0304 2.33432 52.9872 2.35876C50.8951 2.37099 48.6195 4.05757 47.8732 6.12302C47.1391 8.18848 48.2035 9.85062 50.2589 9.85062ZM49.3169 6.42856C49.378 6.23302 49.4882 6.15969 49.6717 6.17191C49.7328 6.17191 49.794 6.17191 49.8797 6.17191C49.9164 6.08636 49.9286 6.02525 49.9531 5.95192C49.8797 5.95192 49.8307 5.9397 49.7573 5.9397C49.5616 5.95192 49.5004 5.87859 49.5738 5.67082C49.6839 5.40195 49.7084 5.35306 49.9775 5.3775C50.1733 5.38973 50.2956 5.32862 50.4424 5.13307C51.1031 4.26534 52.1675 3.82536 53.1218 4.03313C53.2808 4.06979 53.4276 4.1309 53.5745 4.17978C53.6968 4.22867 53.6968 4.32644 53.5989 4.46088C53.5867 4.4731 53.5745 4.48533 53.5622 4.49755C53.2441 4.9253 53.2441 4.9253 52.8526 4.81531C52.559 4.72976 52.2531 4.69309 51.8861 4.81531C51.5925 4.90086 51.3356 5.07196 51.1031 5.3775C51.36 5.3775 51.5925 5.3775 51.8249 5.3775C52.0696 5.3775 52.0696 5.41417 51.9962 5.6586C51.935 5.86637 51.8127 5.92748 51.6292 5.92748C51.3478 5.91526 51.0664 5.92748 50.785 5.92748C50.7483 6.00081 50.7238 6.06191 50.6994 6.13524C50.7238 6.14747 50.7483 6.15969 50.7728 6.15969C51.0419 6.15969 51.3233 6.17191 51.5925 6.15969C51.8127 6.14747 51.776 6.2819 51.7271 6.44078C51.6659 6.59967 51.5925 6.70966 51.3967 6.70966C51.1398 6.69744 50.8829 6.70966 50.6137 6.70966C50.5281 7.07631 50.7361 7.39407 51.152 7.41851C51.4457 7.43074 51.7882 7.35741 52.0941 7.33296C52.192 7.32074 52.3632 7.32074 52.3755 7.36963C52.4122 7.52851 52.3755 7.71183 52.3632 7.89516C52.3632 7.9196 52.2776 7.98071 52.2287 7.99293C51.2377 8.38402 50.2222 8.26181 49.9041 7.61406C49.8063 7.41851 49.7696 7.1863 49.7573 6.95409C49.7573 6.77077 49.7084 6.70966 49.5004 6.72188C49.219 6.7341 49.219 6.69744 49.3169 6.42856Z" fill="#474747"/>
<path d="M45.7444 7.32075C46.3194 7.32075 46.9434 6.85633 47.1514 6.29413C47.3594 5.73194 47.0657 5.26752 46.503 5.25529C45.9402 5.24307 45.2795 5.73194 45.0838 6.29413C44.8758 6.85633 45.1816 7.32075 45.7444 7.32075Z" fill="#474747"/>
<path d="M56.6208 7.32075C57.1958 7.32075 57.8198 6.85633 58.0156 6.29413C58.2235 5.73194 57.9299 5.26752 57.3671 5.2553C56.8043 5.2553 56.1437 5.74416 55.9479 6.30636C55.7522 6.86855 56.058 7.32075 56.6208 7.32075Z" fill="#474747"/>
</svg>
