<svg width="1512" height="414" viewBox="0 0 1512 414" fill="none" xmlns="http://www.w3.org/2000/svg">
<mask id="mask0_7_260" style="mask-type:alpha" maskUnits="userSpaceOnUse" x="0" y="0" width="1512" height="414">
<rect width="1512" height="414" fill="#D9D9D9"/>
</mask>
<g mask="url(#mask0_7_260)">
<path d="M241.683 397.712C205.901 474.139 93.2008 476.634 41.3232 468.328C-128.792 444.249 4.45151 180.907 137.214 222.049C269.977 263.191 137.688 3.12468 218.567 31.929C299.445 60.7333 380.767 209.831 377.552 284.752C374.338 359.673 286.409 302.177 241.683 397.712Z" stroke="#377AA3" stroke-opacity="0.2" stroke-width="3"/>
<path d="M113.651 297.326C94.7718 337.567 35.3844 338.917 8.0506 334.562C-81.5825 321.942 -11.2855 183.281 58.6594 204.894C128.604 226.507 58.9804 89.6565 101.589 104.792C144.198 119.928 187.002 198.384 185.283 237.822C183.565 277.26 137.251 247.024 113.651 297.326Z" stroke="#377AA3" stroke-opacity="0.2" stroke-width="3"/>
<path d="M235.497 392.948C200.579 467.643 90.4961 470.033 39.8191 461.891C-126.358 438.279 3.67789 180.908 133.377 221.184C263.075 261.46 133.745 7.1765 212.758 35.3692C291.772 63.5619 371.271 209.346 368.164 282.584C365.056 355.821 279.144 299.578 235.497 392.948Z" stroke="#377AA3" stroke-opacity="0.2" stroke-width="3"/>
<path d="M229.362 388.183C195.212 461.143 87.6343 463.518 38.1143 455.585C-124.27 432.586 2.89953 181.193 129.63 220.478C256.361 259.764 130.068 11.4802 207.273 38.9838C284.477 66.4875 362.112 208.83 359.048 280.354C355.984 351.878 272.049 296.983 229.362 388.183Z" stroke="#377AA3" stroke-opacity="0.2" stroke-width="3"/>
<path d="M223.333 383.348C190.008 454.594 84.9846 456.892 36.6385 449.135C-121.896 426.643 2.20656 181.157 125.936 219.548C249.666 257.939 126.324 15.441 201.701 42.316C277.077 69.1909 352.897 208.217 349.92 278.067C346.943 347.917 264.989 294.29 223.333 383.348Z" stroke="#377AA3" stroke-opacity="0.2" stroke-width="3"/>
<path d="M217.198 378.583C184.64 448.094 82.1228 450.376 34.9336 442.829C-119.808 420.951 1.42814 181.442 122.19 218.842C242.951 256.242 122.648 19.7446 196.215 45.9305C269.782 72.1164 343.738 207.701 340.805 275.837C337.871 343.974 257.895 291.695 217.198 378.583Z" stroke="#377AA3" stroke-opacity="0.2" stroke-width="3"/>
<path d="M211.169 373.748C179.436 441.544 79.473 443.75 33.4578 436.379C-117.433 415.008 0.735112 181.407 118.496 217.912C236.257 254.417 118.903 23.7055 190.643 49.2626C262.383 74.8199 334.523 207.088 331.677 273.55C328.83 340.012 250.835 289.002 211.169 373.748Z" stroke="#377AA3" stroke-opacity="0.2" stroke-width="3"/>
<path d="M205.034 368.983C174.069 435.044 76.6111 437.235 31.7529 430.073C-115.346 409.315 -0.0433319 181.691 114.749 217.206C229.542 252.72 115.227 28.0091 185.157 52.8772C255.087 77.7453 325.364 206.572 322.561 271.32C319.758 336.069 243.74 286.408 205.034 368.983Z" stroke="#377AA3" stroke-opacity="0.2" stroke-width="3"/>
<path d="M199.005 364.148C168.865 428.494 73.9614 430.609 30.2772 423.623C-112.971 403.372 -0.736304 181.656 111.056 216.276C222.848 250.895 111.482 31.9699 179.585 56.2094C247.688 80.4488 316.149 205.959 313.433 269.033C310.717 332.108 236.681 283.714 199.005 364.148Z" stroke="#377AA3" stroke-opacity="0.2" stroke-width="3"/>
<path d="M192.82 359.69C163.523 422.362 71.1586 424.368 28.6387 417.537C-110.79 397.726 -1.68337 181.784 107.139 215.576C215.961 249.368 107.449 36.0178 173.744 59.6717C240.039 83.3257 306.741 205.642 304.133 267.09C301.526 328.539 229.442 281.35 192.82 359.69Z" stroke="#377AA3" stroke-opacity="0.2" stroke-width="3"/>
<path d="M186.8 354.873C158.309 415.791 68.514 417.753 27.1777 411.119C-108.37 391.882 -2.27017 181.981 103.521 214.811C209.311 247.642 103.845 40.2881 168.294 63.2701C232.742 86.2521 297.572 205.13 295.029 264.856C292.486 324.581 222.414 278.725 186.8 354.873Z" stroke="#377AA3" stroke-opacity="0.2" stroke-width="3"/>
<path d="M180.656 350.09C152.951 409.312 65.647 411.226 25.458 404.78C-106.328 386.09 -3.15481 182.033 99.6983 213.94C202.551 245.846 100.028 44.2823 162.686 66.6185C225.345 88.9547 288.367 204.513 285.89 262.574C283.412 320.634 215.288 276.062 180.656 350.09Z" stroke="#377AA3" stroke-opacity="0.2" stroke-width="3"/>
<path d="M174.636 345.273C147.738 402.741 63.0024 404.611 23.997 398.363C-103.908 380.246 -3.74161 182.23 96.0802 213.175C195.902 244.12 96.4247 48.5526 157.236 70.2168C218.047 91.8811 279.199 204.001 276.786 260.339C274.373 316.676 208.259 273.437 174.636 345.273Z" stroke="#377AA3" stroke-opacity="0.2" stroke-width="3"/>
<path d="M168.492 340.49C142.38 396.262 60.1354 398.084 22.2773 392.024C-101.866 374.455 -4.62625 182.283 92.2579 212.304C189.142 242.325 92.6072 52.5467 151.629 73.5651C210.65 94.5836 269.993 203.384 267.646 258.057C265.299 312.73 201.133 270.774 168.492 340.49Z" stroke="#377AA3" stroke-opacity="0.2" stroke-width="3"/>
<path d="M162.464 335.654C137.176 389.712 57.4856 391.458 20.8015 385.574C-99.4912 368.512 -5.31926 182.247 88.5642 211.373C182.448 240.5 88.8626 56.5076 146.057 76.8973C203.251 97.2871 260.779 202.771 258.518 255.77C256.258 308.768 194.074 268.081 162.464 335.654Z" stroke="#377AA3" stroke-opacity="0.2" stroke-width="3"/>
<path d="M156.329 330.89C131.808 383.212 54.6238 384.943 19.0967 379.268C-97.4033 362.819 -6.09763 182.532 84.8177 210.667C175.733 238.803 85.1864 60.8112 140.571 80.5119C195.955 100.213 251.619 202.255 249.403 253.54C247.186 304.825 186.979 265.486 156.329 330.89Z" stroke="#377AA3" stroke-opacity="0.2" stroke-width="3"/>
<path d="M150.3 326.054C126.604 376.663 51.974 378.317 17.6208 372.818C-95.029 356.876 -6.7907 182.496 81.1239 209.737C169.038 236.978 81.4418 64.772 134.999 83.844C188.556 102.916 242.405 201.642 240.275 251.253C238.145 300.864 179.919 262.793 150.3 326.054Z" stroke="#377AA3" stroke-opacity="0.2" stroke-width="3"/>
<path d="M144.008 321.361C121.119 370.216 49.0573 371.826 15.8878 366.524C-92.8813 351.156 -7.64958 182.818 77.2337 209.097C162.117 235.376 77.5665 69.1666 129.277 87.5667C180.987 105.967 232.964 201.254 230.899 249.142C228.833 297.03 172.619 260.292 144.008 321.361Z" stroke="#377AA3" stroke-opacity="0.2" stroke-width="3"/>
<path d="M137.979 316.526C115.915 363.667 46.4076 365.2 14.412 360.074C-90.5069 345.213 -8.34256 182.782 73.5401 208.166C155.423 233.551 73.8219 73.1275 123.705 90.8988C173.587 108.67 223.75 200.642 221.771 246.855C219.792 293.069 165.559 257.599 137.979 316.526Z" stroke="#377AA3" stroke-opacity="0.2" stroke-width="3"/>
<path d="M131.844 311.761C110.547 357.167 43.5458 358.685 12.7072 353.768C-88.419 339.521 -9.12091 183.067 69.7935 207.46C148.708 231.854 70.1458 77.4311 118.219 94.5133C166.292 111.596 214.59 200.125 212.655 244.625C210.72 289.126 158.465 255.004 131.844 311.761Z" stroke="#377AA3" stroke-opacity="0.2" stroke-width="3"/>
<path d="M125.815 306.926C105.343 350.617 40.896 352.059 11.2313 347.318C-86.0447 333.578 -9.81401 183.032 66.0997 206.53C142.013 230.029 66.4012 81.392 112.647 97.8455C158.893 114.299 205.376 199.513 203.527 242.338C201.678 285.164 151.405 252.311 125.815 306.926Z" stroke="#377AA3" stroke-opacity="0.2" stroke-width="3"/>
<path d="M119.671 302.143C99.9853 344.138 38.029 345.532 9.51164 340.979C-84.0022 327.786 -10.6986 183.084 62.2775 205.659C135.254 228.234 62.5837 85.3861 107.04 101.194C151.496 117.002 196.17 198.896 194.388 240.057C192.605 281.217 144.279 249.649 119.671 302.143Z" stroke="#377AA3" stroke-opacity="0.2" stroke-width="3"/>
<path d="M1067.85 220.128C1085.72 221.288 1078.47 208.248 1072.62 201.582C1066.66 195.01 1064.13 188.219 1063.62 185.645C1056.05 138.602 1009.44 215.163 1036.92 204.236C1064.39 193.31 1045.52 218.679 1067.85 220.128Z" stroke="#377AA3" stroke-opacity="0.2" stroke-width="3"/>
<path d="M1271.55 494.628C1451.63 506.339 1378.56 374.869 1319.51 307.67C1259.44 241.401 1234.01 172.94 1228.81 146.993C1152.51 -327.262 682.81 444.49 959.722 334.376C1236.63 224.262 1046.46 479.988 1271.55 494.628Z" stroke="#377AA3" stroke-opacity="0.2" stroke-width="3"/>
<path d="M1077.56 233.2C1103.15 234.862 1092.76 216.182 1084.37 206.634C1075.84 197.219 1072.22 187.491 1071.48 183.804C1060.65 116.418 993.886 226.083 1033.24 210.433C1072.6 194.784 1045.57 231.122 1077.56 233.2Z" stroke="#377AA3" stroke-opacity="0.2" stroke-width="3"/>
<path d="M1087.25 246.271C1120.57 248.436 1107.05 224.116 1096.13 211.686C1085.02 199.428 1080.31 186.764 1079.35 181.964C1065.24 94.2342 978.332 237.003 1029.56 216.63C1080.8 196.258 1045.61 243.566 1087.25 246.271Z" stroke="#377AA3" stroke-opacity="0.2" stroke-width="3"/>
<path d="M1096.95 259.343C1138 262.009 1121.34 232.051 1107.89 216.738C1094.2 201.637 1088.4 186.036 1087.22 180.123C1069.83 72.0502 962.778 247.924 1025.89 222.828C1089 197.732 1045.65 256.009 1096.95 259.343Z" stroke="#377AA3" stroke-opacity="0.2" stroke-width="3"/>
<path d="M1106.66 272.414C1155.42 275.583 1135.63 239.985 1119.64 221.789C1103.38 203.846 1096.49 185.309 1095.08 178.283C1074.43 49.8661 947.225 258.844 1022.21 229.025C1097.2 199.205 1045.7 268.452 1106.66 272.414Z" stroke="#377AA3" stroke-opacity="0.2" stroke-width="3"/>
<path d="M1116.35 285.485C1172.84 289.157 1149.92 247.919 1131.4 226.841C1112.56 206.055 1104.58 184.581 1102.95 176.442C1079.02 27.6821 931.671 269.764 1018.54 235.222C1105.4 200.679 1045.74 280.895 1116.35 285.485Z" stroke="#377AA3" stroke-opacity="0.2" stroke-width="3"/>
<path d="M1126.05 298.557C1190.27 302.731 1164.21 255.854 1143.16 231.893C1121.74 208.264 1112.67 183.854 1110.81 174.602C1083.61 5.49826 916.117 280.685 1014.86 241.419C1113.61 202.153 1045.79 293.339 1126.05 298.557Z" stroke="#377AA3" stroke-opacity="0.2" stroke-width="3"/>
<path d="M1135.75 311.628C1207.69 316.305 1178.5 263.788 1154.92 236.945C1130.92 210.473 1120.76 183.126 1118.68 172.761C1088.2 -16.6859 900.563 291.605 1011.19 247.616C1121.81 203.627 1045.83 305.782 1135.75 311.628Z" stroke="#377AA3" stroke-opacity="0.2" stroke-width="3"/>
<path d="M1145.45 324.7C1225.12 329.879 1192.79 271.722 1166.67 241.997C1140.1 212.683 1128.85 182.398 1126.55 170.92C1092.8 -38.8698 885.009 302.525 1007.51 253.813C1130.01 205.101 1045.88 318.225 1145.45 324.7Z" stroke="#377AA3" stroke-opacity="0.2" stroke-width="3"/>
<path d="M1155.15 337.771C1242.54 343.453 1207.08 279.657 1178.43 247.048C1149.28 214.892 1136.94 181.671 1134.41 169.08C1097.39 -61.0538 869.456 313.445 1003.83 260.01C1138.21 206.575 1045.92 330.669 1155.15 337.771Z" stroke="#377AA3" stroke-opacity="0.2" stroke-width="3"/>
<path d="M1164.85 350.842C1259.97 357.027 1221.37 287.591 1190.19 252.1C1158.46 217.101 1145.03 180.943 1142.28 167.239C1101.98 -83.2378 853.902 324.366 1000.16 266.207C1146.41 208.049 1045.97 343.112 1164.85 350.842Z" stroke="#377AA3" stroke-opacity="0.2" stroke-width="3"/>
<path d="M1174.55 363.914C1277.39 370.601 1235.66 295.525 1201.94 257.152C1167.64 219.31 1153.12 180.216 1150.15 165.399C1106.58 -105.422 838.348 335.286 996.482 272.405C1154.62 209.523 1046.01 355.555 1174.55 363.914Z" stroke="#377AA3" stroke-opacity="0.2" stroke-width="3"/>
<path d="M1184.25 376.985C1294.81 384.174 1249.95 303.46 1213.7 262.204C1176.82 221.519 1161.21 179.488 1158.01 163.558C1111.17 -127.606 822.794 346.206 992.806 278.602C1162.82 210.997 1046.06 367.998 1184.25 376.985Z" stroke="#377AA3" stroke-opacity="0.2" stroke-width="3"/>
<path d="M1193.95 390.056C1312.24 397.748 1264.24 311.394 1225.46 267.256C1186 223.728 1169.3 178.761 1165.88 161.718C1115.76 -149.79 807.24 357.127 989.13 284.799C1171.02 212.471 1046.1 380.442 1193.95 390.056Z" stroke="#377AA3" stroke-opacity="0.2" stroke-width="3"/>
<path d="M1203.65 403.128C1329.66 411.322 1278.53 319.329 1237.21 272.307C1195.18 225.937 1177.39 178.033 1173.74 159.877C1120.36 -171.974 791.686 368.047 985.454 290.996C1179.22 213.945 1046.14 392.885 1203.65 403.128Z" stroke="#377AA3" stroke-opacity="0.2" stroke-width="3"/>
<path d="M1213.35 416.199C1347.09 424.896 1292.82 327.263 1248.97 277.359C1204.36 228.146 1185.48 177.305 1181.61 158.036C1124.95 -194.158 776.133 378.967 981.778 297.193C1187.42 215.419 1046.19 405.328 1213.35 416.199Z" stroke="#377AA3" stroke-opacity="0.2" stroke-width="3"/>
<path d="M1223.05 429.271C1364.51 438.47 1307.11 335.197 1260.73 282.411C1213.54 230.356 1193.57 176.578 1189.48 156.196C1129.54 -216.342 760.579 389.888 978.102 303.39C1195.62 216.893 1046.23 417.772 1223.05 429.271Z" stroke="#377AA3" stroke-opacity="0.2" stroke-width="3"/>
<path d="M1232.75 442.342C1381.94 452.044 1321.4 343.132 1272.49 287.463C1222.72 232.565 1201.65 175.85 1197.34 154.355C1134.14 -238.526 745.025 400.808 974.426 309.587C1203.83 218.366 1046.28 430.215 1232.75 442.342Z" stroke="#377AA3" stroke-opacity="0.2" stroke-width="3"/>
<path d="M1242.45 455.413C1399.36 465.618 1335.69 351.066 1284.24 292.514C1231.9 234.774 1209.74 175.123 1205.21 152.515C1138.73 -260.71 729.471 411.728 970.75 315.784C1212.03 219.84 1046.32 442.658 1242.45 455.413Z" stroke="#377AA3" stroke-opacity="0.2" stroke-width="3"/>
<path d="M1252.15 468.485C1416.78 479.192 1349.98 359 1296 297.566C1241.08 236.983 1217.83 174.395 1213.07 150.674C1143.32 -282.894 713.918 422.649 967.074 321.982C1220.23 221.314 1046.37 455.101 1252.15 468.485Z" stroke="#377AA3" stroke-opacity="0.2" stroke-width="3"/>
<path d="M1261.85 481.556C1434.21 492.766 1364.27 366.935 1307.76 302.618C1250.26 239.192 1225.92 173.668 1220.94 148.834C1147.91 -305.078 698.364 433.569 963.398 328.179C1228.43 222.788 1046.41 467.545 1261.85 481.556Z" stroke="#377AA3" stroke-opacity="0.2" stroke-width="3"/>
</g>
</svg>
