<svg width="375" height="873" viewBox="0 0 375 873" fill="none" xmlns="http://www.w3.org/2000/svg">
<g clip-path="url(#clip0_1_2)">
<path d="M251.097 604.273C262.8 605.033 258.052 596.492 254.215 592.126C250.312 587.821 248.66 583.373 248.322 581.687C243.367 550.874 212.835 601.021 230.833 593.864C248.83 586.707 236.468 603.324 251.097 604.273Z" stroke="#377AA3" stroke-opacity="0.2" stroke-width="3"/>
<path d="M384.52 784.07C502.47 791.741 454.608 705.628 415.933 661.613C376.586 618.207 359.93 573.365 356.52 556.37C306.544 245.735 -1.10609 751.229 180.271 679.105C361.647 606.981 237.081 774.481 384.52 784.07Z" stroke="#377AA3" stroke-opacity="0.2" stroke-width="3"/>
<path d="M257.451 612.835C274.213 613.924 267.412 601.688 261.916 595.435C256.325 589.268 253.959 582.896 253.474 580.481C246.376 536.343 202.648 608.174 228.425 597.923C254.202 587.673 236.497 611.474 257.451 612.835Z" stroke="#377AA3" stroke-opacity="0.2" stroke-width="3"/>
<path d="M263.804 621.397C285.626 622.815 276.772 606.885 269.617 598.744C262.338 590.715 259.257 582.42 258.626 579.276C249.384 521.813 192.46 615.326 226.017 601.982C259.575 588.638 236.527 619.625 263.804 621.397Z" stroke="#377AA3" stroke-opacity="0.2" stroke-width="3"/>
<path d="M270.157 629.959C297.039 631.705 286.132 612.082 277.318 602.053C268.351 592.162 264.556 581.943 263.779 578.07C252.392 507.283 182.272 622.479 223.609 606.041C264.947 589.604 236.556 627.775 270.157 629.959Z" stroke="#377AA3" stroke-opacity="0.2" stroke-width="3"/>
<path d="M276.511 638.52C308.452 640.596 295.492 617.279 285.019 605.361C274.364 593.609 269.854 581.467 268.931 576.865C255.401 492.752 172.085 629.632 221.202 610.1C270.319 590.569 236.585 635.925 276.511 638.52Z" stroke="#377AA3" stroke-opacity="0.2" stroke-width="3"/>
<path d="M282.864 647.082C319.865 649.487 304.851 622.476 292.72 608.67C280.377 595.055 275.153 580.99 274.083 575.659C258.409 478.222 161.897 636.785 218.794 614.16C275.691 591.534 236.614 644.076 282.864 647.082Z" stroke="#377AA3" stroke-opacity="0.2" stroke-width="3"/>
<path d="M289.218 655.644C331.277 658.378 314.211 627.673 300.42 611.979C286.39 596.503 280.451 580.514 279.236 574.454C261.418 463.691 151.709 643.938 216.386 618.219C281.063 592.5 236.643 652.226 289.218 655.644Z" stroke="#377AA3" stroke-opacity="0.2" stroke-width="3"/>
<path d="M295.571 664.205C342.69 667.269 323.571 632.87 308.121 615.288C292.404 597.949 285.75 580.037 284.388 573.248C264.426 449.161 141.522 651.09 213.979 622.278C286.436 593.465 236.673 660.376 295.571 664.205Z" stroke="#377AA3" stroke-opacity="0.2" stroke-width="3"/>
<path d="M301.925 672.767C354.103 676.16 332.931 638.067 315.822 618.597C298.417 599.396 291.049 579.56 289.54 572.042C267.435 434.63 131.334 658.243 211.571 626.337C291.808 594.431 236.702 668.527 301.925 672.767Z" stroke="#377AA3" stroke-opacity="0.2" stroke-width="3"/>
<path d="M308.278 681.329C365.516 685.05 342.29 643.264 323.523 621.906C304.43 600.843 296.347 579.084 294.693 570.837C270.443 420.1 121.146 665.396 209.163 630.396C297.18 595.396 236.731 676.677 308.278 681.329Z" stroke="#377AA3" stroke-opacity="0.2" stroke-width="3"/>
<path d="M314.632 689.891C376.929 693.941 351.65 648.461 331.224 625.215C310.443 602.29 301.646 578.607 299.845 569.631C273.452 405.569 110.958 672.549 206.756 634.455C302.553 596.361 236.76 684.827 314.632 689.891Z" stroke="#377AA3" stroke-opacity="0.2" stroke-width="3"/>
<path d="M320.985 698.452C388.342 702.832 361.01 653.658 338.924 628.524C316.456 603.737 306.944 578.131 304.997 568.426C276.46 391.039 100.771 679.701 204.348 638.514C307.925 597.327 236.789 692.978 320.985 698.452Z" stroke="#377AA3" stroke-opacity="0.2" stroke-width="3"/>
<path d="M327.339 707.014C399.755 711.723 370.37 658.855 346.625 631.833C322.469 605.184 312.243 577.654 310.15 567.22C279.468 376.509 90.5831 686.854 201.94 642.573C313.297 598.292 236.819 701.128 327.339 707.014Z" stroke="#377AA3" stroke-opacity="0.2" stroke-width="3"/>
<path d="M333.692 715.576C411.168 720.614 379.729 664.052 354.326 635.142C328.482 606.631 317.541 577.178 315.302 566.015C282.477 361.978 80.3953 694.007 199.532 646.632C318.669 599.258 236.848 709.278 333.692 715.576Z" stroke="#377AA3" stroke-opacity="0.2" stroke-width="3"/>
<path d="M340.045 724.138C422.58 729.505 389.089 669.249 362.027 638.45C334.495 608.078 322.84 576.701 320.454 564.809C285.485 347.448 70.2076 701.16 197.125 650.691C324.042 600.223 236.877 717.428 340.045 724.138Z" stroke="#377AA3" stroke-opacity="0.2" stroke-width="3"/>
<path d="M346.399 732.699C433.993 738.396 398.449 674.446 369.728 641.759C340.508 609.525 328.139 576.224 325.606 563.603C288.494 332.917 60.0201 708.313 194.717 654.75C329.414 601.188 236.906 725.579 346.399 732.699Z" stroke="#377AA3" stroke-opacity="0.2" stroke-width="3"/>
<path d="M352.752 741.261C445.406 747.287 407.809 679.643 377.428 645.068C346.521 610.972 333.437 575.748 330.759 562.398C291.502 318.387 49.8322 715.465 192.309 658.81C334.786 602.154 236.935 733.729 352.752 741.261Z" stroke="#377AA3" stroke-opacity="0.2" stroke-width="3"/>
<path d="M359.106 749.823C456.819 756.177 417.169 684.84 385.129 648.377C352.534 612.419 338.736 575.271 335.911 561.192C294.51 303.856 39.6446 722.618 189.901 662.869C340.158 603.119 236.964 741.879 359.106 749.823Z" stroke="#377AA3" stroke-opacity="0.2" stroke-width="3"/>
<path d="M365.459 758.384C468.232 765.068 426.528 690.037 392.83 651.686C358.547 613.866 344.034 574.795 341.063 559.987C297.519 289.326 29.457 729.771 187.494 666.928C345.531 604.085 236.994 750.03 365.459 758.384Z" stroke="#377AA3" stroke-opacity="0.2" stroke-width="3"/>
<path d="M371.813 766.946C479.645 773.959 435.888 695.234 400.531 654.995C364.56 615.313 349.333 574.318 346.216 558.781C300.527 274.795 19.2693 736.924 185.086 670.987C350.903 605.05 237.023 758.18 371.813 766.946Z" stroke="#377AA3" stroke-opacity="0.2" stroke-width="3"/>
<path d="M378.166 775.508C491.057 782.85 445.248 700.431 408.232 658.304C370.573 616.76 354.631 573.842 351.368 557.576C303.536 260.265 9.08142 744.077 182.678 675.046C356.275 606.016 237.052 766.33 378.166 775.508Z" stroke="#377AA3" stroke-opacity="0.2" stroke-width="3"/>
<path d="M166.339 326.076C143.759 374.306 72.6386 375.881 39.9007 370.64C-67.4522 355.444 16.6325 189.259 100.414 215.222C184.195 241.185 100.713 77.068 151.752 95.2453C202.791 113.422 254.11 207.512 252.081 254.792C250.053 302.071 194.565 265.788 166.339 326.076Z" stroke="#377AA3" stroke-opacity="0.2" stroke-width="3"/>
<path d="M85.5441 262.726C73.6301 288.121 36.153 288.973 18.9038 286.225C-37.6601 278.261 6.70156 190.757 50.841 204.397C94.9803 218.036 51.0435 131.675 77.9323 141.226C104.821 150.778 131.833 200.288 130.748 225.176C129.664 250.064 100.437 230.983 85.5441 262.726Z" stroke="#377AA3" stroke-opacity="0.2" stroke-width="3"/>
<path d="M162.436 323.07C140.401 370.207 70.9317 371.715 38.9515 366.577C-65.9162 351.676 16.1442 189.26 97.9919 214.677C179.84 240.093 98.2241 79.6249 148.086 97.4162C197.949 115.208 248.118 207.206 246.157 253.423C244.196 299.641 189.98 264.148 162.436 323.07Z" stroke="#377AA3" stroke-opacity="0.2" stroke-width="3"/>
<path d="M158.564 320.063C137.014 366.105 69.1258 367.604 37.8757 362.598C-64.5985 348.084 15.6531 189.44 95.6277 214.231C175.602 239.023 95.9044 82.3409 144.625 99.6973C193.345 117.054 242.338 206.88 240.404 252.016C238.471 297.152 185.502 262.51 158.564 320.063Z" stroke="#377AA3" stroke-opacity="0.2" stroke-width="3"/>
<path d="M154.76 317.012C133.73 361.972 67.4537 363.422 36.9444 358.527C-63.1001 344.334 15.2158 189.417 93.2967 213.644C171.378 237.871 93.5413 84.8403 141.108 101.8C188.676 118.76 236.523 206.494 234.644 250.573C232.765 294.652 181.047 260.811 154.76 317.012Z" stroke="#377AA3" stroke-opacity="0.2" stroke-width="3"/>
<path d="M150.888 314.005C130.342 357.87 65.6476 359.311 35.8684 354.548C-61.7826 340.741 14.7245 189.597 90.9323 213.199C167.14 236.8 91.2213 87.5562 137.647 104.081C184.072 120.606 230.742 206.168 228.891 249.166C227.04 292.164 176.57 259.173 150.888 314.005Z" stroke="#377AA3" stroke-opacity="0.2" stroke-width="3"/>
<path d="M147.084 310.953C127.058 353.737 63.9755 355.129 34.9372 350.477C-60.2842 336.991 14.2872 189.575 88.6015 212.612C162.916 235.649 88.8584 90.0557 134.13 106.184C179.403 122.312 224.928 205.781 223.131 247.723C221.335 289.664 172.115 257.474 147.084 310.953Z" stroke="#377AA3" stroke-opacity="0.2" stroke-width="3"/>
<path d="M143.212 307.947C123.671 349.635 62.1694 351.017 33.8612 346.498C-58.9667 333.399 13.7959 189.754 86.237 212.166C158.678 234.578 86.5384 92.7715 130.669 108.465C174.799 124.158 219.147 205.455 217.379 246.316C215.61 287.176 167.638 255.836 143.212 307.947Z" stroke="#377AA3" stroke-opacity="0.2" stroke-width="3"/>
<path d="M139.408 304.895C120.387 345.502 60.4974 346.836 32.93 342.427C-57.4683 329.648 13.3587 189.732 83.9062 211.579C154.454 233.426 84.1754 95.2711 127.152 110.568C170.129 125.864 213.333 205.069 211.618 244.872C209.904 284.676 163.183 254.137 139.408 304.895Z" stroke="#377AA3" stroke-opacity="0.2" stroke-width="3"/>
<path d="M135.504 302.082C117.016 341.632 58.7286 342.898 31.896 338.587C-56.0918 326.085 12.761 189.813 81.4342 211.138C150.107 232.462 81.6299 97.8255 123.466 112.753C165.302 127.68 207.395 204.869 205.75 243.646C204.104 282.424 158.615 252.645 135.504 302.082Z" stroke="#377AA3" stroke-opacity="0.2" stroke-width="3"/>
<path d="M131.705 299.042C113.726 337.485 57.0598 338.723 30.9741 334.537C-54.5648 322.397 12.3907 189.937 79.151 210.655C145.911 231.373 79.356 100.52 120.027 115.023C160.697 129.526 201.609 204.546 200.004 242.236C198.4 279.926 154.18 250.988 131.705 299.042Z" stroke="#377AA3" stroke-opacity="0.2" stroke-width="3"/>
<path d="M127.828 296.024C110.345 333.396 55.2505 334.604 29.8888 330.537C-53.2759 318.742 11.8324 189.97 76.7389 210.105C141.645 230.24 76.9469 103.041 116.488 117.136C156.029 131.232 195.8 204.156 194.237 240.796C192.674 277.435 149.683 249.308 127.828 296.024Z" stroke="#377AA3" stroke-opacity="0.2" stroke-width="3"/>
<path d="M124.029 292.984C107.055 329.25 53.5815 330.43 28.9668 326.487C-51.749 315.054 11.462 190.094 74.4556 209.622C137.449 229.15 74.673 105.736 113.049 119.407C151.424 133.079 190.014 203.833 188.492 239.385C186.969 274.938 145.247 247.651 124.029 292.984Z" stroke="#377AA3" stroke-opacity="0.2" stroke-width="3"/>
<path d="M120.152 289.966C103.673 325.161 51.7724 326.311 27.8817 322.487C-50.4599 311.4 10.9039 190.127 72.0436 209.072C133.183 228.018 72.264 108.256 109.51 121.52C146.756 134.784 184.205 203.444 182.724 237.945C181.243 272.447 140.751 245.971 120.152 289.966Z" stroke="#377AA3" stroke-opacity="0.2" stroke-width="3"/>
<path d="M116.348 286.914C100.389 321.028 50.1002 322.13 26.9503 318.416C-48.9616 307.649 10.4666 190.105 69.7127 208.485C128.959 226.866 69.9009 110.756 105.994 123.623C142.087 136.49 178.39 203.057 176.964 236.502C175.537 269.947 136.296 244.271 116.348 286.914Z" stroke="#377AA3" stroke-opacity="0.2" stroke-width="3"/>
<path d="M112.476 283.907C97.0022 316.926 48.2942 318.018 25.8745 314.437C-47.644 304.057 9.97533 190.285 67.3483 208.04C124.721 225.795 67.5811 113.472 102.532 125.904C137.483 138.336 172.61 202.731 171.211 235.095C169.813 267.459 131.818 242.634 112.476 283.907Z" stroke="#377AA3" stroke-opacity="0.2" stroke-width="3"/>
<path d="M108.672 280.856C93.7182 312.793 46.622 313.837 24.9431 310.366C-46.1456 300.306 9.538 190.262 65.0174 207.453C120.497 224.643 65.218 115.971 99.0158 128.007C132.814 140.042 166.795 202.345 165.451 233.652C164.107 264.959 127.363 240.934 108.672 280.856Z" stroke="#377AA3" stroke-opacity="0.2" stroke-width="3"/>
<path d="M104.701 277.894C90.2565 308.725 44.7815 309.741 23.8495 306.395C-44.7903 296.697 8.99601 190.465 62.5625 207.049C116.129 223.632 62.7724 118.744 95.4046 130.356C128.037 141.967 160.838 202.1 159.534 232.32C158.231 262.54 122.756 239.356 104.701 277.894Z" stroke="#377AA3" stroke-opacity="0.2" stroke-width="3"/>
<path d="M100.896 274.843C86.9725 304.592 43.1092 305.559 22.918 302.325C-43.292 292.946 8.55856 190.443 60.2314 206.462C111.904 222.481 60.4093 121.244 91.8883 132.459C123.367 143.673 155.023 201.713 153.774 230.877C152.525 260.04 118.301 237.657 100.896 274.843Z" stroke="#377AA3" stroke-opacity="0.2" stroke-width="3"/>
<path d="M97.0247 271.836C83.5853 300.49 41.3033 301.448 21.8423 298.345C-41.9744 289.354 8.06746 190.622 57.8672 206.016C107.667 221.41 58.0895 123.96 88.4266 134.74C118.764 145.52 149.243 201.387 148.021 229.469C146.8 257.552 113.824 236.019 97.0247 271.836Z" stroke="#377AA3" stroke-opacity="0.2" stroke-width="3"/>
<path d="M93.2203 268.785C80.3013 296.356 39.6312 297.266 20.911 294.275C-40.476 285.604 7.63012 190.6 55.5362 205.429C103.442 220.258 55.7264 126.459 84.9103 136.843C114.094 147.226 143.428 201.001 142.261 228.026C141.094 255.052 109.369 234.32 93.2203 268.785Z" stroke="#377AA3" stroke-opacity="0.2" stroke-width="3"/>
<path d="M89.3432 265.766C76.92 292.268 37.8219 293.147 19.8257 290.275C-39.1871 281.949 7.07186 190.633 53.1242 204.879C99.1765 219.125 53.3174 128.98 81.3718 138.956C109.426 148.931 137.619 200.611 136.494 226.586C135.369 252.561 104.872 232.639 89.3432 265.766Z" stroke="#377AA3" stroke-opacity="0.2" stroke-width="3"/>
</g>
<defs>
<clipPath id="clip0_1_2">
<rect width="375" height="873" fill="white"/>
</clipPath>
</defs>
</svg>
