<svg width="90" height="58" viewBox="0 0 90 58" fill="none" xmlns="http://www.w3.org/2000/svg">
<path d="M45.0377 40.9819C43.5238 40.9819 42.3127 42.2676 42.3127 43.8748C42.3127 44.8391 42.7669 45.723 43.5238 46.2855V50.3034H46.5516V46.2855C47.3085 45.8034 47.7627 44.9194 47.7627 43.8748C47.687 42.2676 46.4759 40.9819 45.0377 40.9819Z" fill="black"/>
<path d="M88.5606 54.6429H59.5455C59.9242 54 60.2273 53.3571 60.3788 52.6339H78.1818C79.0152 52.6339 79.697 51.9107 79.697 51.0268V1.60714C79.697 0.723214 79.0152 0 78.1818 0H11.8939C11.0606 0 10.3788 0.723214 10.3788 1.60714V51.0268C10.3788 51.9107 11.0606 52.6339 11.8939 52.6339H29.697C29.8485 53.3571 30.1515 54 30.5303 54.6429H1.51515C0.681818 54.6429 0 55.3661 0 56.25C0 57.1339 0.681818 57.8571 1.51515 57.8571H88.4848C89.3182 57.8571 90 57.1339 90 56.25C90 55.3661 89.3939 54.6429 88.5606 54.6429ZM13.4091 3.21429H76.6667V49.4196H60.6061V35.3571C60.6061 31.5 57.6515 28.3661 54.0152 28.3661H53.9394V24.6696C53.9394 19.4464 50 15.2679 45.0758 15.2679C40.1515 15.2679 36.2121 19.4464 36.2121 24.6696V28.3661H36.1364C32.5 28.3661 29.5455 31.5 29.5455 35.3571V49.4196H13.4091V3.21429ZM50.9091 24.6696V28.3661H39.2424V24.6696C39.2424 21.2946 41.8939 18.4821 45.0758 18.4821C48.2576 18.4821 50.9091 21.2946 50.9091 24.6696ZM32.5 50.8661V35.3571C32.5 33.2679 34.0909 31.5804 36.0606 31.5804H54.0152C55.9849 31.5804 57.5758 33.2679 57.5758 35.3571V50.8661C57.5758 52.9554 55.9849 54.6429 54.0152 54.6429H36.0606C34.0909 54.6429 32.5 52.9554 32.5 50.8661Z" fill="black"/>
</svg>
