<svg width="54" height="71" viewBox="0 0 54 71" fill="none" xmlns="http://www.w3.org/2000/svg">
<path d="M51.8941 29.2578V9.69876C51.8941 9.69876 34.839 9.69876 26.8941 2C19.0551 9.69876 2 9.69876 2 9.69876V36.7484C2 59.9488 27 69 27 69C27 69 52 59.9488 52 36.7484V29.2578H51.8941Z" stroke="black" stroke-width="3.5" stroke-miterlimit="10" stroke-linejoin="round"/>
<path d="M20 31.7164L23.7707 36L36 22" stroke="black" stroke-width="3.5" stroke-miterlimit="10" stroke-linecap="round" stroke-linejoin="round"/>
<path d="M19.4336 46.5059L20.6523 41.6602H21.7363L19.8906 48H19.0117L17.4707 43.1953L15.9707 48H15.0918L13.252 41.6602H14.3301L15.5781 46.4062L17.0547 41.6602H17.9277L19.4336 46.5059ZM28.457 46.5059L29.6758 41.6602H30.7598L28.9141 48H28.0352L26.4941 43.1953L24.9941 48H24.1152L22.2754 41.6602H23.3535L24.6016 46.4062L26.0781 41.6602H26.9512L28.457 46.5059ZM37.4805 46.5059L38.6992 41.6602H39.7832L37.9375 48H37.0586L35.5176 43.1953L34.0176 48H33.1387L31.2988 41.6602H32.377L33.625 46.4062L35.1016 41.6602H35.9746L37.4805 46.5059Z" fill="black"/>
</svg>
