<svg width="78" height="72" viewBox="0 0 78 72" fill="none" xmlns="http://www.w3.org/2000/svg">
<path d="M35.1793 9.7229V15.675" stroke="black" stroke-width="3.5" stroke-miterlimit="10" stroke-linecap="round"/>
<path d="M35.1793 54.8062V60.7583" stroke="black" stroke-width="3.5" stroke-miterlimit="10" stroke-linecap="round"/>
<path d="M9.66815 35.2476H15.6066" stroke="black" stroke-width="3.5" stroke-miterlimit="10" stroke-linecap="round"/>
<path d="M54.7518 35.2476H60.6903" stroke="black" stroke-width="3.5" stroke-miterlimit="10" stroke-linecap="round"/>
<path d="M17.1324 53.2807L21.3411 49.072" stroke="black" stroke-width="3.5" stroke-miterlimit="10" stroke-linecap="round"/>
<path d="M49.0176 21.4091L53.2263 17.2004" stroke="black" stroke-width="3.5" stroke-miterlimit="10" stroke-linecap="round"/>
<path d="M53.2263 53.2807L49.0176 49.072" stroke="black" stroke-width="3.5" stroke-miterlimit="10" stroke-linecap="round"/>
<path d="M21.3411 21.4091L17.1324 17.2004" stroke="black" stroke-width="3.5" stroke-miterlimit="10" stroke-linecap="round"/>
<path d="M33.0272 38.6797L44.8224 25.0593" stroke="black" stroke-width="3.5" stroke-miterlimit="10" stroke-linecap="round"/>
<path d="M28.7233 28.7642L38.3665 39.1565" stroke="black" stroke-width="3.5" stroke-miterlimit="10" stroke-linecap="round"/>
<path d="M35.0431 68.0861C53.2922 68.0861 68.0861 53.2922 68.0861 35.0431C68.0861 16.7939 53.2922 2 35.0431 2C16.7939 2 2 16.7939 2 35.0431C2 53.2922 16.7939 68.0861 35.0431 68.0861Z" stroke="black" stroke-width="3.5" stroke-miterlimit="10" stroke-linecap="round"/>
<path d="M75.7579 46.2733V34.5963C75.7579 34.5963 65.8659 34.5963 61.2579 30C56.7113 34.5963 46.8193 34.5963 46.8193 34.5963V50.7453C46.8193 64.5963 61.3193 70 61.3193 70C61.3193 70 75.8193 64.5963 75.8193 50.7453V46.2733H75.7579Z" fill="#EBF9FF" stroke="black" stroke-width="3.5" stroke-miterlimit="10" stroke-linejoin="round"/>
<path d="M56.8193 51.5522L58.9404 54L65.8193 46" stroke="black" stroke-width="3.5" stroke-miterlimit="10" stroke-linecap="round" stroke-linejoin="round"/>
</svg>
