<svg width="180" height="50" viewBox="0 0 180 50" fill="none" xmlns="http://www.w3.org/2000/svg">
<g clip-path="url(#clip0_205_5025)">
<path d="M147.361 8.09938V7.25317H126.689L124.271 13.5393L147.361 8.09938Z" fill="white"/>
<path d="M122.821 7.25317V12.9348L126.327 7.25317H122.821Z" fill="white"/>
<path d="M123.062 30.2216H141.679L123.546 16.4406L123.062 30.2216Z" fill="white"/>
<path d="M147.361 8.94562L124.271 15.1108L142.163 30.2216H147.361V8.94562Z" fill="white"/>
<path d="M21.7596 30.2216L14.2646 46.0577L6.52787 30.2216H0V49.3217H3.6266V32.1558H3.74748L12.2095 49.3217H15.7152L24.1773 32.1558H24.2982V49.3217H27.9248V30.2216H21.7596Z" fill="white"/>
<path d="M49.5632 42.6729C49.5632 46.7831 46.4202 49.6843 40.3759 49.6843C34.3315 49.6843 31.1885 46.7831 31.1885 42.6729C31.1885 38.5628 34.3315 35.6615 40.3759 35.6615C46.4202 35.6615 49.5632 38.5628 49.5632 42.6729ZM40.3759 47.9919C44.486 47.9919 45.9366 45.5742 45.9366 42.7938C45.9366 40.0134 44.6069 37.5957 40.3759 37.5957C36.2657 37.5957 34.8151 40.0134 34.8151 42.7938C34.8151 45.5742 36.1448 47.9919 40.3759 47.9919Z" fill="white"/>
<path d="M61.0477 36.0242C58.63 36.0242 56.9376 36.8704 56.3331 38.6837H56.2123V36.1451H52.7065V49.4426H56.2123V42.7938C56.2123 40.0134 58.2673 38.2001 60.9268 38.2001C61.4104 38.2001 62.2566 38.2001 62.861 38.2001V36.0242C62.4984 36.0242 61.5313 36.0242 61.0477 36.0242Z" fill="white"/>
<path d="M86.4337 47.9919C82.928 47.9919 81.5982 45.5742 81.84 43.2774H94.8957V42.0685C94.8957 38.321 92.2362 35.9033 86.7963 35.7824C80.9938 35.7824 78.2134 39.0463 78.2134 42.9147C78.2134 46.7831 80.5102 49.9261 86.4337 49.9261C90.7856 49.9261 93.9286 48.4755 94.5331 45.5742H90.9065C90.4229 47.2666 89.0932 47.9919 86.4337 47.9919ZM86.4337 37.4748C89.8185 37.4748 91.1482 39.1672 91.1482 41.4641H81.84C81.84 39.2881 83.5324 37.4748 86.4337 37.4748Z" fill="white"/>
<path d="M101.666 38.0792C102.874 36.3868 105.534 35.6615 107.347 35.6615C108.677 35.6615 114.359 35.9033 114.359 40.1343V49.3217H110.853V40.9805C110.853 38.8045 109.523 37.5957 106.622 37.5957C106.622 37.5957 104.688 37.4748 103.237 38.5628C102.754 38.9254 101.786 39.5299 101.786 42.0685V49.3217H98.2808V36.0242H101.666V38.0792Z" fill="white"/>
<path d="M125.238 35.6615C128.744 35.6615 132.613 36.7495 132.371 39.7716H128.744C128.865 38.0792 127.052 37.4748 125.118 37.4748C123.304 37.4748 121.733 38.0792 121.733 39.6508C121.733 41.1014 124.876 41.2223 126.206 41.5849C129.349 42.3103 132.975 42.552 132.975 45.5742C132.975 48.8381 128.623 49.8052 124.755 49.8052C120.887 49.8052 117.623 48.4755 117.743 45.4533H121.37C121.491 47.1457 122.942 47.9919 125.118 47.9919C127.173 47.9919 129.228 47.3875 129.228 45.6951C129.228 42.6729 117.985 44.9698 117.985 39.7716C117.985 36.8704 121.975 35.6615 125.238 35.6615Z" fill="white"/>
<path d="M154.01 42.6729C154.01 46.7831 150.866 49.6843 144.822 49.6843C138.778 49.6843 135.635 46.7831 135.635 42.6729C135.635 38.5628 138.778 35.6615 144.822 35.6615C150.866 35.6615 154.01 38.5628 154.01 42.6729ZM144.822 47.9919C148.932 47.9919 150.383 45.5742 150.383 42.7938C150.383 40.0134 149.053 37.5957 144.822 37.5957C140.712 37.5957 139.261 40.0134 139.261 42.7938C139.261 45.5742 140.712 47.9919 144.822 47.9919Z" fill="white"/>
<path d="M160.537 38.0792C161.746 36.3868 164.406 35.6615 166.219 35.6615C167.549 35.6615 173.23 35.9033 173.23 40.1343V49.3217H169.725V40.9805C169.725 38.8045 168.395 37.5957 165.494 37.5957C165.494 37.5957 163.559 37.4748 162.109 38.5628C161.625 38.9254 160.658 39.5299 160.658 42.0685V49.3217H157.152V36.0242H160.537V38.0792Z" fill="white"/>
<path d="M71.9275 32.5185V36.1451H75.7959V38.2002H71.9275V44.4863C71.9275 46.1787 71.8066 46.7831 72.1693 47.1458C72.6528 47.7502 73.1364 47.7502 73.3781 47.7502C73.6199 47.7502 73.9826 47.7502 74.587 47.7502C74.9497 47.7502 75.1914 47.7502 76.1585 47.7502V49.5635C75.675 49.5635 75.4332 49.6844 74.4661 49.6844C73.9826 49.6844 73.3781 49.6844 73.0155 49.6844C71.3231 49.6844 70.1142 49.4426 69.5098 48.8382C68.9053 48.3546 68.5427 47.3875 68.5427 46.0578V38.0793H64.6743V36.0242H68.5427V33.6065L71.9275 32.5185Z" fill="white"/>
<path d="M148.569 0V7.85762L169.604 2.90128V3.14305L148.569 8.70383V30.2216H173.109V0H148.569Z" fill="white"/>
<path d="M109.765 25.3862L109.644 25.2653L121.007 15.1108H98.2808V30.2217H122.458L122.095 16.4406L109.765 25.3862Z" fill="white"/>
<path d="M176.615 27.683V29.1337H176.374V25.9906H177.341C178.066 25.9906 178.429 26.2324 178.429 26.8368C178.429 26.9577 178.429 27.1995 178.308 27.3204C178.187 27.4412 178.066 27.5621 177.824 27.5621C177.945 27.5621 178.187 27.683 178.187 27.8039C178.308 27.9248 178.308 28.0457 178.308 28.2874C178.308 28.4083 178.308 28.6501 178.308 28.8919C178.308 29.0128 178.308 29.1337 178.429 29.2545H178.066C178.066 29.1337 177.945 28.8919 177.945 28.6501C177.945 28.2874 177.824 28.0457 177.824 27.9248C177.703 27.8039 177.582 27.8039 177.341 27.8039H176.615V27.683ZM176.615 27.4412H177.22C177.462 27.4412 177.703 27.4412 177.824 27.3204C178.066 27.1995 178.066 27.0786 178.066 26.8368C178.066 26.595 177.945 26.3533 177.703 26.3533C177.582 26.3533 177.462 26.3533 177.22 26.3533H176.615V27.4412Z" fill="white"/>
<path d="M177.341 30.3425C175.89 30.3425 174.681 29.1336 174.681 27.683C174.681 26.2324 175.89 25.0235 177.341 25.0235C178.791 25.0235 180 26.2324 180 27.683C180 29.1336 178.791 30.3425 177.341 30.3425ZM177.341 25.2653C176.011 25.2653 175.044 26.3532 175.044 27.5621C175.044 28.8919 176.132 29.859 177.341 29.859C178.67 29.859 179.638 28.771 179.638 27.5621C179.638 26.3532 178.67 25.2653 177.341 25.2653Z" fill="white"/>
</g>
<defs>
<clipPath id="clip0_205_5025">
<rect width="180" height="49.8052" fill="white"/>
</clipPath>
</defs>
</svg>
