<svg width="86" height="37" viewBox="0 0 86 37" fill="none" xmlns="http://www.w3.org/2000/svg">
<path d="M8.1174 6.06191C9.25734 3.0352 12.2037 1 15.4481 1H31.7272L30.4305 4.46158L15.4306 4.46158C13.6417 4.46158 12.0107 5.59225 11.3794 7.26215L3.75055 27.6315C3.25949 28.971 3.43487 30.4147 4.25913 31.5802C5.0834 32.7456 6.38118 33.424 7.81926 33.424H19.5812L18.2865 36.8804L7.81926 36.8682C5.25878 36.8682 2.85613 35.6332 1.40051 33.5458C-0.0551076 31.4584 -0.40586 28.797 0.488556 26.4139C1.38297 24.0308 6.97746 9.08862 8.1174 6.06191Z" fill="#3FE4CB"/>
<path d="M77.9288 1.00007C80.4893 1.00007 82.892 2.2351 84.3476 4.32249C85.8208 6.40987 86.154 9.07128 85.2595 11.4544L77.6307 31.8064C76.4908 34.8331 73.5445 36.8683 70.3 36.8683H54.0122L55.3089 33.4067L70.3 33.4241C72.0888 33.4241 73.7198 32.2934 74.3512 30.6235L81.98 10.2541C82.4886 8.91473 82.2957 7.47096 81.489 6.3055C80.6647 5.14005 79.3669 4.46165 77.9288 4.46165L66.1581 4.44425L67.4548 0.982668C79.6895 0.982668 76.681 1.00007 77.9288 1.00007Z" fill="#FDB515"/>
<path fill-rule="evenodd" clip-rule="evenodd" d="M24.0157 12.2174C20.7938 12.2174 18.1123 14.0687 18.1123 17.8331L18.0915 19.721C18.0915 23.6087 20.5027 25.5218 23.7039 25.5218C26.9258 25.5218 29.6073 23.6704 29.6073 19.9061L29.6281 18.0182C29.6281 14.1304 27.2168 12.2174 24.0157 12.2174ZM23.9117 14.9944C22.3112 14.9944 21.3966 16.2286 21.3966 17.8125V19.9267C21.3966 21.5312 22.2072 22.7448 23.8078 22.7448C25.4084 22.7448 26.323 21.5106 26.323 19.9267V17.8125C26.323 16.208 25.5123 14.9944 23.9117 14.9944Z" fill="white"/>
<path d="M37.2866 25.5218C40.5116 25.5218 42.4756 23.9492 42.4756 21.4663C42.4756 19.749 41.8347 18.1557 39.2299 17.7005L36.2737 17.1833C35.364 17.0177 35.0539 16.666 35.0539 16.0453C35.0539 15.4038 35.5088 15.0314 36.5011 15.0107C38.0722 14.9693 39.7054 15.1348 41.3799 15.4452L41.9588 12.8795C40.1189 12.3829 38.7544 12.2174 36.8732 12.2174C33.4828 12.2174 31.8496 13.8106 31.8496 16.2935C31.8496 18.1144 33.028 19.6041 35.4467 20.0386L38.0515 20.4938C38.9818 20.68 39.2713 21.0525 39.2713 21.6732C39.2713 22.294 38.7751 22.7285 37.3693 22.7285C35.9222 22.7285 33.7929 22.3767 32.4698 21.9008L31.7256 24.3838C33.6275 25.3562 35.6328 25.5218 37.2866 25.5218Z" fill="white"/>
<path d="M64.2723 25.5218C60.8155 25.5218 58.2073 23.2664 58.2073 20.1214V17.6178C58.2073 14.4727 60.8155 12.2174 64.2723 12.2174C66.363 12.2174 67.7499 12.4657 69.2195 13.3347L68.4536 15.797C67.1703 15.259 66.0318 15.0314 64.6035 15.0314C63.0304 15.0314 61.7263 15.9211 61.5193 17.3488V20.3904C61.7263 21.8181 63.0304 22.7078 64.6035 22.7078C66.0318 22.7078 67.1703 22.4802 68.4536 21.9422L69.2195 24.4044C67.7499 25.2735 66.363 25.5218 64.2723 25.5218Z" fill="white"/>
<path fill-rule="evenodd" clip-rule="evenodd" d="M50.1637 25.5217C45.0977 25.5217 45.0976 25.4441 45.0976 25.4441L45.0976 12.2935C45.0976 12.2935 45.0976 12.2174 50.1637 12.2174C54.1347 12.2174 56.1098 14.5969 56.1098 17.9281L56.1098 19.811C56.1098 23.1423 54.1347 25.5217 50.1637 25.5217ZM48.4984 22.668L48.4984 15.0226C48.4984 15.0226 48.9109 14.971 49.9154 14.971C51.6618 14.971 52.6377 16.0056 52.6377 17.7229L52.6377 20.1008C52.6377 21.8181 51.6618 22.7286 49.9154 22.7286C48.9109 22.7286 48.4984 22.668 48.4984 22.668Z" fill="white"/>
</svg>
