<svg width="139" height="13" viewBox="0 0 139 13" fill="none" xmlns="http://www.w3.org/2000/svg">
<path d="M9.896 11.9999H7.8L2.024 2.7679H1.96C1.98134 3.19457 2.00267 3.68524 2.024 4.2399C2.056 4.7839 2.07734 5.3439 2.088 5.9199V11.9999H0.520004V0.575902H2.6L8.36 9.7599H8.408C8.39734 9.5359 8.38134 9.25324 8.36 8.9119C8.34934 8.57057 8.33867 8.2079 8.328 7.8239C8.31734 7.42924 8.30667 7.06124 8.296 6.7199V0.575902H9.896V11.9999Z" fill="white"/>
<path d="M23.5019 6.2719C23.5019 7.4559 23.3045 8.49057 22.9099 9.3759C22.5152 10.2506 21.9232 10.9332 21.1339 11.4239C20.3445 11.9146 19.3632 12.1599 18.1899 12.1599C16.9845 12.1599 15.9872 11.9146 15.1979 11.4239C14.4085 10.9332 13.8219 10.2452 13.4379 9.3599C13.0539 8.47457 12.8619 7.4399 12.8619 6.2559C12.8619 5.08257 13.0539 4.05857 13.4379 3.1839C13.8219 2.29857 14.4085 1.6159 15.1979 1.1359C15.9872 0.645236 16.9899 0.399902 18.2059 0.399902C19.3792 0.399902 20.3552 0.645236 21.1339 1.1359C21.9232 1.6159 22.5152 2.29857 22.9099 3.1839C23.3045 4.05857 23.5019 5.0879 23.5019 6.2719ZM14.6859 6.2719C14.6859 7.63724 14.9685 8.71457 15.5339 9.5039C16.0992 10.2932 16.9845 10.6879 18.1899 10.6879C19.4059 10.6879 20.2912 10.2932 20.8459 9.5039C21.4005 8.71457 21.6779 7.63724 21.6779 6.2719C21.6779 4.90657 21.4005 3.83457 20.8459 3.0559C20.2912 2.27724 19.4112 1.8879 18.2059 1.8879C16.9899 1.8879 16.0992 2.27724 15.5339 3.0559C14.9685 3.83457 14.6859 4.90657 14.6859 6.2719Z" fill="white"/>
<path d="M34.6281 0.575902L30.5961 11.9999H28.8041L24.7881 0.575902H26.5641L29.0121 7.7439C29.1508 8.1279 29.2841 8.54924 29.4121 9.0079C29.5401 9.46657 29.6361 9.88257 29.7001 10.2559C29.7641 9.88257 29.8601 9.46657 29.9881 9.0079C30.1161 8.54924 30.2495 8.12257 30.3881 7.7279L32.8361 0.575902H34.6281Z" fill="white"/>
<path d="M43.0639 11.9999H36.6319V0.575902H43.0639V2.0479H38.3599V5.3119H42.7759V6.7679H38.3599V10.5119H43.0639V11.9999Z" fill="white"/>
<path d="M50.9941 11.9999L47.5381 2.2879H47.4741C47.4955 2.5119 47.5115 2.80524 47.5221 3.1679C47.5435 3.5199 47.5595 3.90924 47.5701 4.3359C47.5808 4.7519 47.5861 5.15724 47.5861 5.5519V11.9999H46.0181V0.575902H48.4821L51.7621 9.7439H51.8261L55.2021 0.575902H57.6661V11.9999H55.9861V5.4559C55.9861 5.08257 55.9915 4.69857 56.0021 4.3039C56.0235 3.90924 56.0395 3.5359 56.0501 3.1839C56.0715 2.8319 56.0875 2.53857 56.0981 2.3039H56.0341L52.4821 11.9999H50.9941Z" fill="white"/>
<path d="M61.1856 0.575902H64.5296C65.9803 0.575902 67.079 0.789235 67.8256 1.2159C68.583 1.64257 68.9616 2.37857 68.9616 3.4239C68.9616 4.08524 68.7803 4.6399 68.4176 5.0879C68.0656 5.5359 67.559 5.81857 66.8976 5.9359V6.0159C67.3456 6.10124 67.751 6.24524 68.1136 6.4479C68.487 6.6399 68.7803 6.92257 68.9936 7.2959C69.207 7.65857 69.3136 8.13857 69.3136 8.7359C69.3136 9.78124 68.951 10.5866 68.2256 11.1519C67.5003 11.7172 66.519 11.9999 65.2816 11.9999H61.1856V0.575902ZM62.9136 5.3439H64.8176C65.7136 5.3439 66.327 5.1999 66.6576 4.9119C66.999 4.6239 67.1696 4.19724 67.1696 3.6319C67.1696 3.06657 66.9616 2.66124 66.5456 2.4159C66.1403 2.1599 65.5003 2.0319 64.6256 2.0319H62.9136V5.3439ZM62.9136 6.7519V10.5599H65.0096C65.927 10.5599 66.567 10.3786 66.9296 10.0159C67.303 9.65324 67.4896 9.17324 67.4896 8.5759C67.4896 8.0319 67.2976 7.59457 66.9136 7.2639C66.5403 6.92257 65.8683 6.7519 64.8976 6.7519H62.9136Z" fill="white"/>
<path d="M78.5976 11.9999H72.1656V0.575902H78.5976V2.0479H73.8936V5.3119H78.3096V6.7679H73.8936V10.5119H78.5976V11.9999Z" fill="white"/>
<path d="M84.7519 0.575902C86.2132 0.575902 87.2906 0.847902 87.9839 1.3919C88.6879 1.9359 89.0399 2.76257 89.0399 3.8719C89.0399 4.45857 88.9332 4.95457 88.7199 5.3599C88.5066 5.75457 88.2239 6.0799 87.8719 6.3359C87.5305 6.5919 87.1732 6.78924 86.7999 6.9279L89.9999 11.9999H88.0159L85.2639 7.3759H83.2799V11.9999H81.5519V0.575902H84.7519ZM84.6399 2.0479H83.2799V5.9359H84.7199C85.6052 5.9359 86.2505 5.77057 86.6559 5.4399C87.0612 5.09857 87.2639 4.59724 87.2639 3.9359C87.2639 3.25324 87.0506 2.7679 86.6239 2.4799C86.1972 2.1919 85.5359 2.0479 84.6399 2.0479Z" fill="white"/>
<path d="M101.225 11.9999H99.5451V4.4159C99.5451 4.01057 99.5505 3.6479 99.5611 3.3279C99.5718 2.99724 99.5878 2.67724 99.6091 2.3679C99.4705 2.51724 99.3265 2.6559 99.1771 2.7839C99.0278 2.9119 98.8571 3.0559 98.6651 3.2159L97.4171 4.2239L96.5531 3.1359L99.8171 0.575902H101.225V11.9999Z" fill="white"/>
<path d="M106.973 11.9999L111.533 2.0799H105.533V0.575902H113.357V1.7919L108.813 11.9999H106.973Z" fill="white"/>
<path d="M115.138 8.4319V6.9919H119.106V8.4319H115.138Z" fill="white"/>
<path d="M126.134 11.9999H124.454V4.4159C124.454 4.01057 124.459 3.6479 124.47 3.3279C124.481 2.99724 124.497 2.67724 124.518 2.3679C124.379 2.51724 124.235 2.6559 124.086 2.7839C123.937 2.9119 123.766 3.0559 123.574 3.2159L122.326 4.2239L121.462 3.1359L124.726 0.575902H126.134V11.9999Z" fill="white"/>
<path d="M134.378 0.415902C135.05 0.415902 135.647 0.522569 136.17 0.735902C136.693 0.938568 137.103 1.2479 137.402 1.6639C137.711 2.06924 137.866 2.57057 137.866 3.1679C137.866 3.85057 137.658 4.41057 137.242 4.8479C136.826 5.28524 136.325 5.65324 135.738 5.9519C136.186 6.1759 136.597 6.4319 136.97 6.7199C137.354 6.99724 137.658 7.3279 137.882 7.7119C138.117 8.08524 138.234 8.5279 138.234 9.0399C138.234 9.6799 138.074 10.2346 137.754 10.7039C137.434 11.1626 136.986 11.5199 136.41 11.7759C135.845 12.0319 135.178 12.1599 134.41 12.1599C133.173 12.1599 132.218 11.8932 131.546 11.3599C130.874 10.8159 130.538 10.0586 130.538 9.0879C130.538 8.5759 130.645 8.1279 130.858 7.7439C131.071 7.34924 131.354 7.01324 131.706 6.7359C132.058 6.45857 132.442 6.2239 132.858 6.0319C132.303 5.7119 131.839 5.3279 131.466 4.8799C131.093 4.42124 130.906 3.84524 130.906 3.1519C130.906 2.56524 131.061 2.06924 131.37 1.6639C131.679 1.2479 132.095 0.938568 132.618 0.735902C133.141 0.522569 133.727 0.415902 134.378 0.415902ZM134.362 1.7439C133.829 1.7439 133.391 1.87724 133.05 2.1439C132.709 2.3999 132.538 2.7679 132.538 3.2479C132.538 3.78124 132.719 4.19724 133.082 4.4959C133.455 4.7839 133.903 5.04524 134.426 5.2799C134.917 5.06657 135.338 4.80524 135.69 4.4959C136.042 4.18657 136.218 3.77057 136.218 3.2479C136.218 2.7679 136.047 2.3999 135.706 2.1439C135.365 1.87724 134.917 1.7439 134.362 1.7439ZM132.17 9.0559C132.17 9.5679 132.351 9.99457 132.714 10.3359C133.077 10.6772 133.631 10.8479 134.378 10.8479C135.103 10.8479 135.653 10.6826 136.026 10.3519C136.41 10.0106 136.602 9.57324 136.602 9.0399C136.602 8.51724 136.394 8.08524 135.978 7.7439C135.562 7.40257 135.045 7.09857 134.426 6.8319L134.186 6.7359C133.535 7.01324 133.034 7.33857 132.682 7.7119C132.341 8.07457 132.17 8.52257 132.17 9.0559Z" fill="white"/>
</svg>
