<?xml version="1.0" encoding="UTF-8" standalone="no"?>
<svg
   xmlns:dc="http://purl.org/dc/elements/1.1/"
   xmlns:cc="http://creativecommons.org/ns#"
   xmlns:rdf="http://www.w3.org/1999/02/22-rdf-syntax-ns#"
   xmlns:svg="http://www.w3.org/2000/svg"
   xmlns="http://www.w3.org/2000/svg"
   xmlns:sodipodi="http://sodipodi.sourceforge.net/DTD/sodipodi-0.dtd"
   xmlns:inkscape="http://www.inkscape.org/namespaces/inkscape"
   version="1.1"
   id="svg2"
   xml:space="preserve"
   width="96"
   height="96"
   viewBox="0 0 96 96"
   sodipodi:docname="6b.eps"><metadata
     id="metadata8"><rdf:RDF><cc:Work
         rdf:about=""><dc:format>image/svg+xml</dc:format><dc:type
           rdf:resource="http://purl.org/dc/dcmitype/StillImage" /></cc:Work></rdf:RDF></metadata><defs
     id="defs6" /><sodipodi:namedview
     pagecolor="#ffffff"
     bordercolor="#666666"
     borderopacity="1"
     objecttolerance="10"
     gridtolerance="10"
     guidetolerance="10"
     inkscape:pageopacity="0"
     inkscape:pageshadow="2"
     inkscape:window-width="640"
     inkscape:window-height="480"
     id="namedview4" /><g
     id="g10"
     inkscape:groupmode="layer"
     inkscape:label="ink_ext_XXXXXX"
     transform="matrix(1.3333333,0,0,-1.3333333,0,96)"><g
       id="g12"
       transform="scale(0.1)"><path
         d="m 279.512,218.555 c -13.907,-9.321 -24.34,-6.742 -34.578,0.656 -31.778,22.969 -56.985,50.965 -68.965,89.254 -1.332,4.25 -3.555,8.219 -5.891,13.515 -18.629,-45.636 7.996,-105.835 58.371,-126.285 21.641,-8.785 45.567,-11.929 71.946,-18.507 -3.758,34.128 -5.981,64.671 -10.844,94.785 -3.11,19.215 -12.953,36.406 -29.645,47.629 -17.996,12.097 -36.926,22.808 -58.883,36.218 4.707,-60.328 37.165,-100.215 78.489,-137.265 z M 217.566,443.07 c -1.703,-8.875 -2.011,-18.586 -5.496,-26.972 -7.351,-17.684 -0.488,-30.895 11.782,-42.004 9.046,-8.192 19.617,-14.801 29.918,-21.485 11.464,-7.437 23.753,-13.629 35.05,-21.304 22.696,-15.422 36.34,-37.039 39.743,-64.309 2.195,-17.605 2.917,-35.402 4.093,-53.129 1.258,-18.953 2.278,-37.922 3.449,-57.699 -7.878,-6.73 -17.144,-6.313 -26.648,-3.75 -28.348,7.641 -56.766,15.039 -84.965,23.187 -37.363,10.797 -65.418,33.188 -82.914,68.36 -13.719,27.578 -12.937,55.457 -2.164,83.527 2.93,7.637 6.527,15.09 10.555,22.211 15.445,27.328 29.386,55.246 39.957,84.949 5.094,14.309 7.777,14.153 27.64,8.418"
         style="fill:#231f20;fill-opacity:1;fill-rule:nonzero;stroke:none"
         id="path14" /><path
         d="m 544.336,347.859 c -6.957,-50.804 -31.152,-91.984 -64.098,-130.863 4.34,0 6.485,-0.555 8.188,0.078 41.269,15.375 60.722,48.512 66.117,89.102 4.086,30.734 -4.445,61.023 -16.91,89.875 -73.012,-43.774 -107.434,-107.856 -89.727,-174.68 5.481,6.238 10.778,11.543 15.239,17.477 21.972,29.215 38.859,61.156 50.543,95.82 6.152,18.242 8.378,19.297 30.648,13.191 z M 378.316,173.168 c 7.024,4.387 10.598,7.605 14.786,9.055 15.218,5.261 20.601,17.136 21.765,31.629 1.039,12.929 2.238,25.992 1.559,38.898 -2.582,49.199 19.097,87.234 54.347,118.668 20.387,18.18 41.965,35.047 63.442,51.953 4.508,3.551 10.754,5.692 16.504,6.649 6.582,1.097 11.457,-2.012 13.566,-9.387 3.934,-13.731 8.82,-27.18 13.02,-40.836 3.008,-9.789 6.031,-19.617 8.207,-29.609 13.176,-60.512 -15.239,-116.415 -72.215,-140.321 -19.469,-8.168 -40.106,-13.508 -60.02,-20.656 -12.175,-4.371 -23.964,-9.813 -35.992,-14.613 -11.281,-4.508 -22.582,-9.735 -38.969,-1.43"
         style="fill:#231f20;fill-opacity:1;fill-rule:nonzero;stroke:none"
         id="path16" /><path
         d="m 265.309,499.719 c 16.949,-14.305 33.265,-28.762 50.304,-42.309 34.086,-27.105 67.094,-29.625 104.664,-7.976 14.598,8.414 28.453,18.113 43.532,27.793 -37.957,29.91 -79.25,35.382 -123.434,25.718 -8.855,-1.937 -17.012,-4.722 -24.305,3.289 16.414,16.293 29.141,17.543 123.852,12.512 -18.664,32.27 -74.074,47.067 -110.598,22.824 -21.015,-13.945 -42.215,-27.609 -64.015,-41.851 z m -49.696,0.094 c 2.242,1.921 3.953,4.406 6.25,5.199 27.633,9.562 50.387,27.394 74.016,43.648 45.851,31.539 129.922,28.184 172.176,-18.637 6.718,-7.441 13.644,-16.164 16.23,-25.472 2.824,-10.184 8.258,-16.34 15.778,-22.633 12.488,-10.449 24.179,-21.883 27.21,-39.871 -23.832,-15.16 -32.503,6.543 -45.398,18.363 -8.391,-5.613 -16.32,-10.859 -24.187,-16.195 -62.711,-42.524 -142.583,-30.746 -189.618,14.082 -15.539,14.812 -33.73,26.844 -52.457,41.516"
         style="fill:#231f20;fill-opacity:1;fill-rule:nonzero;stroke:none"
         id="path18" /></g></g></svg>
