<?xml version="1.0" encoding="UTF-8" standalone="no"?>
<svg
   xmlns:dc="http://purl.org/dc/elements/1.1/"
   xmlns:cc="http://creativecommons.org/ns#"
   xmlns:rdf="http://www.w3.org/1999/02/22-rdf-syntax-ns#"
   xmlns:svg="http://www.w3.org/2000/svg"
   xmlns="http://www.w3.org/2000/svg"
   xmlns:sodipodi="http://sodipodi.sourceforge.net/DTD/sodipodi-0.dtd"
   xmlns:inkscape="http://www.inkscape.org/namespaces/inkscape"
   version="1.1"
   id="svg2"
   xml:space="preserve"
   width="96"
   height="96"
   viewBox="0 0 96 96"
   sodipodi:docname="7b.eps"><metadata
     id="metadata8"><rdf:RDF><cc:Work
         rdf:about=""><dc:format>image/svg+xml</dc:format><dc:type
           rdf:resource="http://purl.org/dc/dcmitype/StillImage" /></cc:Work></rdf:RDF></metadata><defs
     id="defs6" /><sodipodi:namedview
     pagecolor="#ffffff"
     bordercolor="#666666"
     borderopacity="1"
     objecttolerance="10"
     gridtolerance="10"
     guidetolerance="10"
     inkscape:pageopacity="0"
     inkscape:pageshadow="2"
     inkscape:window-width="640"
     inkscape:window-height="480"
     id="namedview4" /><g
     id="g10"
     inkscape:groupmode="layer"
     inkscape:label="ink_ext_XXXXXX"
     transform="matrix(1.3333333,0,0,-1.3333333,0,96)"><g
       id="g12"
       transform="scale(0.1)"><path
         d="m 362.672,318.93 c -2.207,1.265 -3.766,2.867 -5.199,2.761 -1.2,-0.086 -2.258,-2.16 -3.379,-3.355 1.351,-1.266 2.679,-3.484 4.066,-3.523 1.278,-0.036 2.617,2.273 4.512,4.117 z m -15.617,-22.5 c -1.766,0.488 -3.93,1.574 -6.086,1.558 -2.68,-0.015 -5.25,-1.367 -3.965,-4.722 0.59,-1.543 2.293,-3.164 3.851,-3.715 2.473,-0.871 6.477,3.035 6.2,6.879 z m -78.414,-85.578 c -0.004,-0.239 -0.004,-0.477 -0.004,-0.715 19.289,0 38.582,-0.11 57.871,0.051 8.226,0.07 16.816,-4.063 24.609,1.859 -0.699,8.394 -6.902,14.117 -10.371,21.168 -1.75,3.558 -4.359,6.68 -6.316,10.148 -10.446,18.528 -20.856,37.075 -31.16,55.68 -2.239,4.043 -0.629,7.766 3.765,9.406 4.891,1.828 9.84,3.492 14.766,5.231 0.23,6.609 -5.414,10.062 -8.192,15.05 -2.906,5.223 -6.418,10.106 -9.601,15.172 -8.18,13.032 -14.414,26.973 -18.871,41.664 -2.504,8.243 -1.145,10.418 7.679,15.172 5.063,2.727 5.809,5.129 1.907,8.782 -12.7,11.886 -23.84,24.98 -32.797,39.941 -2.25,3.754 -5.512,3.844 -7.934,0.684 -9.699,-12.657 -19.355,-25.344 -29.019,-38.028 -2.797,-3.672 -2.059,-6.262 2.086,-7.031 3.257,-0.609 6.64,-0.676 9.82,-1.543 4.875,-1.332 7.293,-5.906 6.035,-10.953 -0.637,-2.57 -1.598,-5.063 -2.504,-7.559 -7.957,-21.945 -17.422,-43.152 -30.765,-62.453 -1.504,-2.172 -3.036,-4.383 -4.106,-6.777 -0.351,-0.781 0.449,-2.942 1.18,-3.203 4.344,-1.559 8.816,-2.774 13.265,-4.047 7.235,-2.071 8.996,-5.02 6.356,-11.461 -8.074,-19.699 -16.512,-39.211 -28.402,-57.035 -4.418,-6.625 -8.344,-13.586 -12.375,-20.465 -1.333,-2.274 0.558,-5.379 3.312,-5.727 1.977,-0.25 3.969,-0.465 5.957,-0.531 24.602,-0.844 49.203,-1.656 73.809,-2.48 z m 230.129,17.753 c 0.007,0.293 0.015,0.586 0.023,0.879 9.309,0 18.617,-0.121 27.918,0.176 1.004,0.035 2.363,2.399 2.742,3.891 0.258,1.008 -0.75,2.5 -1.484,3.57 -17.739,25.906 -30.242,54.633 -44.707,82.313 -3.41,6.519 -1.032,11.242 6.179,13.312 4.461,1.281 9.051,2.121 13.563,3.234 4.23,1.043 5.152,3.274 2.512,7.157 -18.008,26.472 -31.121,55.703 -46.95,83.406 -8.921,15.613 -7.703,17.262 10.5,22.266 0.641,0.175 1.668,0.16 1.86,0.55 0.734,1.528 2.086,3.563 1.59,4.715 -1.004,2.348 -2.911,4.379 -4.707,6.301 -14.2,15.199 -25.575,32.293 -34.536,51.035 -1.425,2.981 -2.957,5.996 -4.996,8.551 -0.625,0.781 -3.8,0.758 -4.605,-0.066 -2.285,-2.352 -3.899,-5.352 -5.875,-8.02 -10.281,-13.887 -20.527,-27.801 -30.934,-41.594 -3.972,-5.269 -8.343,-10.238 -12.535,-15.347 4.656,-5.766 11.871,-4.918 17.969,-6.965 1.25,-0.418 2.469,-0.949 3.68,-1.485 4,-1.785 5.98,-5.898 4.543,-9.726 -0.93,-2.485 -1.887,-5.004 -3.231,-7.278 -16.851,-28.531 -30.73,-59.257 -58.957,-79.402 -4.102,-2.926 -3.586,-8.773 0.785,-11.82 2.625,-1.828 5.774,-3.469 8.875,-3.934 6.563,-0.976 13.301,-0.769 19.863,-1.738 5.18,-0.766 10.27,-2.371 15.29,-3.957 3.75,-1.18 4.914,-4.59 4.39,-7.992 -0.597,-3.867 -1.824,-7.707 -3.289,-11.352 -5.344,-13.285 -15.105,-23.297 -24.867,-33.355 -9,-9.274 -8.906,-9.461 -2.438,-20.192 2.743,-4.554 6.164,-8.722 8.668,-13.394 4.262,-7.953 10.496,-10.879 19.5,-10.692 19.954,0.414 39.934,0.364 59.883,-0.175 17.938,-0.485 35.852,-1.879 53.778,-2.872 z m 10.734,-11.828 c -12.629,0 -25.258,0.012 -37.891,-0.004 -6.269,-0.007 -7.699,-1.304 -8.84,-8.031 -1.003,-5.894 -1.8,-11.824 -2.937,-17.695 -2.32,-11.996 -8.945,-17.27 -20.711,-16.047 -9.543,0.992 -12.52,5.02 -12.77,12.34 -0.179,5.305 -0.578,10.605 -1.148,15.883 -0.477,4.382 3.512,10.07 -1.258,12.851 -3.621,2.106 -8.926,1.614 -13.492,1.735 -6.637,0.171 -13.289,-0.079 -19.93,-0.274 -3.25,-0.097 -4.757,-1.988 -4.039,-5.156 0.879,-3.899 -0.781,-6.691 -3.996,-8.145 -12.113,-5.472 -24.226,-10.601 -38.101,-10.203 -15.278,0.442 -30.586,-0.078 -45.879,-0.351 -9.692,-0.176 -10.141,-0.668 -11.762,-9.489 -0.723,-3.921 -1.422,-7.851 -2.035,-11.793 -1.25,-7.996 -3.77,-10.921 -13.465,-11.433 -1.965,-0.106 -3.969,0.211 -5.934,0.488 -4.769,0.672 -7.402,3.156 -7.976,7.473 -0.176,1.316 -0.11,2.664 -0.293,3.976 -0.899,6.411 2.777,14.61 -2.91,18.817 -4.184,3.094 -11.27,2.484 -17.11,3.086 -23.789,2.441 -47.601,4.683 -71.394,7.086 -3.278,0.332 -6.559,0.933 -9.735,1.797 -4.582,1.242 -6.359,5.292 -4.003,9.085 7.707,12.426 15.527,24.786 23.308,37.168 8.535,13.586 14.75,28.254 20.086,43.317 1.274,3.586 -0.473,6.691 -4.133,7.543 -4.519,1.054 -9.168,1.617 -13.625,2.871 -7.468,2.105 -8.758,5.691 -3.715,11.172 18.442,20.043 28.653,44.551 38.122,69.469 2.21,5.816 0.742,7.941 -5.508,9.964 -5.02,1.625 -10.028,3.313 -14.942,5.235 -2.414,0.941 -3.117,4.73 -1.57,6.898 0.77,1.078 1.543,2.188 2.48,3.113 21.563,21.282 36.489,47.258 51.735,73.008 6.441,10.879 19.543,12.68 27.847,3.59 2.649,-2.898 4.848,-6.391 6.543,-9.945 11.25,-23.633 25.844,-44.832 44.61,-63.168 10.68,-10.442 11.234,-14.113 -5.145,-19.449 -5.765,-1.879 -6.707,-3.836 -4.445,-8.594 2.789,-5.867 6.211,-11.434 9.355,-17.129 8.829,0.504 11.813,8.129 15.567,13.898 9.418,14.469 18.152,29.399 26.734,44.387 5.262,9.188 4.274,11.176 -4.961,14.629 -4.332,1.617 -8.758,3.078 -12.883,5.129 -3.757,1.863 -4.789,6.949 -2.507,10.336 1.101,1.637 2.265,3.293 3.668,4.668 20.609,20.183 36.203,44.156 51.629,68.254 4.3,6.718 8.378,13.59 12.921,20.14 6.422,9.262 17.875,12.403 28.141,7.434 2.629,-1.273 4.848,-4.34 6.219,-7.102 5.918,-11.886 11.203,-24.093 17.176,-35.949 9.296,-18.449 19.925,-36.082 33.734,-51.609 1.324,-1.492 2.574,-3.055 3.766,-4.653 4.703,-6.316 4.214,-9.183 -2.379,-12.363 -3.575,-1.722 -7.403,-2.918 -11.047,-4.515 -5.629,-2.469 -6.754,-5.415 -3.582,-10.997 16.738,-29.472 32.918,-59.296 53.847,-86.152 0.411,-0.523 0.875,-1.004 1.297,-1.516 5.516,-6.625 4.93,-11.14 -4.937,-14.406 -5.004,-1.656 -10.387,-2.144 -15.547,-3.371 -4.762,-1.133 -6.461,-4.469 -4.145,-8.933 15.309,-29.454 29.696,-59.481 51.707,-84.86 3.149,-3.625 2.18,-7.711 -2.503,-9.152 -5.016,-1.547 -10.243,-2.875 -15.45,-3.262 -13.258,-0.976 -26.558,-1.379 -39.843,-2.012 -0.004,0.309 -0.008,0.614 -0.016,0.918"
         style="fill:#231f20;fill-opacity:1;fill-rule:nonzero;stroke:none"
         id="path14" /></g></g></svg>
