<svg width="63" height="65" viewBox="0 0 63 65" fill="none" xmlns="http://www.w3.org/2000/svg">
<g id="icon-mktg--pause-shadow">
<path id="Path" d="M34.4451 64.9902C19.2055 64.9687 6.85825 52.617 6.8421 37.3774C6.86364 22.1416 19.2093 9.79595 34.4451 9.77441C49.6885 9.78518 62.0461 22.134 62.0677 37.3774C62.0569 52.6285 49.6962 64.9892 34.4451 65V64.9902Z" fill="#CCC6D2"/>
<path id="Shape" fill-rule="evenodd" clip-rule="evenodd" d="M60.6015 30.3008C60.6015 13.5865 47.015 0 30.3008 0C13.5865 0 0 13.5865 0 30.3008C0 47.015 13.5865 60.6015 30.3008 60.6015C47.015 60.6015 60.6015 47.015 60.6015 30.3008ZM57.9038 30.3008C57.8822 45.5365 45.5365 57.8822 30.3008 57.9038C15.065 57.8822 2.71928 45.5365 2.69774 30.3008C2.71928 15.065 15.065 2.71928 30.3008 2.69774C45.5365 2.71928 57.8822 15.065 57.9038 30.3008ZM26.7331 43.7504H19.1286L19.0308 17.682H26.6256L26.7331 43.7504ZM34.2398 43.7504H41.8444V17.6917H34.2398V43.7504Z" fill="#444444"/>
</g>
</svg>
