<svg width="113" height="13" viewBox="0 0 113 13" fill="none" xmlns="http://www.w3.org/2000/svg">
<path d="M9.376 12H7.28L1.504 2.76799H1.44C1.46133 3.19466 1.48267 3.68533 1.504 4.23999C1.536 4.78399 1.55733 5.34399 1.568 5.91999V12H0V0.575994H2.08L7.84 9.75999H7.888C7.87733 9.53599 7.86133 9.25333 7.84 8.91199C7.82933 8.57066 7.81867 8.20799 7.808 7.82399C7.79733 7.42933 7.78667 7.06133 7.776 6.71999V0.575994H9.376V12Z" fill="white"/>
<path d="M22.9819 6.27199C22.9819 7.45599 22.7845 8.49066 22.3899 9.37599C21.9952 10.2507 21.4032 10.9333 20.6139 11.424C19.8245 11.9147 18.8432 12.16 17.6699 12.16C16.4645 12.16 15.4672 11.9147 14.6779 11.424C13.8885 10.9333 13.3019 10.2453 12.9179 9.35999C12.5339 8.47466 12.3419 7.43999 12.3419 6.25599C12.3419 5.08266 12.5339 4.05866 12.9179 3.18399C13.3019 2.29866 13.8885 1.61599 14.6779 1.13599C15.4672 0.645327 16.4699 0.399994 17.6859 0.399994C18.8592 0.399994 19.8352 0.645327 20.6139 1.13599C21.4032 1.61599 21.9952 2.29866 22.3899 3.18399C22.7845 4.05866 22.9819 5.08799 22.9819 6.27199ZM14.1659 6.27199C14.1659 7.63733 14.4485 8.71466 15.0139 9.50399C15.5792 10.2933 16.4645 10.688 17.6699 10.688C18.8859 10.688 19.7712 10.2933 20.3259 9.50399C20.8805 8.71466 21.1579 7.63733 21.1579 6.27199C21.1579 4.90666 20.8805 3.83466 20.3259 3.05599C19.7712 2.27733 18.8912 1.88799 17.6859 1.88799C16.4699 1.88799 15.5792 2.27733 15.0139 3.05599C14.4485 3.83466 14.1659 4.90666 14.1659 6.27199Z" fill="white"/>
<path d="M34.1081 0.575994L30.0761 12H28.2841L24.2681 0.575994H26.0441L28.4921 7.74399C28.6308 8.12799 28.7641 8.54933 28.8921 9.00799C29.0201 9.46666 29.1161 9.88266 29.1801 10.256C29.2441 9.88266 29.3401 9.46666 29.4681 9.00799C29.5961 8.54933 29.7295 8.12266 29.8681 7.72799L32.3161 0.575994H34.1081Z" fill="white"/>
<path d="M42.5439 12H36.1119V0.575994H42.5439V2.04799H37.8399V5.31199H42.2559V6.76799H37.8399V10.512H42.5439V12Z" fill="white"/>
<path d="M50.4741 12L47.0181 2.28799H46.9541C46.9755 2.51199 46.9915 2.80533 47.0021 3.16799C47.0235 3.51999 47.0395 3.90933 47.0501 4.33599C47.0608 4.75199 47.0661 5.15733 47.0661 5.55199V12H45.4981V0.575994H47.9621L51.2421 9.74399H51.3061L54.6821 0.575994H57.1461V12H55.4661V5.45599C55.4661 5.08266 55.4715 4.69866 55.4821 4.30399C55.5035 3.90933 55.5195 3.53599 55.5301 3.18399C55.5515 2.83199 55.5675 2.53866 55.5781 2.30399H55.5141L51.9621 12H50.4741Z" fill="white"/>
<path d="M60.6656 0.575994H64.0096C65.4603 0.575994 66.559 0.789327 67.3056 1.21599C68.063 1.64266 68.4416 2.37866 68.4416 3.42399C68.4416 4.08533 68.2603 4.63999 67.8976 5.08799C67.5456 5.53599 67.039 5.81866 66.3776 5.93599V6.01599C66.8256 6.10133 67.231 6.24533 67.5936 6.44799C67.967 6.63999 68.2603 6.92266 68.4736 7.29599C68.687 7.65866 68.7936 8.13866 68.7936 8.73599C68.7936 9.78133 68.431 10.5867 67.7056 11.152C66.9803 11.7173 65.999 12 64.7616 12H60.6656V0.575994ZM62.3936 5.34399H64.2976C65.1936 5.34399 65.807 5.19999 66.1376 4.91199C66.479 4.62399 66.6496 4.19733 66.6496 3.63199C66.6496 3.06666 66.4416 2.66133 66.0256 2.41599C65.6203 2.15999 64.9803 2.03199 64.1056 2.03199H62.3936V5.34399ZM62.3936 6.75199V10.56H64.4896C65.407 10.56 66.047 10.3787 66.4096 10.016C66.783 9.65333 66.9696 9.17333 66.9696 8.57599C66.9696 8.03199 66.7776 7.59466 66.3936 7.26399C66.0203 6.92266 65.3483 6.75199 64.3776 6.75199H62.3936Z" fill="white"/>
<path d="M78.0776 12H71.6456V0.575994H78.0776V2.04799H73.3736V5.31199H77.7896V6.76799H73.3736V10.512H78.0776V12Z" fill="white"/>
<path d="M84.2319 0.575994C85.6932 0.575994 86.7705 0.847994 87.4639 1.39199C88.1679 1.93599 88.5199 2.76266 88.5199 3.87199C88.5199 4.45866 88.4132 4.95466 88.1999 5.35999C87.9865 5.75466 87.7039 6.07999 87.3519 6.33599C87.0105 6.59199 86.6532 6.78933 86.2799 6.92799L89.4799 12H87.4959L84.7439 7.37599H82.7599V12H81.0319V0.575994H84.2319ZM84.1199 2.04799H82.7599V5.93599H84.1999C85.0852 5.93599 85.7305 5.77066 86.1359 5.43999C86.5412 5.09866 86.7439 4.59733 86.7439 3.93599C86.7439 3.25333 86.5305 2.76799 86.1039 2.47999C85.6772 2.19199 85.0159 2.04799 84.1199 2.04799Z" fill="white"/>
<path d="M100.705 12H99.0251V4.41599C99.0251 4.01066 99.0305 3.64799 99.0411 3.32799C99.0518 2.99733 99.0678 2.67733 99.0891 2.36799C98.9505 2.51733 98.8065 2.65599 98.6571 2.78399C98.5078 2.91199 98.3371 3.05599 98.1451 3.21599L96.8971 4.22399L96.0331 3.13599L99.2971 0.575994H100.705V12Z" fill="white"/>
<path d="M105.173 7.13599C105.173 6.47466 105.216 5.82399 105.301 5.18399C105.397 4.54399 105.557 3.94133 105.781 3.37599C106.016 2.79999 106.336 2.29333 106.741 1.85599C107.147 1.40799 107.659 1.06133 108.277 0.815993C108.907 0.559993 109.664 0.431993 110.549 0.431993C110.773 0.431993 111.024 0.44266 111.301 0.463994C111.589 0.474661 111.824 0.50666 112.005 0.559994V1.98399C111.803 1.91999 111.579 1.87199 111.333 1.83999C111.099 1.80799 110.864 1.79199 110.629 1.79199C109.893 1.79199 109.285 1.90399 108.805 2.12799C108.325 2.35199 107.947 2.66133 107.669 3.05599C107.392 3.45066 107.189 3.90933 107.061 4.43199C106.933 4.95466 106.853 5.51466 106.821 6.11199H106.917C107.152 5.73866 107.483 5.42399 107.909 5.16799C108.336 4.90133 108.885 4.76799 109.557 4.76799C110.549 4.76799 111.344 5.07733 111.941 5.69599C112.549 6.30399 112.853 7.16799 112.853 8.28799C112.853 9.48266 112.517 10.4267 111.845 11.12C111.184 11.8133 110.283 12.16 109.141 12.16C108.405 12.16 107.733 11.9787 107.125 11.616C106.528 11.2533 106.053 10.704 105.701 9.96799C105.349 9.22133 105.173 8.27733 105.173 7.13599ZM109.125 10.752C109.733 10.752 110.229 10.5547 110.613 10.16C110.997 9.75466 111.189 9.13066 111.189 8.28799C111.189 7.61599 111.019 7.08266 110.677 6.68799C110.347 6.29333 109.845 6.09599 109.173 6.09599C108.715 6.09599 108.315 6.19199 107.973 6.38399C107.632 6.57599 107.365 6.82133 107.173 7.11999C106.981 7.41866 106.885 7.72266 106.885 8.03199C106.885 8.45866 106.971 8.88533 107.141 9.31199C107.312 9.72799 107.563 10.0747 107.893 10.352C108.224 10.6187 108.635 10.752 109.125 10.752Z" fill="white"/>
</svg>
