<svg width="122" height="36" viewBox="0 0 122 36" fill="none" xmlns="http://www.w3.org/2000/svg">
<path d="M120.594 3.33463C119.138 1.23957 116.733 0 114.171 0C111.609 0 15.4582 0 15.4582 0C12.2116 0 9.26336 2.04268 8.12268 5.0805C6.982 8.11833 1.38387 23.1154 0.488874 25.5073C-0.406124 27.8991 -0.0551435 30.5703 1.40142 32.6654C2.85799 34.7604 5.2622 36 7.82435 36H106.537C109.784 36 112.732 33.9573 113.873 30.9195L121.507 10.4927C122.402 8.10087 122.068 5.42968 120.594 3.33463ZM118.225 9.28807L110.591 29.7323C109.959 31.4083 108.327 32.5432 106.537 32.5432H7.82435C6.38533 32.5432 5.08671 31.8623 4.2619 30.6925C3.4371 29.5228 3.26161 28.0737 3.75299 26.7294L11.3868 6.28516C12.0186 4.60912 13.6506 3.4743 15.4406 3.4743H114.171C115.61 3.4743 116.909 4.15519 117.734 5.32493C118.541 6.49467 118.734 7.94374 118.225 9.28807ZM35.5517 12.3084C32.8316 12.3084 30.5678 13.8797 30.5678 17.0747V18.9777C30.5678 21.6314 32.779 23.5344 35.7097 23.5344C37.4821 23.5344 38.6579 23.3249 39.9039 22.5917L39.2546 20.5141C38.1665 20.968 37.2013 21.16 35.9905 21.16C34.6567 21.16 33.5512 20.4093 33.3757 19.2047H40.29V17.2318C40.29 13.9321 38.2543 12.3084 35.5517 12.3084ZM33.3406 17.0572C33.3406 15.7129 34.1127 14.6654 35.464 14.6654C36.8153 14.6654 37.4997 15.6954 37.4997 17.0572H33.3406ZM27.9179 17.0572V23.3424H25.0048V16.743C25.0048 15.6256 24.1098 14.8225 22.9867 14.8225C21.8635 14.8225 20.9685 15.6431 20.9685 16.743V23.3424H18.0554V17.0572C18.0554 13.8448 20.2666 12.3084 22.9691 12.3084C25.7068 12.3084 27.9179 13.8623 27.9179 17.0572ZM52.5918 12.5179L48.9416 17.9651L52.5742 23.3598H49.1346L47.2218 20.5141L45.2914 23.3598H41.8518L45.502 17.9651L41.8167 12.5179H45.2563L47.2218 15.4161L49.1522 12.5179H52.5918ZM72.5274 20.13C72.5274 22.225 70.8603 23.5519 68.1226 23.5519C66.7187 23.5519 65.0165 23.4122 63.402 22.5917L64.0337 20.4966C65.1569 20.8982 66.9644 21.195 68.1928 21.195C69.3862 21.195 69.8073 20.8283 69.8073 20.3046C69.8073 19.7808 69.5617 19.4665 68.7719 19.3094L66.5608 18.9253C64.5076 18.5587 63.5073 17.3016 63.5073 15.7653C63.5073 13.6702 64.8936 12.3259 67.7717 12.3259C69.3686 12.3259 70.5268 12.4656 72.0887 12.8846L71.5973 15.0495C70.1759 14.7876 68.7895 14.6479 67.4558 14.6828C66.6134 14.7003 66.2273 15.0145 66.2273 15.5558C66.2273 16.0795 66.4906 16.3763 67.2627 16.516L69.7722 16.9525C71.9834 17.3366 72.5274 18.6809 72.5274 20.13ZM60.6468 20.9854L61.0329 23.2202C60.3309 23.4297 59.5587 23.5344 58.7339 23.5344C56.3999 23.5344 54.9258 22.0155 54.9258 19.7284V10.3007H57.8389V12.5005H60.6819V15.0145H57.8389V20.0776C57.8389 20.7759 58.3303 21.195 59.0498 21.195C59.5938 21.1775 60.0501 21.1426 60.6468 20.9854ZM87.6722 12.3084C84.9521 12.3084 82.6883 13.8797 82.6883 17.0747V18.9777C82.6883 21.6314 84.8995 23.5344 87.8301 23.5344C89.6026 23.5344 90.7784 23.3249 92.0243 22.5917L91.375 20.5141C90.287 20.968 89.3218 21.16 88.1109 21.16C86.7772 21.16 85.6716 20.4093 85.4961 19.2047H92.4455V17.2318C92.428 13.9321 90.3923 12.3084 87.6722 12.3084ZM85.461 17.0572C85.461 15.7129 86.2332 14.6654 87.5845 14.6654C88.9357 14.6654 89.6201 15.6954 89.6201 17.0572H85.461ZM99.588 12.5179H94.762V25.5073H97.6751V23.3424C98.2893 23.4821 98.9562 23.5519 99.6932 23.5519C102.747 23.5519 104.607 21.7187 104.607 18.9253V17.3366C104.607 14.5257 102.94 12.5179 99.588 12.5179ZM101.694 18.9428C101.694 20.3918 100.623 21.1077 99.2896 21.1077C98.6579 21.1077 98.1314 21.0553 97.6576 20.9156V15.0145H99.5704C101.045 15.0145 101.676 15.7827 101.676 17.2318V18.9428H101.694ZM80.5298 20.9854L80.9158 23.2202C80.2139 23.4297 79.4417 23.5344 78.6169 23.5344C76.2829 23.5344 74.8088 22.0155 74.8088 19.7284V10.3007H77.7219V12.5005H80.5649V15.0145H77.7219V20.0776C77.7219 20.7759 78.2133 21.195 78.9328 21.195C79.4768 21.1775 79.9507 21.1426 80.5298 20.9854Z" fill="white"/>
</svg>
