<svg width="24" height="16" viewBox="0 0 24 16" fill="none" xmlns="http://www.w3.org/2000/svg">
<path d="M2.75 9.5L2 8H7.25L6.65 6.5H1.75L1 5H8.8L8.2 3.5H0.86L0 2H3.75C3.75 1.46957 3.96071 0.960859 4.33579 0.585786C4.71086 0.210714 5.21957 0 5.75 0H17.75V4H20.75L23.75 8V13H21.75C21.75 13.7956 21.4339 14.5587 20.8713 15.1213C20.3087 15.6839 19.5456 16 18.75 16C17.9544 16 17.1913 15.6839 16.6287 15.1213C16.0661 14.5587 15.75 13.7956 15.75 13H11.75C11.75 13.7956 11.4339 14.5587 10.8713 15.1213C10.3087 15.6839 9.54565 16 8.75 16C7.95435 16 7.19129 15.6839 6.62868 15.1213C6.06607 14.5587 5.75 13.7956 5.75 13H3.75V9.5H2.75ZM18.75 14.5C19.1478 14.5 19.5294 14.342 19.8107 14.0607C20.092 13.7794 20.25 13.3978 20.25 13C20.25 12.6022 20.092 12.2206 19.8107 11.9393C19.5294 11.658 19.1478 11.5 18.75 11.5C18.3522 11.5 17.9706 11.658 17.6893 11.9393C17.408 12.2206 17.25 12.6022 17.25 13C17.25 13.3978 17.408 13.7794 17.6893 14.0607C17.9706 14.342 18.3522 14.5 18.75 14.5ZM20.25 5.5H17.75V8H22.21L20.25 5.5ZM8.75 14.5C9.14782 14.5 9.52936 14.342 9.81066 14.0607C10.092 13.7794 10.25 13.3978 10.25 13C10.25 12.6022 10.092 12.2206 9.81066 11.9393C9.52936 11.658 9.14782 11.5 8.75 11.5C8.35218 11.5 7.97064 11.658 7.68934 11.9393C7.40804 12.2206 7.25 12.6022 7.25 13C7.25 13.3978 7.40804 13.7794 7.68934 14.0607C7.97064 14.342 8.35218 14.5 8.75 14.5Z" fill="black"/>
</svg>
