<svg width="17" height="22" viewBox="0 0 17 22" fill="none" xmlns="http://www.w3.org/2000/svg">
<path d="M16.8474 17.5327L15.898 5.56876C15.8391 4.79791 15.1869 4.19434 14.414 4.19434H12.5385V6.97312C12.5385 7.31725 12.26 7.5958 11.9159 7.5958C11.5722 7.5958 11.2932 7.31725 11.2932 6.97312V4.19434H5.56465V6.97312C5.56465 7.31725 5.28568 7.5958 4.94198 7.5958C4.59785 7.5958 4.31929 7.31725 4.31929 6.97312V4.19434H2.44382C1.6709 4.19434 1.01874 4.79791 0.959813 5.5671L0.0100338 17.5344C-0.0634254 18.4929 0.269072 19.4468 0.922024 20.1517C1.57502 20.8565 2.50071 21.2612 3.4617 21.2612H13.3962C14.3572 21.2612 15.2829 20.8565 15.9359 20.1516C16.5888 19.4468 16.9213 18.4928 16.8474 17.5327ZM11.2343 11.4401L8.01381 14.6606C7.89218 14.7822 7.73276 14.8432 7.57338 14.8432C7.41397 14.8432 7.25459 14.7822 7.13296 14.6606L5.62362 13.1512C5.38036 12.908 5.38036 12.514 5.62362 12.2707C5.86688 12.0275 6.26125 12.0275 6.50409 12.2707L7.57343 13.3397L10.3538 10.5593C10.5967 10.3164 10.991 10.3164 11.2343 10.5593C11.4775 10.8025 11.4775 11.1968 11.2343 11.4401Z" fill="black"/>
<path d="M8.42894 0C6.16283 0 4.31934 1.84391 4.31934 4.11002V4.19428H5.5647V4.11002C5.5647 2.5305 6.84946 1.24532 8.42898 1.24532C10.0085 1.24532 11.2933 2.5305 11.2933 4.11002V4.19428H12.5386V4.11002C12.5385 1.84391 10.695 0 8.42894 0Z" fill="black"/>
</svg>
