<svg width="17" height="15" viewBox="0 0 17 15" fill="none" xmlns="http://www.w3.org/2000/svg">
<path d="M3.62755 1.08625C3.74139 1.02875 3.86591 1 3.99398 1C4.08648 1 4.17898 1.01597 4.26436 1.05111C4.4209 1.10222 5.22493 1.44082 5.88665 2.77606C5.95069 2.90064 6.00761 3.00925 6.06097 3.11785C6.32068 3.62256 6.50568 3.98991 6.46299 4.3924C6.40251 4.97377 5.90088 5.29001 5.41704 5.5232C5.06483 5.6925 4.8158 5.90332 4.70195 6.13012C4.59522 6.33776 4.59167 6.57414 4.68772 6.84566C4.97589 7.35356 6.08232 9.09128 6.46654 9.60877C6.7725 10.0208 6.90769 10.0879 7.41288 10.2125L7.41292 10.2125C7.43425 10.2157 7.45558 10.2189 7.47691 10.2189C7.65124 10.2189 7.90383 10.0719 8.10662 9.95695C8.22046 9.89307 8.33075 9.82918 8.44459 9.77807C8.45882 9.77168 8.4695 9.76529 8.48373 9.7589C8.65094 9.68224 8.90353 9.56724 9.23795 9.56724C9.5439 9.56724 9.8463 9.66307 10.138 9.85473C10.3942 10.0208 10.6539 10.27 10.9421 10.6118C11.9951 11.8736 12.0769 12.6402 11.9595 13.0619C11.9133 13.2248 11.803 13.3653 11.6465 13.458C10.8247 13.9467 9.94948 14.1927 9.04583 14.1927C7.94652 14.1927 7.03933 13.8349 6.37405 13.525C6.35626 13.5187 6.34203 13.5123 6.3278 13.5027C5.28897 12.9309 4.26081 11.8225 3.08323 10.0081C2.94448 9.79085 2.80929 9.5896 2.68121 9.39475C1.53921 7.66341 0.852585 6.61886 1.02691 4.26143V4.25824C1.07316 3.68325 1.3471 3.07313 1.82382 2.49815C2.28987 1.93594 2.91246 1.44721 3.62755 1.08625Z" stroke="#00AFEB"/>
<path d="M9 9.66946L16 4.95779" stroke="#00AFEB" stroke-miterlimit="10" stroke-linejoin="round"/>
<path d="M6 4.95779H16V12.4965H11.5862" stroke="#00AFEB" stroke-miterlimit="10" stroke-linejoin="round"/>
</svg>
