<svg width="17" height="12" viewBox="0 0 17 12" fill="none" xmlns="http://www.w3.org/2000/svg">
<g clip-path="url(#clip0)">
<path d="M10.7012 5.45741L5.95587 3.59563L7.80242 8.36791L8.46777 6.93328L9.64311 8.11751L10.4491 7.31035L9.2738 6.12317L10.7012 5.45741Z" fill="#00AFEB"/>
<path d="M17 9.68471H0V11.1841H17V9.68471Z" fill="#00AFEB"/>
<path d="M10.962 10.3593H6.04083V10.5096H10.962V10.3593Z" fill="white"/>
<path d="M13.7935 10.5095C13.876 10.5095 13.9429 10.4423 13.9429 10.3593C13.9429 10.2763 13.876 10.2091 13.7935 10.2091C13.7109 10.2091 13.644 10.2763 13.644 10.3593C13.644 10.4423 13.7109 10.5095 13.7935 10.5095Z" fill="white"/>
<path d="M14.6874 10.5095C14.77 10.5095 14.8369 10.4423 14.8369 10.3593C14.8369 10.2763 14.77 10.2091 14.6874 10.2091C14.6049 10.2091 14.538 10.2763 14.538 10.3593C14.538 10.4423 14.6049 10.5095 14.6874 10.5095Z" fill="white"/>
<path d="M15.5843 10.5095C15.6669 10.5095 15.7338 10.4423 15.7338 10.3593C15.7338 10.2763 15.6669 10.2091 15.5843 10.2091C15.5017 10.2091 15.4348 10.2763 15.4348 10.3593C15.4348 10.4423 15.5017 10.5095 15.5843 10.5095Z" fill="white"/>
<path d="M14.6904 1.36562H2.31262V9.9086H14.6904V1.36562Z" stroke="#00AFEB" stroke-miterlimit="10"/>
</g>
<defs>
<clipPath id="clip0">
<rect width="17" height="11.2953" fill="white"/>
</clipPath>
</defs>
</svg>
