<svg width="17" height="14" viewBox="0 0 17 14" fill="none" xmlns="http://www.w3.org/2000/svg">
<path d="M4.34558 0V13.1312" stroke="#00AFEB" stroke-miterlimit="10"/>
<path d="M8.71985 0V13.1312" stroke="#00AFEB" stroke-miterlimit="10"/>
<path d="M13.0983 0V13.1312" stroke="#00AFEB" stroke-miterlimit="10"/>
<path d="M1 2.82698C1 2.82698 2.42185 1.37586 5.15264 3.27444C7.88343 5.17302 10.84 3.99791 11.873 3.41245C12.9059 2.82698 14.884 1.54314 16.4438 2.99426" stroke="#00AFEB" stroke-miterlimit="10"/>
<path d="M1 6.08888C1 6.08888 2.42185 4.63776 5.15264 6.53635C7.88343 8.43493 10.84 7.25982 11.873 6.67435C12.9059 6.08888 14.884 4.80504 16.4438 6.25616" stroke="#00AFEB" stroke-miterlimit="10"/>
<path d="M1 9.35076C1 9.35076 2.42185 7.89963 5.15264 9.79823C7.88343 11.6968 10.84 10.5217 11.873 9.93623C12.9059 9.35076 14.884 8.0669 16.4438 9.51804" stroke="#00AFEB" stroke-miterlimit="10"/>
</svg>
