<svg width="18" height="15" viewBox="0 0 18 15" fill="none" xmlns="http://www.w3.org/2000/svg">
<path d="M12.0114 4.08899L13.7055 2.39492C14.3909 1.70952 15.6177 1.47346 16.2615 2.19806C16.9842 3.01138 16.5766 4.04114 15.8073 4.81047L14.2862 6.33154C13.954 6.66376 13.4908 6.83023 13.0231 6.78546C12.5554 6.74069 12.0921 6.90716 11.7599 7.23939L6.67562 12.3236C6.55796 12.4413 6.48301 12.5949 6.46267 12.76C6.44233 12.9252 6.36738 13.0788 6.24973 13.1964L6.181 13.2652C5.8608 13.5854 5.34166 13.5854 5.02147 13.2652C4.70127 12.945 4.70127 12.4258 5.02147 12.1056L5.08053 12.0466C5.20373 11.9234 5.36778 11.8496 5.54169 11.8391C5.7156 11.8286 5.87965 11.7548 6.00284 11.6316L11.0936 6.54083C11.4166 6.21778 11.584 5.77069 11.5525 5.31491C11.521 4.85913 11.6884 4.41204 12.0114 4.08899Z" fill="#00AFEB"/>
<rect x="2.79468" y="4.81728" width="2.86046" height="3.48112" rx="1.43023" transform="rotate(-45 2.79468 4.81728)" fill="#00AFEB"/>
<path d="M5.29834 5.99664L6.0158 5.27918L13.5818 12.8452C13.7799 13.0433 13.7799 13.3645 13.5818 13.5626C13.3837 13.7607 13.0624 13.7607 12.8643 13.5626L5.29834 5.99664Z" fill="#00AFEB"/>
<path d="M1.46845 9.42549L4.01585 6.8781L2.84233 5.70458C1.56386 7.04029 1.17269 8.23289 0.96279 8.91983C0.752892 9.60677 1.13452 9.75942 1.46845 9.42549Z" fill="#00AFEB"/>
<path d="M9.42546 1.46845L6.87807 4.01585L5.70455 2.84233C7.04026 1.56386 8.23286 1.17269 8.9198 0.96279C9.60673 0.752892 9.75939 1.13452 9.42546 1.46845Z" fill="#00AFEB"/>
</svg>
