<svg width="16" height="15" viewBox="0 0 16 15" fill="none" xmlns="http://www.w3.org/2000/svg">
<path d="M8 0.896881C3.58833 0.896881 0 4.48521 0 8.89688C0 11.0351 0.831541 13.0423 2.34306 14.5538L2.77727 14.988L4.4895 13.2758L3.6211 12.4074L2.79775 13.2307C1.91295 12.1698 1.38044 10.8836 1.25755 9.50723H2.58884V8.27835H1.25755C1.38454 6.87333 1.94573 5.5912 2.80184 4.56304L3.62519 5.38638L4.4936 4.51798L3.66615 3.69463C4.69432 2.83851 5.97645 2.27732 7.38556 2.15034V3.42428H8.61444V2.15443C10.0195 2.28142 11.3057 2.83851 12.3338 3.69872L11.5105 4.52207L12.3789 5.39048L13.2023 4.56713C14.0584 5.59529 14.6196 6.87742 14.7465 8.28654H13.5791V9.51542H14.7465C14.6237 10.8877 14.0911 12.178 13.2064 13.2348L12.3789 12.4074L11.5105 13.2758L13.2227 14.988L13.6569 14.5538C15.1685 13.0423 16 11.0351 16 8.89688C16 4.48521 12.4117 0.896881 8 0.896881Z" fill="#00AFEB"/>
<path d="M8.61452 8.37256V4.95218H7.38564V8.37256C6.54181 8.63472 5.92737 9.4212 5.92737 10.3511C5.92737 11.4939 6.85722 12.4238 8.00008 12.4238C9.14294 12.4238 10.0728 11.4939 10.0728 10.3511C10.0728 9.4212 9.45835 8.63472 8.61452 8.37256ZM8.00008 11.1949C7.5372 11.1949 7.15625 10.818 7.15625 10.3511C7.15625 9.88408 7.5331 9.50722 8.00008 9.50722C8.46705 9.50722 8.84391 9.88408 8.84391 10.3511C8.84391 10.818 8.46296 11.1949 8.00008 11.1949Z" fill="#00AFEB"/>
</svg>
