<svg width="18" height="25" viewBox="0 0 18 25" fill="none" xmlns="http://www.w3.org/2000/svg">
<path d="M1 10V23.9928H17V14.5305L10.6344 17.5125V14.4158L3.98208 17.7993V10H1Z" stroke="#00AFEB" stroke-miterlimit="10" stroke-linejoin="round"/>
<path d="M3.02535 4.36772L3.0486 4.22861L2.99572 4.09785C2.65096 3.24528 3.00221 2.26626 3.70446 1.90631L3.70447 1.90632L3.7069 1.90505C3.92567 1.7914 4.152 1.74398 4.36288 1.76849L4.73836 1.81212L4.88271 1.46276C5.23741 0.60428 6.07635 0.299753 6.7333 0.636486L6.74036 0.640104L6.74753 0.643496C6.92214 0.72611 7.07911 0.847655 7.19749 1.00449L7.39589 1.26731L7.7157 1.18885C7.87268 1.15034 7.9904 1.12744 8.07725 1.12744C8.8201 1.12744 9.5 1.80352 9.5 2.75013C9.5 3.14349 9.37562 3.52636 9.15747 3.80969L9.01854 3.99013L9.06348 4.21338C9.09141 4.35213 9.10515 4.48966 9.10515 4.62644C9.10515 5.57305 8.42525 6.24913 7.6824 6.24913C7.57199 6.24913 7.43241 6.22358 7.25802 6.18508L6.85812 6.09678L6.69278 6.47145C6.43881 7.04696 5.93792 7.36733 5.41631 7.36733C5.18034 7.36733 4.93847 7.29736 4.75606 7.1715L4.58399 7.05277L4.37861 7.09186L2.5106 7.44742L3.02535 4.36772Z" stroke="#00AFEB"/>
<rect x="4" y="19.5" width="3" height="2" fill="#00AFEB"/>
<rect x="8.5" y="19.5" width="3" height="2" fill="#00AFEB"/>
<rect x="13" y="19.5" width="3" height="2" fill="#00AFEB"/>
</svg>
