<svg width="16" height="19" viewBox="0 0 16 19" fill="none" xmlns="http://www.w3.org/2000/svg">
<line x1="15.6072" y1="10.9726" x2="13.55" y2="10.922" stroke="#00AFEB"/>
<line x1="2.23504" y1="10.6441" x2="0.177806" y2="10.5935" stroke="#00AFEB"/>
<path d="M7.39026 16L7.2153 18.0101" stroke="#00AFEB"/>
<line x1="0.889738" y1="13.5374" x2="2.69662" y2="12.5525" stroke="#00AFEB"/>
<line x1="12.6344" y1="7.13586" x2="14.4412" y2="6.15101" stroke="#00AFEB"/>
<line x1="11.1591" y1="17.2983" x2="10.1743" y2="15.4914" stroke="#00AFEB"/>
<line x1="4.75763" y1="5.55359" x2="3.77278" y2="3.74671" stroke="#00AFEB"/>
<line x1="3.45656" y1="16.6089" x2="4.52894" y2="14.8526" stroke="#00AFEB"/>
<line x1="10.4273" y1="5.19271" x2="11.4996" y2="3.43637" stroke="#00AFEB"/>
<line x1="14.2307" y1="14.7314" x2="12.4743" y2="13.659" stroke="#00AFEB"/>
<line x1="2.81439" y1="7.76091" x2="1.05805" y2="6.68853" stroke="#00AFEB"/>
<circle cx="7.85693" cy="10.3288" r="5.95417" transform="rotate(91.4072 7.85693 10.3288)" stroke="#00AFEB"/>
<rect x="10.3889" y="8.04883" width="4.72333" height="4.72333" rx="2.36166" transform="rotate(91.4072 10.3889 8.04883)" stroke="#00AFEB"/>
<rect x="8.89014" y="-4.76837e-07" width="4" height="2" transform="rotate(90 8.89014 -4.76837e-07)" fill="#00AFEB"/>
</svg>
