<svg width="40" height="40" viewBox="0 0 40 40" fill="none" xmlns="http://www.w3.org/2000/svg">
<path d="M38 1H2C1.44772 1 1 1.44772 1 2V38C1 38.5523 1.44772 39 2 39H38C38.5523 39 39 38.5523 39 38V2C39 1.44772 38.5523 1 38 1Z" fill="#2779FF"/>
<path d="M34 5H6C5.44772 5 5 5.44772 5 6V34C5 34.5523 5.44772 35 6 35H34C34.5523 35 35 34.5523 35 34V6C35 5.44772 34.5523 5 34 5Z" fill="#263232"/>
<path d="M20 27.79C23.324 27.9284 26.5898 26.887 29.22 24.85C29.3361 24.7508 29.4115 24.6123 29.4318 24.461C29.4521 24.3097 29.4159 24.1563 29.33 24.03L21.41 12.47C21.3537 12.3897 21.2789 12.3241 21.1919 12.2788C21.1048 12.2335 21.0081 12.2099 20.91 12.21H19.09C18.9919 12.2099 18.8952 12.2335 18.8082 12.2788C18.7212 12.3241 18.6463 12.3897 18.59 12.47L10.67 24C10.5842 24.1263 10.548 24.2797 10.5683 24.431C10.5885 24.5823 10.664 24.7208 10.78 24.82C13.4062 26.8677 16.6724 27.9199 20 27.79Z" fill="#F2F2F2"/>
</svg>
