<svg width="60" height="40" viewBox="0 0 60 40" fill="none" xmlns="http://www.w3.org/2000/svg">
<path d="M58 36.78V18C58 16.4087 57.3679 14.8826 56.2426 13.7574C55.1174 12.6321 53.5913 12 52 12H31C29.4087 12 27.8826 12.6321 26.7574 13.7574C25.6321 14.8826 25 16.4087 25 18V28.67C25 30.2613 25.6321 31.7874 26.7574 32.9126C27.8826 34.0379 29.4087 34.67 31 34.67H48.61C49.4629 34.6678 50.3059 34.8521 51.08 35.21L56.59 37.69C56.7421 37.7584 56.9089 37.7876 57.0753 37.7751C57.2416 37.7625 57.4021 37.7086 57.5423 37.6181C57.6824 37.5277 57.7977 37.4036 57.8776 37.2572C57.9576 37.1108 57.9997 36.9468 58 36.78Z" fill="#2779FF"/>
<path d="M41.5 22.76C42.9967 22.76 44.21 21.5467 44.21 20.05C44.21 18.5533 42.9967 17.34 41.5 17.34C40.0033 17.34 38.79 18.5533 38.79 20.05C38.79 21.5467 40.0033 22.76 41.5 22.76Z" fill="#F2F2F2"/>
<path fill-rule="evenodd" clip-rule="evenodd" d="M35.74 29.34C35.74 27.8123 36.3468 26.3473 37.4271 25.2671C38.5073 24.1868 39.9723 23.58 41.5 23.58C43.0276 23.58 44.4927 24.1868 45.5729 25.2671C46.6531 26.3473 47.26 27.8123 47.26 29.34" fill="#F2F2F2"/>
<path d="M2 26.78V8C2 6.4087 2.63214 4.88258 3.75736 3.75736C4.88258 2.63214 6.4087 2 8 2H29C30.5913 2 32.1174 2.63214 33.2426 3.75736C34.3679 4.88258 35 6.4087 35 8V18.67C35 20.2613 34.3679 21.7874 33.2426 22.9126C32.1174 24.0379 30.5913 24.67 29 24.67H11.39C10.5371 24.6678 9.69413 24.8521 8.92 25.21L3.41 27.69C3.25787 27.7584 3.09105 27.7876 2.92473 27.7751C2.75841 27.7625 2.59788 27.7086 2.45774 27.6181C2.31759 27.5277 2.2023 27.4036 2.12236 27.2572C2.04241 27.1108 2.00035 26.9468 2 26.78Z" fill="#F2F2F2"/>
<path d="M18.5 18.84C20.8445 18.9372 23.1475 18.2003 25 16.76C25.0825 16.6899 25.1356 16.5912 25.1486 16.4837C25.1616 16.3762 25.1335 16.2677 25.07 16.18L19.5 8C19.4597 7.94168 19.4059 7.89394 19.3433 7.86086C19.2806 7.82778 19.2108 7.81033 19.14 7.81H17.86C17.7891 7.81033 17.7194 7.82778 17.6567 7.86086C17.594 7.89394 17.5402 7.94168 17.5 8L11.92 16.15C11.8565 16.2377 11.8284 16.3462 11.8414 16.4537C11.8543 16.5612 11.9074 16.6599 11.99 16.73C13.8451 18.1725 16.1521 18.9096 18.5 18.81" fill="#263232"/>
</svg>
