<svg width="40" height="40" viewBox="0 0 40 40" fill="none" xmlns="http://www.w3.org/2000/svg">
<g clip-path="url(#clip0)">
<path d="M40 32.5V7.5C40 6.94772 39.5523 6.5 39 6.5L1 6.5C0.447716 6.5 0 6.94772 0 7.5V32.5C0 33.0523 0.447716 33.5 1 33.5H39C39.5523 33.5 40 33.0523 40 32.5Z" fill="#2779FF"/>
<path fill-rule="evenodd" clip-rule="evenodd" d="M39 9.49999H15.62C15.4336 9.50129 15.2506 9.45048 15.0916 9.3533C14.9326 9.25612 14.8039 9.11643 14.72 8.94999L13.28 6.04999C13.1961 5.88356 13.0674 5.74387 12.9084 5.64669C12.7494 5.54951 12.5664 5.4987 12.38 5.49999H1C0.734784 5.49999 0.48043 5.60535 0.292893 5.79289C0.105357 5.98042 0 6.23478 0 6.49999L0 35.5C0 35.7652 0.105357 36.0196 0.292893 36.2071C0.48043 36.3946 0.734784 36.5 1 36.5H39C39.2652 36.5 39.5196 36.3946 39.7071 36.2071C39.8946 36.0196 40 35.7652 40 35.5V10.5C40 10.2348 39.8946 9.98042 39.7071 9.79289C39.5196 9.60535 39.2652 9.49999 39 9.49999Z" fill="#F2F2F2"/>
<path d="M30.5 32.5C33.5376 32.5 36 30.0376 36 27C36 23.9624 33.5376 21.5 30.5 21.5C27.4624 21.5 25 23.9624 25 27C25 30.0376 27.4624 32.5 30.5 32.5Z" fill="#263232"/>
<path d="M27.8 27.33L29.48 29.01L33.2001 25.3" stroke="#F2F2F2" stroke-linecap="round" stroke-linejoin="round"/>
</g>
<defs>
<clipPath id="clip0">
<rect width="40" height="40" fill="white"/>
</clipPath>
</defs>
</svg>
