<svg width="42" height="40" viewBox="0 0 42 40" fill="none" xmlns="http://www.w3.org/2000/svg">
<path d="M35.8801 11.41C35.3848 9.08866 34.22 6.96341 32.5296 5.29713C30.8392 3.63086 28.6974 2.49667 26.3692 2.03486C24.041 1.57305 21.6285 1.80387 19.4301 2.69878C17.2317 3.59369 15.3438 5.11343 14.0001 7.07C12.981 6.71772 11.89 6.62571 10.8263 6.80234C9.76266 6.97897 8.75999 7.41863 7.90946 8.08137C7.05894 8.7441 6.38753 9.60889 5.95626 10.5971C5.525 11.5854 5.34755 12.6657 5.44005 13.74C3.76452 14.2975 2.34231 15.4335 1.42835 16.9444C0.514393 18.4553 0.168435 20.2424 0.45249 21.9852C0.736544 23.7281 1.63204 25.3128 2.97847 26.4553C4.32489 27.5978 6.03421 28.2234 7.80005 28.22H33C35.0444 28.2271 37.0251 27.51 38.591 26.1957C40.1569 24.8815 41.2067 23.0552 41.5543 21.0406C41.9018 19.026 41.5246 16.9535 40.4896 15.1906C39.4546 13.4276 37.8286 12.0883 35.9001 11.41H35.8801Z" fill="#2779FF"/>
<path d="M15.37 20.09V17C15.366 16.2586 15.5088 15.5237 15.7901 14.8378C16.0713 14.1518 16.4856 13.5283 17.0089 13.0031C17.5322 12.4779 18.1543 12.0615 18.8392 11.7778C19.5242 11.494 20.2586 11.3487 21 11.35V11.35C21.74 11.35 22.4728 11.4964 23.1561 11.7808C23.8393 12.0652 24.4596 12.4821 24.981 13.0072C25.5025 13.5324 25.9149 14.1556 26.1945 14.8408C26.474 15.5261 26.6152 16.2599 26.61 17V20.12" stroke="#263232" stroke-miterlimit="10"/>
<path d="M31.3501 19.16H10.6301C10.0778 19.16 9.63013 19.6077 9.63013 20.16V37.2C9.63013 37.7523 10.0778 38.2 10.6301 38.2H31.3501C31.9024 38.2 32.3501 37.7523 32.3501 37.2V20.16C32.3501 19.6077 31.9024 19.16 31.3501 19.16Z" fill="#F2F2F2"/>
<path d="M21.49 29.64H20.49V32.48H21.49V29.64Z" fill="#263232"/>
<path d="M20.99 30.18C22.0946 30.18 22.99 29.2846 22.99 28.18C22.99 27.0754 22.0946 26.18 20.99 26.18C19.8854 26.18 18.99 27.0754 18.99 28.18C18.99 29.2846 19.8854 30.18 20.99 30.18Z" fill="#263232"/>
</svg>
