<svg width="50" height="40" viewBox="0 0 50 40" fill="none" xmlns="http://www.w3.org/2000/svg">
<path d="M9.22998 16.63V29.3C18.41 29.3 22.63 33.3 24.23 35.46C24.3235 35.5804 24.4432 35.6779 24.5802 35.745C24.7171 35.812 24.8675 35.8469 25.02 35.8469C25.1724 35.8469 25.3229 35.812 25.4598 35.745C25.5967 35.6779 25.7165 35.5804 25.81 35.46C27.33 33.41 31.3 29.59 39.81 29.32C40.0752 29.32 40.3295 29.2146 40.5171 29.0271C40.7046 28.8396 40.81 28.5852 40.81 28.32V16.18" fill="#2779FF"/>
<path d="M25.5399 3.93L48.9199 12.93C49.1064 13.0037 49.2665 13.1318 49.3793 13.2977C49.4921 13.4635 49.5524 13.6594 49.5524 13.86C49.5524 14.0606 49.4921 14.2565 49.3793 14.4223C49.2665 14.5882 49.1064 14.7163 48.9199 14.79L25.5399 23.79C25.1936 23.9301 24.8063 23.9301 24.4599 23.79L1.07992 14.79C0.890191 14.718 0.726842 14.59 0.611573 14.423C0.496305 14.256 0.43457 14.0579 0.43457 13.855C0.43457 13.6521 0.496305 13.454 0.611573 13.287C0.726842 13.1199 0.890191 12.992 1.07992 12.92L24.4599 3.92C24.8093 3.79284 25.1929 3.7964 25.5399 3.93Z" fill="#F2F2F2"/>
<path d="M25 13.09L9.22998 17.95V35.7" stroke="#263232" stroke-linecap="round" stroke-linejoin="round"/>
</svg>
