<svg width="40" height="40" viewBox="0 0 40 40" fill="none" xmlns="http://www.w3.org/2000/svg">
<path d="M36.8599 27.18L20.5199 37.09C20.3679 37.1778 20.1955 37.224 20.0199 37.224C19.8444 37.224 19.672 37.1778 19.5199 37.09L3.13994 27.18C2.99299 27.0909 2.8715 26.9654 2.78718 26.8156C2.70287 26.6658 2.65857 26.4969 2.65857 26.325C2.65857 26.1531 2.70287 25.9842 2.78718 25.8344C2.8715 25.6846 2.99299 25.5591 3.13994 25.47L19.4799 15.56C19.632 15.4722 19.8044 15.426 19.9799 15.426C20.1555 15.426 20.3279 15.4722 20.4799 15.56L36.8199 25.47C36.969 25.5556 37.0935 25.6783 37.1814 25.8261C37.2693 25.9739 37.3175 26.1418 37.3216 26.3137C37.3256 26.4856 37.2852 26.6557 37.2044 26.8074C37.1235 26.9591 37.0049 27.0875 36.8599 27.18Z" fill="#F2F2F2"/>
<path d="M36.86 20.86L20.52 30.76C20.368 30.8478 20.1955 30.894 20.02 30.894C19.8444 30.894 19.672 30.8478 19.52 30.76L3.13997 20.86C2.99075 20.7714 2.86714 20.6456 2.78128 20.4948C2.69542 20.344 2.65027 20.1735 2.65027 20C2.65027 19.8265 2.69542 19.6559 2.78128 19.5052C2.86714 19.3544 2.99075 19.2285 3.13997 19.14L19.48 9.23999C19.632 9.15222 19.8044 9.10602 19.98 9.10602C20.1555 9.10602 20.328 9.15222 20.48 9.23999L36.82 19.14C36.9713 19.225 37.0979 19.348 37.1873 19.4968C37.2768 19.6455 37.3259 19.8151 37.3299 19.9886C37.334 20.1621 37.2928 20.3337 37.2104 20.4865C37.128 20.6393 37.0072 20.768 36.86 20.86Z" fill="#2779FF"/>
<path d="M36.8599 14.53L20.5199 24.44C20.3679 24.5278 20.1955 24.574 20.0199 24.574C19.8444 24.574 19.672 24.5278 19.5199 24.44L3.13994 14.53C2.99299 14.4409 2.8715 14.3154 2.78718 14.1656C2.70287 14.0158 2.65857 13.8469 2.65857 13.675C2.65857 13.5031 2.70287 13.3342 2.78718 13.1844C2.8715 13.0346 2.99299 12.9091 3.13994 12.82L19.4799 2.91001C19.632 2.82224 19.8044 2.77603 19.9799 2.77603C20.1555 2.77603 20.3279 2.82224 20.4799 2.91001L36.8199 12.82C36.969 12.9057 37.0935 13.0283 37.1814 13.1761C37.2693 13.3239 37.3175 13.4918 37.3216 13.6637C37.3256 13.8356 37.2852 14.0057 37.2044 14.1574C37.1235 14.3092 37.0049 14.4375 36.8599 14.53Z" fill="#F2F2F2"/>
</svg>
