<svg width="108" height="32" viewBox="0 0 108 32" fill="none" xmlns="http://www.w3.org/2000/svg">
<path d="M106.755 2.96411C105.466 1.10184 103.338 0 101.07 0C98.8014 0 13.6843 0 13.6843 0C10.8103 0 8.20035 1.81571 7.19057 4.516C6.18078 7.21629 1.22507 20.547 0.432774 22.6731C-0.35952 24.7992 -0.0488156 27.1736 1.2406 29.0359C2.53002 30.8982 4.65834 32 6.92647 32H94.3117C97.1858 32 99.7957 30.1843 100.805 27.484L107.563 9.32687C108.356 7.20078 108.06 4.82638 106.755 2.96411ZM104.658 8.25606L97.9004 26.4287C97.3411 27.9185 95.8963 28.9273 94.3117 28.9273H6.92647C5.65259 28.9273 4.50299 28.322 3.77283 27.2823C3.04268 26.2425 2.88733 24.9544 3.32231 23.7595L10.0801 5.58681C10.6394 4.09699 12.0841 3.08826 13.6687 3.08826H101.07C102.343 3.08826 103.493 3.6935 104.223 4.73327C104.938 5.77304 105.109 7.06111 104.658 8.25606ZM31.472 10.9408C29.0641 10.9408 27.06 12.3375 27.06 15.1775V16.8691C27.06 19.2279 29.0175 20.9195 31.6118 20.9195C33.1809 20.9195 34.2217 20.7333 35.3247 20.0815L34.7499 18.2347C33.7868 18.6382 32.9323 18.8089 31.8604 18.8089C30.6797 18.8089 29.701 18.1416 29.5457 17.0708H35.6665V15.3172C35.6665 12.3841 33.8644 10.9408 31.472 10.9408ZM29.5146 15.162C29.5146 13.967 30.1981 13.0359 31.3944 13.0359C32.5906 13.0359 33.1964 13.9515 33.1964 15.162H29.5146ZM24.7142 15.162V20.7488H22.1354V14.8826C22.1354 13.8894 21.3431 13.1756 20.3489 13.1756C19.3546 13.1756 18.5623 13.9049 18.5623 14.8826V20.7488H15.9835V15.162C15.9835 12.3065 17.9409 10.9408 20.3333 10.9408C22.7568 10.9408 24.7142 12.322 24.7142 15.162ZM46.5567 11.1271L43.3254 15.969L46.5411 20.7643H43.4962L41.8029 18.2347L40.094 20.7643H37.0491L40.2805 15.969L37.0181 11.1271H40.063L41.8029 13.7032L43.5118 11.1271H46.5567ZM64.2046 17.8933C64.2046 19.7556 62.7288 20.935 60.3053 20.935C59.0625 20.935 57.5556 20.8109 56.1263 20.0815L56.6856 18.2192C57.6798 18.5761 59.28 18.84 60.3674 18.84C61.4238 18.84 61.7967 18.5141 61.7967 18.0485C61.7967 17.5829 61.5792 17.3036 60.8801 17.1639L58.9227 16.8225C57.105 16.4966 56.2195 15.3792 56.2195 14.0136C56.2195 12.1513 57.4468 10.9564 59.9946 10.9564C61.4083 10.9564 62.4336 11.0805 63.8162 11.453L63.3812 13.3773C62.1229 13.1445 60.8956 13.0204 59.7149 13.0514C58.9693 13.0669 58.6275 13.3463 58.6275 13.8274C58.6275 14.2929 58.8605 14.5567 59.5441 14.6809L61.7656 15.0689C63.723 15.4103 64.2046 16.6052 64.2046 17.8933ZM53.6873 18.6537L54.0291 20.6402C53.4077 20.8264 52.7241 20.9195 51.994 20.9195C49.9278 20.9195 48.6228 19.5693 48.6228 17.5364V9.15616H51.2017V11.1115H53.7184V13.3463H51.2017V17.8467C51.2017 18.4675 51.6367 18.84 52.2736 18.84C52.7552 18.8244 53.1591 18.7934 53.6873 18.6537ZM77.6115 10.9408C75.2035 10.9408 73.1995 12.3375 73.1995 15.1775V16.8691C73.1995 19.2279 75.1569 20.9195 77.7513 20.9195C79.3203 20.9195 80.3612 20.7333 81.4642 20.0815L80.8894 18.2347C79.9262 18.6382 79.0718 18.8089 77.9998 18.8089C76.8192 18.8089 75.8404 18.1416 75.6851 17.0708H81.837V15.3172C81.8215 12.3841 80.0194 10.9408 77.6115 10.9408ZM75.654 15.162C75.654 13.967 76.3376 13.0359 77.5338 13.0359C78.73 13.0359 79.3359 13.9515 79.3359 15.162H75.654ZM88.1598 11.1271H83.8877V22.6731H86.4665V20.7488C87.0102 20.8729 87.6006 20.935 88.253 20.935C90.9562 20.935 92.6029 19.3055 92.6029 16.8225V15.4103C92.6029 12.9117 91.127 11.1271 88.1598 11.1271ZM90.024 16.838C90.024 18.1261 89.0764 18.7624 87.8957 18.7624C87.3365 18.7624 86.8704 18.7158 86.451 18.5917V13.3463H88.1443C89.4492 13.3463 90.0085 14.0291 90.0085 15.3172V16.838H90.024ZM71.2886 18.6537L71.6304 20.6402C71.009 20.8264 70.3255 20.9195 69.5953 20.9195C67.5291 20.9195 66.2242 19.5693 66.2242 17.5364V9.15616H68.803V11.1115H71.3197V13.3463H68.803V17.8467C68.803 18.4675 69.238 18.84 69.8749 18.84C70.3565 18.8244 70.776 18.7934 71.2886 18.6537Z" fill="white"/>
</svg>
