<svg width="113" height="11" viewBox="0 0 113 11" fill="none" xmlns="http://www.w3.org/2000/svg">
<path d="M7.853 9.99995H6.15L1.457 2.49895H1.405C1.42233 2.84562 1.43967 3.24428 1.457 3.69495C1.483 4.13695 1.50033 4.59195 1.509 5.05995V9.99995H0.235001V0.717951H1.925L6.605 8.17995H6.644C6.63533 7.99795 6.62233 7.76828 6.605 7.49095C6.59633 7.21362 6.58767 6.91895 6.579 6.60695C6.57033 6.28628 6.56167 5.98728 6.553 5.70995V0.717951H7.853V9.99995Z" fill="white"/>
<path d="M18.9078 5.34595C18.9078 6.30795 18.7474 7.14862 18.4268 7.86795C18.1061 8.57862 17.6251 9.13328 16.9838 9.53195C16.3424 9.93062 15.5451 10.13 14.5918 10.13C13.6124 10.13 12.8021 9.93062 12.1608 9.53195C11.5194 9.13328 11.0428 8.57428 10.7308 7.85495C10.4188 7.13562 10.2628 6.29495 10.2628 5.33295C10.2628 4.37962 10.4188 3.54762 10.7308 2.83695C11.0428 2.11762 11.5194 1.56295 12.1608 1.17295C12.8021 0.774285 13.6168 0.574951 14.6048 0.574951C15.5581 0.574951 16.3511 0.774285 16.9838 1.17295C17.6251 1.56295 18.1061 2.11762 18.4268 2.83695C18.7474 3.54762 18.9078 4.38395 18.9078 5.34595ZM11.7448 5.34595C11.7448 6.45528 11.9744 7.33062 12.4338 7.97195C12.8931 8.61329 13.6124 8.93395 14.5918 8.93395C15.5798 8.93395 16.2991 8.61329 16.7498 7.97195C17.2004 7.33062 17.4258 6.45528 17.4258 5.34595C17.4258 4.23662 17.2004 3.36562 16.7498 2.73295C16.2991 2.10028 15.5841 1.78395 14.6048 1.78395C13.6168 1.78395 12.8931 2.10028 12.4338 2.73295C11.9744 3.36562 11.7448 4.23662 11.7448 5.34595Z" fill="white"/>
<path d="M27.9479 0.717951L24.6719 9.99995H23.2159L19.9529 0.717951H21.3959L23.3849 6.54195C23.4975 6.85395 23.6059 7.19628 23.7099 7.56895C23.8139 7.94162 23.8919 8.27962 23.9439 8.58295C23.9959 8.27962 24.0739 7.94162 24.1779 7.56895C24.2819 7.19628 24.3902 6.84962 24.5029 6.52895L26.4919 0.717951H27.9479Z" fill="white"/>
<path d="M34.8019 9.99995H29.5759V0.717951H34.8019V1.91395H30.9799V4.56595H34.5679V5.74895H30.9799V8.79095H34.8019V9.99995Z" fill="white"/>
<path d="M41.2452 9.99995L38.4372 2.10895H38.3852C38.4026 2.29095 38.4156 2.52928 38.4242 2.82395C38.4416 3.10995 38.4546 3.42628 38.4632 3.77295C38.4719 4.11095 38.4762 4.44028 38.4762 4.76095V9.99995H37.2022V0.717951H39.2042L41.8692 8.16695H41.9212L44.6642 0.717951H46.6662V9.99995H45.3012V4.68295C45.3012 4.37962 45.3056 4.06762 45.3142 3.74695C45.3316 3.42628 45.3446 3.12295 45.3532 2.83695C45.3706 2.55095 45.3836 2.31262 45.3922 2.12195H45.3402L42.4542 9.99995H41.2452Z" fill="white"/>
<path d="M49.5258 0.717951H52.2428C53.4215 0.717951 54.3142 0.891284 54.9208 1.23795C55.5362 1.58462 55.8438 2.18262 55.8438 3.03195C55.8438 3.56928 55.6965 4.01995 55.4018 4.38395C55.1158 4.74795 54.7042 4.97762 54.1668 5.07295V5.13795C54.5308 5.20728 54.8602 5.32429 55.1548 5.48895C55.4582 5.64495 55.6965 5.87462 55.8698 6.17795C56.0432 6.47262 56.1298 6.86262 56.1298 7.34795C56.1298 8.19728 55.8352 8.85162 55.2458 9.31095C54.6565 9.77028 53.8592 9.99995 52.8538 9.99995H49.5258V0.717951ZM50.9298 4.59195H52.4768C53.2048 4.59195 53.7032 4.47495 53.9718 4.24095C54.2492 4.00695 54.3878 3.66028 54.3878 3.20095C54.3878 2.74162 54.2188 2.41228 53.8808 2.21295C53.5515 2.00495 53.0315 1.90095 52.3208 1.90095H50.9298V4.59195ZM50.9298 5.73595V8.82995H52.6328C53.3782 8.82995 53.8982 8.68262 54.1928 8.38795C54.4962 8.09328 54.6478 7.70328 54.6478 7.21795C54.6478 6.77595 54.4918 6.42062 54.1798 6.15195C53.8765 5.87462 53.3305 5.73595 52.5418 5.73595H50.9298Z" fill="white"/>
<path d="M63.6731 9.99995H58.4471V0.717951H63.6731V1.91395H59.8511V4.56595H63.4391V5.74895H59.8511V8.79095H63.6731V9.99995Z" fill="white"/>
<path d="M68.6734 0.717951C69.8607 0.717951 70.7361 0.938951 71.2994 1.38095C71.8714 1.82295 72.1574 2.49462 72.1574 3.39595C72.1574 3.87262 72.0707 4.27562 71.8974 4.60495C71.7241 4.92562 71.4944 5.18995 71.2084 5.39795C70.9311 5.60595 70.6407 5.76628 70.3374 5.87895L72.9374 9.99995H71.3254L69.0894 6.24295H67.4774V9.99995H66.0734V0.717951H68.6734ZM68.5824 1.91395H67.4774V5.07295H68.6474C69.3667 5.07295 69.8911 4.93862 70.2204 4.66995C70.5497 4.39262 70.7144 3.98528 70.7144 3.44795C70.7144 2.89328 70.5411 2.49895 70.1944 2.26495C69.8477 2.03095 69.3104 1.91395 68.5824 1.91395Z" fill="white"/>
<path d="M82.0579 9.99995H80.6929V3.83795C80.6929 3.50862 80.6973 3.21395 80.7059 2.95395C80.7146 2.68528 80.7276 2.42528 80.7449 2.17395C80.6323 2.29528 80.5152 2.40795 80.3939 2.51195C80.2726 2.61595 80.1339 2.73295 79.9779 2.86295L78.9639 3.68195L78.2619 2.79795L80.9139 0.717951H82.0579V9.99995Z" fill="white"/>
<path d="M86.7284 9.99995L90.4334 1.93995H85.5584V0.717951H91.9154V1.70595L88.2234 9.99995H86.7284Z" fill="white"/>
<path d="M93.3618 7.10095V5.93095H96.5858V7.10095H93.3618Z" fill="white"/>
<path d="M102.296 9.99995H100.931V3.83795C100.931 3.50862 100.936 3.21395 100.944 2.95395C100.953 2.68528 100.966 2.42528 100.983 2.17395C100.871 2.29528 100.754 2.40795 100.632 2.51195C100.511 2.61595 100.372 2.73295 100.216 2.86295L99.2023 3.68195L98.5003 2.79795L101.152 0.717951H102.296V9.99995Z" fill="white"/>
<path d="M108.995 0.587951C109.541 0.587951 110.026 0.674617 110.451 0.84795C110.875 1.01262 111.209 1.26395 111.452 1.60195C111.703 1.93128 111.829 2.33862 111.829 2.82395C111.829 3.37862 111.66 3.83362 111.322 4.18895C110.984 4.54428 110.576 4.84328 110.1 5.08595C110.464 5.26795 110.797 5.47595 111.101 5.70995C111.413 5.93528 111.66 6.20395 111.842 6.51595C112.032 6.81928 112.128 7.17895 112.128 7.59495C112.128 8.11495 111.998 8.56562 111.738 8.94695C111.478 9.31962 111.114 9.60995 110.646 9.81795C110.186 10.026 109.645 10.13 109.021 10.13C108.015 10.13 107.24 9.91328 106.694 9.47995C106.148 9.03795 105.875 8.42262 105.875 7.63395C105.875 7.21795 105.961 6.85395 106.135 6.54195C106.308 6.22128 106.538 5.94828 106.824 5.72295C107.11 5.49762 107.422 5.30695 107.76 5.15095C107.309 4.89095 106.932 4.57895 106.629 4.21495C106.325 3.84228 106.174 3.37428 106.174 2.81095C106.174 2.33428 106.299 1.93128 106.551 1.60195C106.802 1.26395 107.14 1.01262 107.565 0.84795C107.989 0.674617 108.466 0.587951 108.995 0.587951ZM108.982 1.66695C108.548 1.66695 108.193 1.77528 107.916 1.99195C107.638 2.19995 107.5 2.49895 107.5 2.88895C107.5 3.32228 107.647 3.66028 107.942 3.90295C108.245 4.13695 108.609 4.34928 109.034 4.53995C109.432 4.36662 109.775 4.15428 110.061 3.90295C110.347 3.65162 110.49 3.31362 110.49 2.88895C110.49 2.49895 110.351 2.19995 110.074 1.99195C109.796 1.77528 109.432 1.66695 108.982 1.66695ZM107.201 7.60795C107.201 8.02395 107.348 8.37062 107.643 8.64795C107.937 8.92528 108.388 9.06395 108.995 9.06395C109.584 9.06395 110.03 8.92962 110.334 8.66095C110.646 8.38362 110.802 8.02829 110.802 7.59495C110.802 7.17028 110.633 6.81928 110.295 6.54195C109.957 6.26462 109.536 6.01762 109.034 5.80095L108.839 5.72295C108.31 5.94828 107.903 6.21262 107.617 6.51595C107.339 6.81062 107.201 7.17462 107.201 7.60795Z" fill="white"/>
</svg>
