<svg width="76" height="33" viewBox="0 0 76 33" fill="none" xmlns="http://www.w3.org/2000/svg">
<path d="M7.17352 5.49947C8.18091 2.80907 10.7846 1 13.6518 1H28.038L26.8921 4.07696L13.6363 4.07696C12.0555 4.07696 10.6141 5.082 10.0562 6.56636L3.31444 24.6725C2.88048 25.8631 3.03547 27.1464 3.76389 28.1824C4.49231 29.2184 5.63918 29.8214 6.91005 29.8214H17.3044L16.1602 32.8937L6.91005 32.8829C4.64729 32.8829 2.52402 31.7851 1.23766 29.9296C-0.0486998 28.0742 -0.358667 25.7085 0.431747 23.5901C1.22216 21.4718 6.16613 8.18988 7.17352 5.49947Z" fill="#3FE4CB"/>
<path d="M68.8673 1.00009C71.1301 1.00009 73.2534 2.0979 74.5397 3.95335C75.8416 5.8088 76.1361 8.1745 75.3456 10.2928L68.6039 28.3835C67.5965 31.0739 64.9928 32.883 62.1256 32.883H47.7317L48.8776 29.806L62.1256 29.8214C63.7064 29.8214 65.1477 28.8164 65.7057 27.3321L72.4475 9.22593C72.8969 8.03535 72.7264 6.75199 72.0135 5.71603C71.2851 4.68007 70.1382 4.07705 68.8673 4.07705L58.4653 4.06158L59.6112 0.984619C70.4233 0.984621 67.7646 1.00009 68.8673 1.00009Z" fill="#FDB515"/>
<path fill-rule="evenodd" clip-rule="evenodd" d="M21.2232 10.9709C18.3759 10.9709 16.0062 12.6166 16.0062 15.9626L15.9878 17.6408C15.9878 21.0966 18.1187 22.797 20.9476 22.797C23.7949 22.797 26.1646 21.1514 26.1646 17.8054L26.1829 16.1272C26.1829 12.6714 24.0521 10.9709 21.2232 10.9709ZM21.1313 13.4394C19.7168 13.4394 18.9086 14.5364 18.9086 15.9443V17.8236C18.9086 19.2498 19.625 20.3286 21.0395 20.3286C22.4539 20.3286 23.2622 19.2315 23.2622 17.8236V15.9443C23.2622 14.5182 22.5458 13.4394 21.1313 13.4394Z" fill="white"/>
<path d="M32.951 22.797C35.801 22.797 37.5366 21.3992 37.5366 19.1922C37.5366 17.6657 36.9702 16.2495 34.6683 15.8448L32.0558 15.385C31.252 15.2379 30.9779 14.9252 30.9779 14.3735C30.9779 13.8033 31.3798 13.4723 32.2568 13.4539C33.6452 13.4171 35.0885 13.5642 36.5683 13.8401L37.0799 11.5595C35.4539 11.1181 34.2481 10.9709 32.5856 10.9709C29.5895 10.9709 28.1462 12.3871 28.1462 14.5942C28.1462 16.2127 29.1875 17.5369 31.325 17.9231L33.627 18.3278C34.4491 18.4933 34.7048 18.8244 34.7048 19.3761C34.7048 19.9279 34.2664 20.3141 33.0241 20.3141C31.7452 20.3141 29.8635 20.0014 28.6943 19.5784L28.0366 21.7855C29.7173 22.6499 31.4895 22.797 32.951 22.797Z" fill="white"/>
<path d="M56.7988 22.797C53.7439 22.797 51.439 20.7923 51.439 17.9967V15.7713C51.439 12.9757 53.7439 10.9709 56.7988 10.9709C58.6464 10.9709 59.872 11.1917 61.1708 11.9641L60.4939 14.1528C59.3598 13.6746 58.3537 13.4723 57.0915 13.4723C55.7012 13.4723 54.5488 14.2631 54.3659 15.5322V18.2358C54.5488 19.5049 55.7012 20.2957 57.0915 20.2957C58.3537 20.2957 59.3598 20.0934 60.4939 19.6152L61.1708 21.8039C59.872 22.5763 58.6464 22.797 56.7988 22.797Z" fill="white"/>
<path fill-rule="evenodd" clip-rule="evenodd" d="M44.3307 22.7971C39.8537 22.7971 39.8536 22.7281 39.8536 22.7281L39.8536 11.0387C39.8536 11.0387 39.8536 10.971 44.3307 10.971C47.8399 10.971 49.5854 13.0861 49.5854 16.0472L49.5854 17.7209C49.5854 20.682 47.8399 22.7971 44.3307 22.7971ZM42.859 20.2605L42.859 13.4646C42.859 13.4646 43.2236 13.4187 44.1113 13.4187C45.6546 13.4187 46.5171 14.3383 46.5171 15.8648L46.5171 17.9785C46.5171 19.505 45.6546 20.3143 44.1113 20.3143C43.2236 20.3143 42.859 20.2605 42.859 20.2605Z" fill="white"/>
</svg>
