<svg width="75" height="24" viewBox="0 0 75 24" fill="none" xmlns="http://www.w3.org/2000/svg">
<path d="M0 16.7208V0.94989H2.77034V16.7208H0Z" fill="#B9BEC7"/>
<path d="M9.86174 5.2796C6.3098 5.2796 3.85181 8.01059 3.85181 11.1365C3.85181 14.6251 6.52582 17.0285 9.88935 17.0285C13.0815 17.0285 15.8516 14.6694 15.8516 11.1289C15.8516 8.15177 13.5562 5.2796 9.86174 5.2796ZM9.82912 7.95208C11.688 7.95208 13.0562 9.39902 13.0562 11.1465C13.0562 12.9993 11.5477 14.351 9.87931 14.351C7.90795 14.351 6.66732 12.7885 6.66732 11.1515C6.66732 9.35721 8.06801 7.95208 9.82912 7.95208Z" fill="#B9BEC7"/>
<path d="M22.8122 5.2796C19.2602 5.2796 16.8022 8.01059 16.8022 11.1365C16.8022 14.6251 19.4763 17.0285 22.8398 17.0285C26.032 17.0285 28.802 14.6694 28.802 11.1289C28.802 9.04406 27.8992 8.119 27.8992 8.119L28.667 7.85569V5.60729H24.7323C24.7323 5.60729 23.8793 5.2796 22.8122 5.2796ZM22.7796 7.95208C24.6384 7.95208 26.0066 9.39902 26.0066 11.1465C26.0066 12.9993 24.4981 14.351 22.8297 14.351C20.8584 14.351 19.6178 12.7885 19.6178 11.1515C19.6178 9.35721 21.0184 7.95208 22.7796 7.95208Z" fill="#B9BEC7"/>
<path d="M25.9868 17.4917C25.9868 19.3445 24.4783 20.7062 22.81 20.7062C20.8386 20.7062 19.593 19.1286 19.593 17.4917H16.7825C16.7825 20.9803 19.4565 23.3837 22.82 23.3837C26.0122 23.3837 28.7823 21.0321 28.7823 17.4917H25.9868Z" fill="#B9BEC7"/>
<path d="M29.9116 16.7208V5.60727H32.682V16.7208H29.9116Z" fill="#B9BEC7"/>
<path d="M35.372 16.7208V8.09661H33.8865V5.60732H35.372V2.19458H38.1424V5.60732H39.6681V8.09661H38.1424V16.7208H35.372Z" fill="#B9BEC7"/>
<path d="M33.1256 2.45085C33.1256 3.46402 32.3042 4.28536 31.2911 4.28536C30.2779 4.28536 29.4565 3.46402 29.4565 2.45085C29.4565 1.43767 30.2779 0.616333 31.2911 0.616333C32.3042 0.616333 33.1256 1.43767 33.1256 2.45085Z" fill="#B9BEC7"/>
<path d="M45.8963 5.27209C42.3275 5.27209 40.0269 8.00451 40.0269 11.2369C40.0269 14.5772 42.3352 17.036 45.954 17.036C49.3297 17.036 50.9903 14.9282 50.9903 14.9282L49.1384 13.0737C49.1384 13.0737 47.7401 14.5819 45.9891 14.5819C44.5295 14.5819 43.3625 13.7672 42.9553 12.2732H51.5875V11.5104C51.5875 8.46652 49.8257 5.27209 45.8963 5.27209ZM45.8084 7.7112C47.0846 7.7112 48.3898 8.39395 48.6817 10.0248H42.88C43.1098 8.87842 44.1127 7.7112 45.8084 7.7112Z" fill="#B9BEC7"/>
<path d="M58.5172 17.0374C54.9383 17.0374 52.4998 14.3116 52.4998 11.0977C52.4998 7.78101 55.2558 5.26996 58.5057 5.26996C61.6475 5.26996 63.2556 7.48783 63.2556 7.48783L61.323 9.41163C61.323 9.41163 60.2036 7.96524 58.4926 7.96524C56.5962 7.96524 55.2995 9.41591 55.2995 11.1403C55.2995 12.961 56.6789 14.3579 58.4712 14.3579C60.2098 14.3579 61.3203 12.9139 61.3203 12.9139L63.2722 14.8366C63.2722 14.8366 61.6797 17.0374 58.5172 17.0374Z" fill="#B9BEC7"/>
<path d="M64.28 16.7288V0.90976H67.0504V6.72175C67.0504 6.72175 68.1111 5.26998 70.4186 5.26998C73.3195 5.26998 75.0001 7.42639 75.0001 10.1844V16.7288H72.2297V10.6031C72.2297 8.75022 71.0761 7.98151 69.7982 7.98151C68.3422 7.98151 67.0504 8.81012 67.0504 10.7465V16.7288H64.28Z" fill="#B9BEC7"/>
</svg>
