<svg width="141" height="124" viewBox="0 0 141 124" fill="none" xmlns="http://www.w3.org/2000/svg">
<rect width="141" height="124" rx="6" fill="#1A1A1A"/>
<path d="M34.8281 91.9H31.3481L30.5921 94H29.2241L32.3801 85.276H33.7121H33.8081L36.9761 94H35.5721L34.8281 91.9ZM34.4441 90.772L33.1001 86.968L31.7441 90.772H34.4441ZM43.3351 90.376V94H42.0631V90.628C42.0631 90.052 41.9271 89.652 41.6551 89.428C41.3831 89.204 41.0671 89.092 40.7071 89.092C40.4991 89.092 40.3031 89.128 40.1191 89.2C39.9351 89.264 39.7711 89.364 39.6271 89.5C39.4911 89.636 39.3831 89.804 39.3031 90.004C39.2231 90.204 39.1831 90.436 39.1831 90.7V94H37.9111V88.108H39.0991L39.1471 88.792C39.3151 88.528 39.5591 88.32 39.8791 88.168C40.1991 88.016 40.5631 87.94 40.9711 87.94C41.6991 87.94 42.2751 88.148 42.6991 88.564C43.1231 88.972 43.3351 89.576 43.3351 90.376ZM50.3321 91.552H45.7361C45.7841 92.056 45.9641 92.432 46.2761 92.68C46.5961 92.928 46.9841 93.052 47.4401 93.052C47.8241 93.052 48.1481 92.968 48.4121 92.8C48.6761 92.624 48.8841 92.384 49.0361 92.08L50.1041 92.512C49.8801 93.04 49.5281 93.448 49.0481 93.736C48.5761 94.016 48.0361 94.156 47.4281 94.156C46.9961 94.156 46.6001 94.084 46.2401 93.94C45.8881 93.788 45.5841 93.576 45.3281 93.304C45.0721 93.032 44.8721 92.708 44.7281 92.332C44.5921 91.948 44.5241 91.524 44.5241 91.06C44.5241 90.604 44.5921 90.184 44.7281 89.8C44.8721 89.416 45.0721 89.088 45.3281 88.816C45.5841 88.536 45.8921 88.32 46.2521 88.168C46.6121 88.016 47.0121 87.94 47.4521 87.94C47.8841 87.94 48.2761 88.016 48.6281 88.168C48.9881 88.312 49.2921 88.52 49.5401 88.792C49.7961 89.064 49.9921 89.392 50.1281 89.776C50.2641 90.152 50.3321 90.576 50.3321 91.048V91.552ZM49.0361 90.64C49.0041 90.104 48.8481 89.7 48.5681 89.428C48.2881 89.148 47.9081 89.008 47.4281 89.008C46.9481 89.008 46.5601 89.148 46.2641 89.428C45.9761 89.708 45.8041 90.112 45.7481 90.64H49.0361ZM53.5075 93.124C53.8115 93.124 54.0595 93.064 54.2515 92.944C54.4515 92.816 54.5515 92.62 54.5515 92.356C54.5515 91.996 54.3195 91.764 53.8555 91.66L53.0155 91.432C51.9195 91.128 51.3715 90.564 51.3715 89.74C51.3715 89.476 51.4195 89.236 51.5155 89.02C51.6195 88.796 51.7635 88.604 51.9475 88.444C52.1315 88.284 52.3555 88.16 52.6195 88.072C52.8835 87.984 53.1795 87.94 53.5075 87.94C54.0915 87.94 54.5835 88.072 54.9835 88.336C55.3835 88.592 55.6235 88.96 55.7035 89.44L54.5635 89.716C54.5315 89.484 54.4195 89.304 54.2275 89.176C54.0435 89.04 53.8155 88.972 53.5435 88.972C53.2635 88.972 53.0355 89.04 52.8595 89.176C52.6915 89.312 52.6075 89.492 52.6075 89.716C52.6075 89.908 52.6715 90.064 52.7995 90.184C52.9275 90.296 53.1235 90.384 53.3875 90.448L54.2155 90.664C54.7435 90.8 55.1435 91.016 55.4155 91.312C55.6875 91.6 55.8235 91.952 55.8235 92.368C55.8235 92.92 55.6195 93.356 55.2115 93.676C54.8115 93.996 54.2475 94.156 53.5195 94.156C52.8395 94.156 52.3035 94.008 51.9115 93.712C51.5195 93.416 51.2875 93.024 51.2155 92.536L52.3675 92.332C52.3995 92.572 52.5115 92.764 52.7035 92.908C52.9035 93.052 53.1715 93.124 53.5075 93.124ZM59.9658 89.164H58.8138V94H57.5538V89.164H56.4018V88.108H57.5538V86.26H58.8138V88.108H59.9658V89.164ZM66.4934 90.436V94H65.2214V90.712C65.2214 90.408 65.1854 90.152 65.1134 89.944C65.0414 89.736 64.9414 89.572 64.8134 89.452C64.6854 89.324 64.5334 89.232 64.3574 89.176C64.1894 89.12 64.0054 89.092 63.8054 89.092C63.6134 89.092 63.4254 89.128 63.2414 89.2C63.0574 89.264 62.8894 89.364 62.7374 89.5C62.5934 89.636 62.4774 89.808 62.3894 90.016C62.3014 90.224 62.2574 90.468 62.2574 90.748V94H60.9854V85.12H62.2574V88.78C62.4414 88.524 62.6894 88.32 63.0014 88.168C63.3214 88.016 63.6734 87.94 64.0574 87.94C64.8254 87.94 65.4214 88.152 65.8454 88.576C66.2774 88.992 66.4934 89.612 66.4934 90.436ZM73.3594 91.552H68.7634C68.8114 92.056 68.9914 92.432 69.3034 92.68C69.6234 92.928 70.0114 93.052 70.4674 93.052C70.8514 93.052 71.1754 92.968 71.4394 92.8C71.7034 92.624 71.9114 92.384 72.0634 92.08L73.1314 92.512C72.9074 93.04 72.5554 93.448 72.0754 93.736C71.6034 94.016 71.0634 94.156 70.4554 94.156C70.0234 94.156 69.6274 94.084 69.2674 93.94C68.9154 93.788 68.6114 93.576 68.3554 93.304C68.0994 93.032 67.8994 92.708 67.7554 92.332C67.6194 91.948 67.5514 91.524 67.5514 91.06C67.5514 90.604 67.6194 90.184 67.7554 89.8C67.8994 89.416 68.0994 89.088 68.3554 88.816C68.6114 88.536 68.9194 88.32 69.2794 88.168C69.6394 88.016 70.0394 87.94 70.4794 87.94C70.9114 87.94 71.3034 88.016 71.6554 88.168C72.0154 88.312 72.3194 88.52 72.5674 88.792C72.8234 89.064 73.0194 89.392 73.1554 89.776C73.2914 90.152 73.3594 90.576 73.3594 91.048V91.552ZM72.0634 90.64C72.0314 90.104 71.8754 89.7 71.5954 89.428C71.3154 89.148 70.9354 89.008 70.4554 89.008C69.9754 89.008 69.5874 89.148 69.2914 89.428C69.0034 89.708 68.8314 90.112 68.7754 90.64H72.0634ZM76.5348 93.124C76.8388 93.124 77.0868 93.064 77.2788 92.944C77.4788 92.816 77.5788 92.62 77.5788 92.356C77.5788 91.996 77.3468 91.764 76.8828 91.66L76.0428 91.432C74.9468 91.128 74.3988 90.564 74.3988 89.74C74.3988 89.476 74.4468 89.236 74.5428 89.02C74.6468 88.796 74.7908 88.604 74.9748 88.444C75.1588 88.284 75.3828 88.16 75.6468 88.072C75.9108 87.984 76.2068 87.94 76.5348 87.94C77.1188 87.94 77.6108 88.072 78.0108 88.336C78.4108 88.592 78.6508 88.96 78.7308 89.44L77.5908 89.716C77.5588 89.484 77.4468 89.304 77.2548 89.176C77.0708 89.04 76.8428 88.972 76.5708 88.972C76.2908 88.972 76.0628 89.04 75.8868 89.176C75.7188 89.312 75.6348 89.492 75.6348 89.716C75.6348 89.908 75.6988 90.064 75.8268 90.184C75.9548 90.296 76.1508 90.384 76.4148 90.448L77.2428 90.664C77.7708 90.8 78.1708 91.016 78.4428 91.312C78.7148 91.6 78.8508 91.952 78.8508 92.368C78.8508 92.92 78.6468 93.356 78.2388 93.676C77.8388 93.996 77.2748 94.156 76.5468 94.156C75.8668 94.156 75.3308 94.008 74.9388 93.712C74.5468 93.416 74.3148 93.024 74.2428 92.536L75.3948 92.332C75.4268 92.572 75.5388 92.764 75.7308 92.908C75.9308 93.052 76.1988 93.124 76.5348 93.124ZM79.896 86.044C79.896 85.804 79.976 85.604 80.136 85.444C80.304 85.276 80.508 85.192 80.748 85.192C80.98 85.192 81.176 85.276 81.336 85.444C81.504 85.604 81.588 85.804 81.588 86.044C81.588 86.276 81.504 86.476 81.336 86.644C81.176 86.804 80.98 86.884 80.748 86.884C80.508 86.884 80.304 86.804 80.136 86.644C79.976 86.476 79.896 86.276 79.896 86.044ZM81.384 88.108V94H80.112V88.108H81.384ZM85.6812 87.94C86.1372 87.94 86.5492 88.02 86.9172 88.18C87.2932 88.332 87.6132 88.548 87.8772 88.828C88.1412 89.1 88.3452 89.428 88.4892 89.812C88.6412 90.188 88.7172 90.6 88.7172 91.048C88.7172 91.496 88.6412 91.912 88.4892 92.296C88.3452 92.672 88.1412 93 87.8772 93.28C87.6132 93.552 87.2932 93.764 86.9172 93.916C86.5492 94.068 86.1372 94.144 85.6812 94.144C85.2252 94.144 84.8092 94.068 84.4332 93.916C84.0652 93.764 83.7492 93.552 83.4852 93.28C83.2212 93 83.0132 92.672 82.8612 92.296C82.7172 91.912 82.6452 91.496 82.6452 91.048C82.6452 90.6 82.7172 90.188 82.8612 89.812C83.0132 89.428 83.2212 89.1 83.4852 88.828C83.7492 88.548 84.0652 88.332 84.4332 88.18C84.8092 88.02 85.2252 87.94 85.6812 87.94ZM85.6812 93.004C85.9452 93.004 86.1812 92.956 86.3892 92.86C86.6052 92.764 86.7892 92.628 86.9412 92.452C87.1012 92.276 87.2212 92.068 87.3012 91.828C87.3892 91.588 87.4332 91.324 87.4332 91.036C87.4332 90.748 87.3892 90.488 87.3012 90.256C87.2212 90.016 87.1012 89.812 86.9412 89.644C86.7892 89.468 86.6052 89.332 86.3892 89.236C86.1812 89.14 85.9452 89.092 85.6812 89.092C85.4172 89.092 85.1772 89.14 84.9612 89.236C84.7452 89.332 84.5612 89.468 84.4092 89.644C84.2572 89.812 84.1372 90.016 84.0492 90.256C83.9692 90.488 83.9292 90.748 83.9292 91.036C83.9292 91.324 83.9692 91.588 84.0492 91.828C84.1372 92.068 84.2572 92.276 84.4092 92.452C84.5612 92.628 84.7452 92.764 84.9612 92.86C85.1772 92.956 85.4172 93.004 85.6812 93.004ZM89.9541 85.12H91.2261V94H89.9541V85.12ZM95.4663 87.94C95.9223 87.94 96.3343 88.02 96.7023 88.18C97.0783 88.332 97.3983 88.548 97.6623 88.828C97.9263 89.1 98.1303 89.428 98.2743 89.812C98.4263 90.188 98.5023 90.6 98.5023 91.048C98.5023 91.496 98.4263 91.912 98.2743 92.296C98.1303 92.672 97.9263 93 97.6623 93.28C97.3983 93.552 97.0783 93.764 96.7023 93.916C96.3343 94.068 95.9223 94.144 95.4663 94.144C95.0103 94.144 94.5943 94.068 94.2183 93.916C93.8503 93.764 93.5343 93.552 93.2703 93.28C93.0063 93 92.7983 92.672 92.6463 92.296C92.5023 91.912 92.4303 91.496 92.4303 91.048C92.4303 90.6 92.5023 90.188 92.6463 89.812C92.7983 89.428 93.0063 89.1 93.2703 88.828C93.5343 88.548 93.8503 88.332 94.2183 88.18C94.5943 88.02 95.0103 87.94 95.4663 87.94ZM95.4663 93.004C95.7303 93.004 95.9663 92.956 96.1743 92.86C96.3903 92.764 96.5743 92.628 96.7263 92.452C96.8863 92.276 97.0063 92.068 97.0863 91.828C97.1743 91.588 97.2183 91.324 97.2183 91.036C97.2183 90.748 97.1743 90.488 97.0863 90.256C97.0063 90.016 96.8863 89.812 96.7263 89.644C96.5743 89.468 96.3903 89.332 96.1743 89.236C95.9663 89.14 95.7303 89.092 95.4663 89.092C95.2023 89.092 94.9623 89.14 94.7463 89.236C94.5303 89.332 94.3463 89.468 94.1943 89.644C94.0423 89.812 93.9223 90.016 93.8343 90.256C93.7543 90.488 93.7143 90.748 93.7143 91.036C93.7143 91.324 93.7543 91.588 93.8343 91.828C93.9223 92.068 94.0423 92.276 94.1943 92.452C94.3463 92.628 94.5303 92.764 94.7463 92.86C94.9623 92.956 95.2023 93.004 95.4663 93.004ZM105.271 95.056C105.271 95.736 104.971 96.212 104.371 96.484C103.787 96.772 103.027 96.916 102.091 96.916C101.203 96.916 100.495 96.796 99.9673 96.556C99.4473 96.316 99.1873 95.924 99.1873 95.38C99.1873 95.1 99.2593 94.848 99.4033 94.624C99.5553 94.408 99.7593 94.248 100.015 94.144C99.6313 93.912 99.4393 93.564 99.4393 93.1C99.4393 92.868 99.5033 92.64 99.6313 92.416C99.7673 92.184 99.9793 92.012 100.267 91.9C100.043 91.7 99.8713 91.464 99.7513 91.192C99.6313 90.92 99.5713 90.616 99.5713 90.28C99.5713 89.936 99.6353 89.62 99.7633 89.332C99.8913 89.044 100.071 88.8 100.303 88.6C100.535 88.392 100.811 88.232 101.131 88.12C101.451 88 101.807 87.94 102.199 87.94C102.727 87.94 103.187 88.04 103.579 88.24C103.715 87.992 103.903 87.796 104.143 87.652C104.391 87.508 104.683 87.436 105.019 87.436C105.123 87.436 105.191 87.44 105.223 87.448V88.504C105.191 88.496 105.123 88.492 105.019 88.492C104.699 88.492 104.447 88.584 104.263 88.768C104.623 89.16 104.803 89.66 104.803 90.268C104.803 90.612 104.739 90.928 104.611 91.216C104.491 91.496 104.315 91.74 104.083 91.948C103.859 92.148 103.587 92.308 103.267 92.428C102.947 92.54 102.595 92.596 102.211 92.596C101.819 92.596 101.443 92.528 101.083 92.392C100.691 92.408 100.495 92.572 100.495 92.884C100.495 93.004 100.543 93.112 100.639 93.208C100.743 93.296 100.907 93.34 101.131 93.34H103.243C103.891 93.34 104.391 93.492 104.743 93.796C105.095 94.1 105.271 94.52 105.271 95.056ZM100.807 90.268C100.807 90.652 100.931 90.968 101.179 91.216C101.435 91.456 101.771 91.576 102.187 91.576C102.619 91.568 102.955 91.444 103.195 91.204C103.443 90.956 103.567 90.652 103.567 90.292C103.567 89.908 103.439 89.592 103.183 89.344C102.935 89.088 102.603 88.96 102.187 88.96C101.771 88.96 101.435 89.084 101.179 89.332C100.931 89.572 100.807 89.884 100.807 90.268ZM104.035 95.068C104.035 94.836 103.943 94.664 103.759 94.552C103.583 94.44 103.347 94.384 103.051 94.384H100.987H100.831C100.647 94.432 100.511 94.516 100.423 94.636C100.335 94.764 100.291 94.904 100.291 95.056C100.291 95.376 100.455 95.584 100.783 95.68C101.111 95.784 101.575 95.836 102.175 95.836C102.783 95.836 103.243 95.784 103.555 95.68C103.875 95.576 104.035 95.372 104.035 95.068ZM111.774 88.108L109.014 95.368C108.814 95.896 108.55 96.272 108.222 96.496C107.894 96.72 107.526 96.832 107.118 96.832C106.71 96.832 106.282 96.732 105.834 96.532L106.194 95.38C106.474 95.564 106.754 95.656 107.034 95.656C107.45 95.656 107.75 95.42 107.934 94.948L108.162 94.348L105.642 88.108H106.986L108.762 92.716L110.442 88.108H111.774Z" fill="white"/>
<path d="M89 63L85 59" stroke="#F2F2F2" stroke-width="2" stroke-linecap="round" stroke-linejoin="round"/>
<path d="M85.4 58.6L84.6 59.4C84.2 59.8 83.6 59.9 83.1 59.6L79.4 57.2L83.1 53.5L85.5 57.2C85.9 57.6 85.8 58.2 85.4 58.6Z" stroke="#F2F2F2" stroke-width="2" stroke-linecap="round" stroke-linejoin="round"/>
<path d="M57.7196 26.7495L52.7699 31.6992L60.6894 39.6187L65.6391 34.669L57.7196 26.7495Z" stroke="#F2F2F2" stroke-width="2" stroke-linecap="round" stroke-linejoin="round"/>
<path d="M56.2 44.2L70.2 30.2" stroke="#F2F2F2" stroke-width="2" stroke-linecap="round" stroke-linejoin="round"/>
<path d="M51 33.4L59.4 25" stroke="#F2F2F2" stroke-width="2" stroke-linecap="round" stroke-linejoin="round"/>
<path d="M72.2 46.2001L76.2 42.3" stroke="#0076FF" stroke-width="2" stroke-linecap="round" stroke-linejoin="round"/>
<path d="M74.9 48.9L78.9 45" stroke="#0076FF" stroke-width="2" stroke-linecap="round" stroke-linejoin="round"/>
<path d="M69.5 43.5L73.5 39.6" stroke="#0076FF" stroke-width="2" stroke-linecap="round" stroke-linejoin="round"/>
<path d="M59.2 41.1L67 33.3L84.2999 50.6C84.7999 51.1 84.7999 51.8 84.2999 52.3L78.1 58.5C77.6 59 76.9 59 76.4 58.5L59.2 41.1Z" stroke="#F2F2F2" stroke-width="2" stroke-linecap="round" stroke-linejoin="round"/>
</svg>
