<svg width="141" height="124" viewBox="0 0 141 124" fill="none" xmlns="http://www.w3.org/2000/svg">
<rect width="141" height="124" rx="6" fill="#1A1A1A"/>
<path d="M47.3557 88.108C47.1877 87.58 46.8917 87.168 46.4677 86.872C46.0437 86.576 45.5437 86.428 44.9677 86.428C44.5437 86.428 44.1597 86.508 43.8157 86.668C43.4717 86.82 43.1757 87.036 42.9277 87.316C42.6797 87.596 42.4877 87.936 42.3517 88.336C42.2237 88.728 42.1597 89.164 42.1597 89.644C42.1597 90.132 42.2277 90.572 42.3637 90.964C42.4997 91.356 42.6917 91.692 42.9397 91.972C43.1877 92.244 43.4797 92.456 43.8157 92.608C44.1597 92.752 44.5397 92.824 44.9557 92.824C45.5557 92.824 46.0797 92.684 46.5277 92.404C46.9757 92.116 47.2837 91.732 47.4517 91.252L48.7117 91.792C48.4237 92.528 47.9397 93.104 47.2597 93.52C46.5797 93.936 45.8077 94.144 44.9437 94.144C44.3277 94.152 43.7597 94.048 43.2397 93.832C42.7277 93.616 42.2877 93.308 41.9197 92.908C41.5517 92.508 41.2637 92.032 41.0557 91.48C40.8557 90.928 40.7597 90.32 40.7677 89.656C40.7677 88.984 40.8677 88.372 41.0677 87.82C41.2757 87.26 41.5637 86.784 41.9317 86.392C42.2997 85.992 42.7397 85.684 43.2517 85.468C43.7637 85.244 44.3317 85.132 44.9557 85.132C45.8757 85.132 46.6637 85.364 47.3197 85.828C47.9757 86.292 48.4117 86.904 48.6277 87.664L47.3557 88.108ZM53.4833 94C53.4673 93.92 53.4513 93.82 53.4353 93.7C53.4193 93.58 53.4033 93.436 53.3873 93.268C53.2193 93.532 52.9713 93.748 52.6433 93.916C52.3153 94.076 51.9353 94.156 51.5033 94.156C50.8553 94.156 50.3353 93.988 49.9433 93.652C49.5593 93.308 49.3673 92.844 49.3673 92.26C49.3673 91.684 49.5593 91.232 49.9433 90.904C50.3353 90.576 50.8593 90.412 51.5153 90.412H53.3633V90.184C53.3633 89.768 53.2433 89.464 53.0033 89.272C52.7713 89.08 52.4513 88.984 52.0433 88.984C51.3153 88.984 50.7993 89.28 50.4953 89.872L49.5593 89.332C49.7993 88.852 50.1393 88.5 50.5793 88.276C51.0193 88.052 51.5273 87.94 52.1033 87.94C52.8313 87.94 53.4313 88.128 53.9033 88.504C54.3753 88.88 54.6113 89.488 54.6113 90.328V92.74C54.6113 93.388 54.6473 93.808 54.7193 94H53.4833ZM53.3633 91.312H51.8033C51.4353 91.312 51.1513 91.396 50.9513 91.564C50.7593 91.724 50.6633 91.952 50.6633 92.248C50.6633 92.552 50.7633 92.784 50.9633 92.944C51.1713 93.096 51.4553 93.172 51.8153 93.172C52.2553 93.172 52.6233 93.032 52.9193 92.752C53.2153 92.464 53.3633 92.032 53.3633 91.456V91.312ZM58.8991 88.024C59.1151 88.024 59.3391 88.052 59.5711 88.108V89.284C59.3551 89.228 59.1391 89.2 58.9231 89.2C58.4191 89.2 58.0271 89.356 57.7471 89.668C57.4751 89.98 57.3391 90.412 57.3391 90.964V94H56.0431V88.108H57.2311L57.3031 88.828C57.4231 88.564 57.6271 88.364 57.9151 88.228C58.2111 88.092 58.5391 88.024 58.8991 88.024ZM65.0479 94C65.0239 93.84 65.0039 93.688 64.9879 93.544C64.9799 93.4 64.9719 93.264 64.9639 93.136C64.7639 93.472 64.4799 93.728 64.1119 93.904C63.7519 94.072 63.3519 94.156 62.9119 94.156C62.4879 94.156 62.0959 94.088 61.7359 93.952C61.3839 93.808 61.0799 93.604 60.8239 93.34C60.5759 93.068 60.3799 92.74 60.2359 92.356C60.0999 91.972 60.0319 91.536 60.0319 91.048C60.0319 90.592 60.0999 90.172 60.2359 89.788C60.3799 89.404 60.5799 89.076 60.8359 88.804C61.0999 88.532 61.4079 88.32 61.7599 88.168C62.1199 88.016 62.5159 87.94 62.9479 87.94C63.3559 87.94 63.7399 88.02 64.0999 88.18C64.4599 88.34 64.7439 88.572 64.9519 88.876V85.12H66.2119V92.548C66.2359 93.34 66.2719 93.824 66.3199 94H65.0479ZM64.8799 91.036C64.8799 90.452 64.7159 89.984 64.3879 89.632C64.0679 89.272 63.6399 89.092 63.1039 89.092C62.5679 89.092 62.1359 89.272 61.8079 89.632C61.4799 89.984 61.3159 90.452 61.3159 91.036C61.3159 91.636 61.4799 92.112 61.8079 92.464C62.1359 92.816 62.5679 92.992 63.1039 92.992C63.6399 92.992 64.0679 92.816 64.3879 92.464C64.7159 92.112 64.8799 91.636 64.8799 91.036ZM67.7125 86.044C67.7125 85.804 67.7925 85.604 67.9525 85.444C68.1205 85.276 68.3245 85.192 68.5645 85.192C68.7965 85.192 68.9925 85.276 69.1525 85.444C69.3205 85.604 69.4045 85.804 69.4045 86.044C69.4045 86.276 69.3205 86.476 69.1525 86.644C68.9925 86.804 68.7965 86.884 68.5645 86.884C68.3245 86.884 68.1205 86.804 67.9525 86.644C67.7925 86.476 67.7125 86.276 67.7125 86.044ZM69.2005 88.108V94H67.9285V88.108H69.2005ZM73.4976 87.94C73.9536 87.94 74.3656 88.02 74.7336 88.18C75.1096 88.332 75.4296 88.548 75.6936 88.828C75.9576 89.1 76.1616 89.428 76.3056 89.812C76.4576 90.188 76.5336 90.6 76.5336 91.048C76.5336 91.496 76.4576 91.912 76.3056 92.296C76.1616 92.672 75.9576 93 75.6936 93.28C75.4296 93.552 75.1096 93.764 74.7336 93.916C74.3656 94.068 73.9536 94.144 73.4976 94.144C73.0416 94.144 72.6256 94.068 72.2496 93.916C71.8816 93.764 71.5656 93.552 71.3016 93.28C71.0376 93 70.8296 92.672 70.6776 92.296C70.5336 91.912 70.4616 91.496 70.4616 91.048C70.4616 90.6 70.5336 90.188 70.6776 89.812C70.8296 89.428 71.0376 89.1 71.3016 88.828C71.5656 88.548 71.8816 88.332 72.2496 88.18C72.6256 88.02 73.0416 87.94 73.4976 87.94ZM73.4976 93.004C73.7616 93.004 73.9976 92.956 74.2056 92.86C74.4216 92.764 74.6056 92.628 74.7576 92.452C74.9176 92.276 75.0376 92.068 75.1176 91.828C75.2056 91.588 75.2496 91.324 75.2496 91.036C75.2496 90.748 75.2056 90.488 75.1176 90.256C75.0376 90.016 74.9176 89.812 74.7576 89.644C74.6056 89.468 74.4216 89.332 74.2056 89.236C73.9976 89.14 73.7616 89.092 73.4976 89.092C73.2336 89.092 72.9936 89.14 72.7776 89.236C72.5616 89.332 72.3776 89.468 72.2256 89.644C72.0736 89.812 71.9536 90.016 71.8656 90.256C71.7856 90.488 71.7456 90.748 71.7456 91.036C71.7456 91.324 71.7856 91.588 71.8656 91.828C71.9536 92.068 72.0736 92.276 72.2256 92.452C72.3776 92.628 72.5616 92.764 72.7776 92.86C72.9936 92.956 73.2336 93.004 73.4976 93.004ZM77.7705 85.12H79.0425V94H77.7705V85.12ZM83.2827 87.94C83.7387 87.94 84.1507 88.02 84.5187 88.18C84.8947 88.332 85.2147 88.548 85.4787 88.828C85.7427 89.1 85.9467 89.428 86.0907 89.812C86.2427 90.188 86.3187 90.6 86.3187 91.048C86.3187 91.496 86.2427 91.912 86.0907 92.296C85.9467 92.672 85.7427 93 85.4787 93.28C85.2147 93.552 84.8947 93.764 84.5187 93.916C84.1507 94.068 83.7387 94.144 83.2827 94.144C82.8267 94.144 82.4107 94.068 82.0347 93.916C81.6667 93.764 81.3507 93.552 81.0867 93.28C80.8227 93 80.6147 92.672 80.4627 92.296C80.3187 91.912 80.2467 91.496 80.2467 91.048C80.2467 90.6 80.3187 90.188 80.4627 89.812C80.6147 89.428 80.8227 89.1 81.0867 88.828C81.3507 88.548 81.6667 88.332 82.0347 88.18C82.4107 88.02 82.8267 87.94 83.2827 87.94ZM83.2827 93.004C83.5467 93.004 83.7827 92.956 83.9907 92.86C84.2067 92.764 84.3907 92.628 84.5427 92.452C84.7027 92.276 84.8227 92.068 84.9027 91.828C84.9907 91.588 85.0347 91.324 85.0347 91.036C85.0347 90.748 84.9907 90.488 84.9027 90.256C84.8227 90.016 84.7027 89.812 84.5427 89.644C84.3907 89.468 84.2067 89.332 83.9907 89.236C83.7827 89.14 83.5467 89.092 83.2827 89.092C83.0187 89.092 82.7787 89.14 82.5627 89.236C82.3467 89.332 82.1627 89.468 82.0107 89.644C81.8587 89.812 81.7387 90.016 81.6507 90.256C81.5707 90.488 81.5307 90.748 81.5307 91.036C81.5307 91.324 81.5707 91.588 81.6507 91.828C81.7387 92.068 81.8587 92.276 82.0107 92.452C82.1627 92.628 82.3467 92.764 82.5627 92.86C82.7787 92.956 83.0187 93.004 83.2827 93.004ZM93.0877 95.056C93.0877 95.736 92.7877 96.212 92.1877 96.484C91.6037 96.772 90.8437 96.916 89.9077 96.916C89.0197 96.916 88.3117 96.796 87.7837 96.556C87.2637 96.316 87.0037 95.924 87.0037 95.38C87.0037 95.1 87.0757 94.848 87.2197 94.624C87.3717 94.408 87.5757 94.248 87.8317 94.144C87.4477 93.912 87.2557 93.564 87.2557 93.1C87.2557 92.868 87.3197 92.64 87.4477 92.416C87.5837 92.184 87.7957 92.012 88.0837 91.9C87.8597 91.7 87.6877 91.464 87.5677 91.192C87.4477 90.92 87.3877 90.616 87.3877 90.28C87.3877 89.936 87.4517 89.62 87.5797 89.332C87.7077 89.044 87.8877 88.8 88.1197 88.6C88.3517 88.392 88.6277 88.232 88.9477 88.12C89.2677 88 89.6237 87.94 90.0157 87.94C90.5437 87.94 91.0037 88.04 91.3957 88.24C91.5317 87.992 91.7197 87.796 91.9597 87.652C92.2077 87.508 92.4997 87.436 92.8357 87.436C92.9397 87.436 93.0077 87.44 93.0397 87.448V88.504C93.0077 88.496 92.9397 88.492 92.8357 88.492C92.5157 88.492 92.2637 88.584 92.0797 88.768C92.4397 89.16 92.6197 89.66 92.6197 90.268C92.6197 90.612 92.5557 90.928 92.4277 91.216C92.3077 91.496 92.1317 91.74 91.8997 91.948C91.6757 92.148 91.4037 92.308 91.0837 92.428C90.7637 92.54 90.4117 92.596 90.0277 92.596C89.6357 92.596 89.2597 92.528 88.8997 92.392C88.5077 92.408 88.3117 92.572 88.3117 92.884C88.3117 93.004 88.3597 93.112 88.4557 93.208C88.5597 93.296 88.7237 93.34 88.9477 93.34H91.0597C91.7077 93.34 92.2077 93.492 92.5597 93.796C92.9117 94.1 93.0877 94.52 93.0877 95.056ZM88.6237 90.268C88.6237 90.652 88.7477 90.968 88.9957 91.216C89.2517 91.456 89.5877 91.576 90.0037 91.576C90.4357 91.568 90.7717 91.444 91.0117 91.204C91.2597 90.956 91.3837 90.652 91.3837 90.292C91.3837 89.908 91.2557 89.592 90.9997 89.344C90.7517 89.088 90.4197 88.96 90.0037 88.96C89.5877 88.96 89.2517 89.084 88.9957 89.332C88.7477 89.572 88.6237 89.884 88.6237 90.268ZM91.8517 95.068C91.8517 94.836 91.7597 94.664 91.5757 94.552C91.3997 94.44 91.1637 94.384 90.8677 94.384H88.8037H88.6477C88.4637 94.432 88.3277 94.516 88.2397 94.636C88.1517 94.764 88.1077 94.904 88.1077 95.056C88.1077 95.376 88.2717 95.584 88.5997 95.68C88.9277 95.784 89.3917 95.836 89.9917 95.836C90.5997 95.836 91.0597 95.784 91.3717 95.68C91.6917 95.576 91.8517 95.372 91.8517 95.068ZM99.5905 88.108L96.8305 95.368C96.6305 95.896 96.3665 96.272 96.0385 96.496C95.7105 96.72 95.3425 96.832 94.9345 96.832C94.5265 96.832 94.0985 96.732 93.6505 96.532L94.0105 95.38C94.2905 95.564 94.5705 95.656 94.8505 95.656C95.2665 95.656 95.5665 95.42 95.7505 94.948L95.9785 94.348L93.4585 88.108H94.8025L96.5785 92.716L98.2585 88.108H99.5905Z" fill="white"/>
<path d="M70.0017 59C70.0017 59 89.0017 46 89.0017 35.4C89.2017 29.8 84.8017 25.2 79.2017 25C79.2017 25 79.2017 25 79.1017 25C75.0017 25.1 71.3017 27.8 70.0017 31.7C68.7017 27.7 65.0017 25.1 60.8017 25C55.3017 25.1 50.9017 29.8 51.0017 35.3C51.0017 45.8 70.0017 59 70.0017 59Z" stroke="#F2F2F2" stroke-width="2" stroke-linecap="round" stroke-linejoin="round"/>
<path d="M75.7018 41.1H71.9018V37.3H68.1018V41.1H64.3018V44.9H68.1018V48.7H71.9018V44.9H75.7018V41.1Z" stroke="#2779FF" stroke-width="2" stroke-linecap="round" stroke-linejoin="round"/>
</svg>
