<svg width="141" height="124" viewBox="0 0 141 124" fill="none" xmlns="http://www.w3.org/2000/svg">
<rect width="141" height="124" rx="6" fill="#1A1A1A"/>
<path d="M44.469 88.108C44.301 87.58 44.005 87.168 43.581 86.872C43.157 86.576 42.657 86.428 42.081 86.428C41.657 86.428 41.273 86.508 40.929 86.668C40.585 86.82 40.289 87.036 40.041 87.316C39.793 87.596 39.601 87.936 39.465 88.336C39.337 88.728 39.273 89.164 39.273 89.644C39.273 90.132 39.341 90.572 39.477 90.964C39.613 91.356 39.805 91.692 40.053 91.972C40.301 92.244 40.593 92.456 40.929 92.608C41.273 92.752 41.653 92.824 42.069 92.824C42.669 92.824 43.193 92.684 43.641 92.404C44.089 92.116 44.397 91.732 44.565 91.252L45.825 91.792C45.537 92.528 45.053 93.104 44.373 93.52C43.693 93.936 42.921 94.144 42.057 94.144C41.441 94.152 40.873 94.048 40.353 93.832C39.841 93.616 39.401 93.308 39.033 92.908C38.665 92.508 38.377 92.032 38.169 91.48C37.969 90.928 37.873 90.32 37.881 89.656C37.881 88.984 37.981 88.372 38.181 87.82C38.389 87.26 38.677 86.784 39.045 86.392C39.413 85.992 39.853 85.684 40.365 85.468C40.877 85.244 41.445 85.132 42.069 85.132C42.989 85.132 43.777 85.364 44.433 85.828C45.089 86.292 45.525 86.904 45.741 87.664L44.469 88.108ZM49.9069 88.024C50.1229 88.024 50.3469 88.052 50.5789 88.108V89.284C50.3629 89.228 50.1469 89.2 49.9309 89.2C49.4269 89.2 49.0349 89.356 48.7549 89.668C48.4829 89.98 48.3469 90.412 48.3469 90.964V94H47.0509V88.108H48.2389L48.3109 88.828C48.4309 88.564 48.6349 88.364 48.9229 88.228C49.2189 88.092 49.5469 88.024 49.9069 88.024ZM51.5367 86.044C51.5367 85.804 51.6167 85.604 51.7767 85.444C51.9447 85.276 52.1487 85.192 52.3887 85.192C52.6207 85.192 52.8167 85.276 52.9767 85.444C53.1447 85.604 53.2287 85.804 53.2287 86.044C53.2287 86.276 53.1447 86.476 52.9767 86.644C52.8167 86.804 52.6207 86.884 52.3887 86.884C52.1487 86.884 51.9447 86.804 51.7767 86.644C51.6167 86.476 51.5367 86.276 51.5367 86.044ZM53.0247 88.108V94H51.7527V88.108H53.0247ZM58.4138 86.044C58.4138 85.804 58.4938 85.604 58.6538 85.444C58.8138 85.276 59.0138 85.192 59.2538 85.192C59.4858 85.192 59.6818 85.276 59.8418 85.444C60.0098 85.604 60.0938 85.804 60.0938 86.044C60.0938 86.276 60.0098 86.476 59.8418 86.644C59.6818 86.804 59.4858 86.884 59.2538 86.884C59.0138 86.884 58.8138 86.804 58.6538 86.644C58.4938 86.476 58.4138 86.276 58.4138 86.044ZM59.8778 94H58.6058V89.164H56.4338V94H55.1738V89.164H54.0218V88.108H55.1738V86.26H56.4338V88.108H59.8778V94ZM64.1295 87.94C64.8015 87.94 65.3735 88.1 65.8455 88.42C66.3255 88.74 66.6535 89.176 66.8295 89.728L65.7255 90.172C65.6135 89.836 65.4135 89.572 65.1255 89.38C64.8375 89.188 64.5095 89.092 64.1415 89.092C63.6135 89.092 63.1935 89.268 62.8815 89.62C62.5695 89.972 62.4135 90.448 62.4135 91.048C62.4135 91.648 62.5695 92.124 62.8815 92.476C63.1935 92.82 63.6135 92.992 64.1415 92.992C64.5095 92.992 64.8375 92.9 65.1255 92.716C65.4135 92.532 65.6175 92.272 65.7375 91.936L66.8295 92.356C66.6295 92.916 66.2815 93.356 65.7855 93.676C65.2975 93.996 64.7415 94.156 64.1175 94.156C63.6695 94.156 63.2615 94.08 62.8935 93.928C62.5255 93.776 62.2095 93.564 61.9455 93.292C61.6895 93.02 61.4895 92.696 61.3455 92.32C61.2015 91.936 61.1295 91.512 61.1295 91.048C61.1295 90.576 61.2015 90.152 61.3455 89.776C61.4895 89.392 61.6935 89.064 61.9575 88.792C62.2215 88.52 62.5375 88.312 62.9055 88.168C63.2735 88.016 63.6815 87.94 64.1295 87.94ZM71.8075 94C71.7915 93.92 71.7755 93.82 71.7595 93.7C71.7435 93.58 71.7275 93.436 71.7115 93.268C71.5435 93.532 71.2955 93.748 70.9675 93.916C70.6395 94.076 70.2595 94.156 69.8275 94.156C69.1795 94.156 68.6595 93.988 68.2675 93.652C67.8835 93.308 67.6915 92.844 67.6915 92.26C67.6915 91.684 67.8835 91.232 68.2675 90.904C68.6595 90.576 69.1835 90.412 69.8395 90.412H71.6875V90.184C71.6875 89.768 71.5675 89.464 71.3275 89.272C71.0955 89.08 70.7755 88.984 70.3675 88.984C69.6395 88.984 69.1235 89.28 68.8195 89.872L67.8835 89.332C68.1235 88.852 68.4635 88.5 68.9035 88.276C69.3435 88.052 69.8515 87.94 70.4275 87.94C71.1555 87.94 71.7555 88.128 72.2275 88.504C72.6995 88.88 72.9355 89.488 72.9355 90.328V92.74C72.9355 93.388 72.9715 93.808 73.0435 94H71.8075ZM71.6875 91.312H70.1275C69.7595 91.312 69.4755 91.396 69.2755 91.564C69.0835 91.724 68.9875 91.952 68.9875 92.248C68.9875 92.552 69.0875 92.784 69.2875 92.944C69.4955 93.096 69.7795 93.172 70.1395 93.172C70.5795 93.172 70.9475 93.032 71.2435 92.752C71.5395 92.464 71.6875 92.032 71.6875 91.456V91.312ZM74.4033 85.12H75.6753V94H74.4033V85.12ZM83.1491 87.94C83.8211 87.94 84.3931 88.1 84.8651 88.42C85.3451 88.74 85.6731 89.176 85.8491 89.728L84.7451 90.172C84.6331 89.836 84.4331 89.572 84.1451 89.38C83.8571 89.188 83.5291 89.092 83.1611 89.092C82.6331 89.092 82.2131 89.268 81.9011 89.62C81.5891 89.972 81.4331 90.448 81.4331 91.048C81.4331 91.648 81.5891 92.124 81.9011 92.476C82.2131 92.82 82.6331 92.992 83.1611 92.992C83.5291 92.992 83.8571 92.9 84.1451 92.716C84.4331 92.532 84.6371 92.272 84.7571 91.936L85.8491 92.356C85.6491 92.916 85.3011 93.356 84.8051 93.676C84.3171 93.996 83.7611 94.156 83.1371 94.156C82.6891 94.156 82.2811 94.08 81.9131 93.928C81.5451 93.776 81.2291 93.564 80.9651 93.292C80.7091 93.02 80.5091 92.696 80.3651 92.32C80.2211 91.936 80.1491 91.512 80.1491 91.048C80.1491 90.576 80.2211 90.152 80.3651 89.776C80.5091 89.392 80.7131 89.064 80.9771 88.792C81.2411 88.52 81.5571 88.312 81.9251 88.168C82.2931 88.016 82.7011 87.94 83.1491 87.94ZM90.827 94C90.811 93.92 90.795 93.82 90.779 93.7C90.763 93.58 90.747 93.436 90.731 93.268C90.563 93.532 90.315 93.748 89.987 93.916C89.659 94.076 89.279 94.156 88.847 94.156C88.199 94.156 87.679 93.988 87.287 93.652C86.903 93.308 86.711 92.844 86.711 92.26C86.711 91.684 86.903 91.232 87.287 90.904C87.679 90.576 88.203 90.412 88.859 90.412H90.707V90.184C90.707 89.768 90.587 89.464 90.347 89.272C90.115 89.08 89.795 88.984 89.387 88.984C88.659 88.984 88.143 89.28 87.839 89.872L86.903 89.332C87.143 88.852 87.483 88.5 87.923 88.276C88.363 88.052 88.871 87.94 89.447 87.94C90.175 87.94 90.775 88.128 91.247 88.504C91.719 88.88 91.955 89.488 91.955 90.328V92.74C91.955 93.388 91.991 93.808 92.063 94H90.827ZM90.707 91.312H89.147C88.779 91.312 88.495 91.396 88.295 91.564C88.103 91.724 88.007 91.952 88.007 92.248C88.007 92.552 88.107 92.784 88.307 92.944C88.515 93.096 88.799 93.172 89.159 93.172C89.599 93.172 89.967 93.032 90.263 92.752C90.559 92.464 90.707 92.032 90.707 91.456V91.312ZM96.2429 88.024C96.4589 88.024 96.6829 88.052 96.9149 88.108V89.284C96.6989 89.228 96.4829 89.2 96.2669 89.2C95.7629 89.2 95.3709 89.356 95.0909 89.668C94.8189 89.98 94.6829 90.412 94.6829 90.964V94H93.3869V88.108H94.5749L94.6469 88.828C94.7669 88.564 94.9709 88.364 95.2589 88.228C95.5549 88.092 95.8829 88.024 96.2429 88.024ZM103.184 91.552H98.5876C98.6356 92.056 98.8156 92.432 99.1276 92.68C99.4476 92.928 99.8356 93.052 100.292 93.052C100.676 93.052 101 92.968 101.264 92.8C101.528 92.624 101.736 92.384 101.888 92.08L102.956 92.512C102.732 93.04 102.38 93.448 101.9 93.736C101.428 94.016 100.888 94.156 100.28 94.156C99.8476 94.156 99.4516 94.084 99.0916 93.94C98.7396 93.788 98.4356 93.576 98.1796 93.304C97.9236 93.032 97.7236 92.708 97.5796 92.332C97.4436 91.948 97.3756 91.524 97.3756 91.06C97.3756 90.604 97.4436 90.184 97.5796 89.8C97.7236 89.416 97.9236 89.088 98.1796 88.816C98.4356 88.536 98.7436 88.32 99.1036 88.168C99.4636 88.016 99.8636 87.94 100.304 87.94C100.736 87.94 101.128 88.016 101.48 88.168C101.84 88.312 102.144 88.52 102.392 88.792C102.648 89.064 102.844 89.392 102.98 89.776C103.116 90.152 103.184 90.576 103.184 91.048V91.552ZM101.888 90.64C101.856 90.104 101.7 89.7 101.42 89.428C101.14 89.148 100.76 89.008 100.28 89.008C99.7996 89.008 99.4116 89.148 99.1156 89.428C98.8276 89.708 98.6556 90.112 98.5996 90.64H101.888Z" fill="white"/>
<path d="M68 40.5L69.9 44L71.9 40.5" stroke="#2779FF" stroke-width="2" stroke-linecap="round" stroke-linejoin="round"/>
<path d="M71.9 40.5H76.3L79.1 35.6L81.9 40.5H85.1" stroke="#2779FF" stroke-width="2" stroke-linecap="round" stroke-linejoin="round"/>
<path d="M68 40.5H63.6L60.8 32.6L58 40.5H54.7" stroke="#2779FF" stroke-width="2" stroke-linecap="round" stroke-linejoin="round"/>
<path d="M73.7999 55.4H66.2V60.1H73.7999V55.4Z" stroke="#F2F2F2" stroke-width="2" stroke-linecap="round" stroke-linejoin="round"/>
<path d="M89 51.6V55.4H51V51.6" stroke="#F2F2F2" stroke-width="2" stroke-linecap="round" stroke-linejoin="round"/>
<path d="M89 25H51V51.6H89V25Z" stroke="#F2F2F2" stroke-width="2" stroke-linecap="round" stroke-linejoin="round"/>
<path d="M85.0999 28.8H54.7V47.8H85.0999V28.8Z" stroke="#F2F2F2" stroke-width="2" stroke-linecap="round" stroke-linejoin="round"/>
<path d="M63.4 63C63.4 61.4 64.7 60.2 66.3 60.2H73.9C75.5 60.2 76.7 61.5 76.7 63H63.4Z" stroke="#F2F2F2" stroke-width="2" stroke-linecap="round" stroke-linejoin="round"/>
</svg>
