<svg width="141" height="124" viewBox="0 0 141 124" fill="none" xmlns="http://www.w3.org/2000/svg">
<rect width="141" height="124" rx="6" fill="#1A1A1A"/>
<path d="M69.1517 59L68.6817 54.16C68.5833 53.1028 68.211 52.0895 67.6017 51.22L65.4917 48.22C64.7294 47.1144 64.3758 45.7779 64.4917 44.44L64.9617 40.83C65.1173 39.6459 64.8052 38.4478 64.0917 37.49L62.7717 35.82C62.1138 34.9248 61.763 33.8409 61.7717 32.73V29" stroke="#F2F2F2" stroke-width="2" stroke-linecap="round" stroke-linejoin="round"/>
<path d="M55.0517 33.57L52.7717 31.25C52.2439 30.6236 51.9696 29.8223 52.0027 29.0039C52.0358 28.1854 52.374 27.4089 52.9507 26.8272C53.5274 26.2455 54.3009 25.9006 55.119 25.8604C55.9372 25.8202 56.7408 26.0876 57.3717 26.61C57.3717 26.61 59.2417 29 61.6717 29C64.4317 29 65.0817 25 70.7717 25" stroke="#F2F2F2" stroke-width="2" stroke-linecap="round" stroke-linejoin="round"/>
<path d="M72.3917 59L72.8617 54.16C72.9602 53.1028 73.3324 52.0895 73.9417 51.22L76.0517 48.22C76.8141 47.1144 77.1676 45.7779 77.0517 44.44L76.5817 40.83C76.4262 39.6459 76.7382 38.4478 77.4517 37.49L78.7717 35.82C79.4296 34.9248 79.7804 33.8409 79.7717 32.73V29" stroke="#F2F2F2" stroke-width="2" stroke-linecap="round" stroke-linejoin="round"/>
<path d="M86.4917 33.57L88.7717 31.25C89.2996 30.6236 89.5739 29.8223 89.5408 29.0039C89.5077 28.1854 89.1695 27.4089 88.5928 26.8272C88.0161 26.2455 87.2426 25.9006 86.4244 25.8604C85.6063 25.8202 84.8027 26.0876 84.1717 26.61C84.1717 26.61 82.3017 29 79.8717 29C77.1117 29 76.4617 25 70.7717 25" stroke="#F2F2F2" stroke-width="2" stroke-linecap="round" stroke-linejoin="round"/>
<path d="M56.8217 37.83C58.2024 37.83 59.3217 36.7107 59.3217 35.33C59.3217 33.9493 58.2024 32.83 56.8217 32.83C55.441 32.83 54.3217 33.9493 54.3217 35.33C54.3217 36.7107 55.441 37.83 56.8217 37.83Z" stroke="#0076FF" stroke-width="2" stroke-linecap="round" stroke-linejoin="round"/>
<path d="M84.7217 37.83C86.1025 37.83 87.2217 36.7107 87.2217 35.33C87.2217 33.9493 86.1025 32.83 84.7217 32.83C83.341 32.83 82.2217 33.9493 82.2217 35.33C82.2217 36.7107 83.341 37.83 84.7217 37.83Z" stroke="#0076FF" stroke-width="2" stroke-linecap="round" stroke-linejoin="round"/>
<path d="M53.834 85.132C54.45 85.124 55.018 85.232 55.538 85.456C56.058 85.68 56.502 85.996 56.87 86.404C57.246 86.804 57.538 87.28 57.746 87.832C57.954 88.384 58.054 88.984 58.046 89.632C58.054 90.28 57.954 90.884 57.746 91.444C57.538 91.996 57.246 92.476 56.87 92.884C56.502 93.284 56.058 93.596 55.538 93.82C55.018 94.044 54.45 94.152 53.834 94.144C53.218 94.152 52.65 94.044 52.13 93.82C51.618 93.596 51.174 93.284 50.798 92.884C50.422 92.476 50.13 91.996 49.922 91.444C49.722 90.892 49.626 90.292 49.634 89.644C49.626 88.996 49.722 88.396 49.922 87.844C50.13 87.292 50.422 86.816 50.798 86.416C51.174 86.008 51.618 85.692 52.13 85.468C52.65 85.236 53.218 85.124 53.834 85.132ZM53.846 92.836C54.27 92.836 54.654 92.76 54.998 92.608C55.342 92.456 55.638 92.24 55.886 91.96C56.134 91.68 56.322 91.344 56.45 90.952C56.586 90.552 56.654 90.112 56.654 89.632C56.654 89.152 56.586 88.716 56.45 88.324C56.322 87.924 56.134 87.584 55.886 87.304C55.638 87.024 55.342 86.808 54.998 86.656C54.654 86.504 54.27 86.428 53.846 86.428C53.422 86.428 53.038 86.504 52.694 86.656C52.35 86.808 52.054 87.024 51.806 87.304C51.558 87.584 51.366 87.924 51.23 88.324C51.102 88.716 51.038 89.152 51.038 89.632C51.038 90.112 51.102 90.552 51.23 90.952C51.366 91.344 51.558 91.68 51.806 91.96C52.054 92.24 52.35 92.456 52.694 92.608C53.038 92.76 53.422 92.836 53.846 92.836ZM65.8253 91.708C65.8253 92.068 65.7573 92.392 65.6213 92.68C65.4933 92.96 65.3053 93.2 65.0573 93.4C64.8173 93.592 64.5253 93.74 64.1813 93.844C63.8453 93.948 63.4653 94 63.0413 94H60.3413H59.5373V85.288H60.8453H63.0053C63.4293 85.288 63.8093 85.348 64.1453 85.468C64.4813 85.58 64.7653 85.74 64.9973 85.948C65.2293 86.156 65.4053 86.404 65.5253 86.692C65.6533 86.98 65.7173 87.296 65.7173 87.64C65.7173 88.12 65.6053 88.532 65.3813 88.876C65.1653 89.212 64.8773 89.468 64.5173 89.644C64.9013 89.828 65.2133 90.096 65.4533 90.448C65.7013 90.8 65.8253 91.22 65.8253 91.708ZM60.8453 86.44V89.14H62.9213C63.4013 89.14 63.7693 89.016 64.0253 88.768C64.2813 88.52 64.4093 88.204 64.4093 87.82C64.4093 87.412 64.2773 87.08 64.0133 86.824C63.7493 86.568 63.3773 86.44 62.8973 86.44H60.8453ZM64.5173 91.54C64.5173 91.108 64.3813 90.772 64.1093 90.532C63.8373 90.292 63.4733 90.172 63.0173 90.172H60.8453V92.848H63.0173C63.4733 92.848 63.8373 92.732 64.1093 92.5C64.3813 92.268 64.5173 91.948 64.5173 91.54ZM74.902 89.068V94H73.738L73.678 92.944C73.406 93.328 73.018 93.624 72.514 93.832C72.018 94.032 71.482 94.132 70.906 94.132C70.306 94.132 69.754 94.024 69.25 93.808C68.754 93.584 68.326 93.276 67.966 92.884C67.606 92.484 67.326 92.012 67.126 91.468C66.934 90.916 66.838 90.316 66.838 89.668C66.838 89.004 66.938 88.396 67.138 87.844C67.346 87.284 67.634 86.804 68.002 86.404C68.378 85.996 68.826 85.68 69.346 85.456C69.874 85.232 70.458 85.12 71.098 85.12C72.01 85.12 72.79 85.332 73.438 85.756C74.094 86.18 74.55 86.756 74.806 87.484L73.606 87.976C73.406 87.44 73.082 87.04 72.634 86.776C72.194 86.512 71.686 86.38 71.11 86.38C70.662 86.38 70.258 86.46 69.898 86.62C69.538 86.78 69.23 87.004 68.974 87.292C68.726 87.58 68.534 87.928 68.398 88.336C68.262 88.744 68.194 89.196 68.194 89.692C68.194 90.196 68.262 90.644 68.398 91.036C68.542 91.428 68.738 91.764 68.986 92.044C69.234 92.316 69.53 92.524 69.874 92.668C70.226 92.812 70.606 92.884 71.014 92.884C71.654 92.884 72.23 92.728 72.742 92.416C73.262 92.096 73.566 91.556 73.654 90.796V90.244H70.858V89.068H74.902ZM77.0009 85.276L79.1489 89.176L81.2969 85.276H82.7489L79.8089 90.46V94H78.4649V90.46L75.4889 85.276H77.0009ZM90.8371 85.276V94H89.5051L85.2091 87.424V94H83.8771V85.276H85.2091L89.5051 91.864V85.276H90.8371Z" fill="white"/>
</svg>
