<svg width="141" height="124" viewBox="0 0 141 124" fill="none" xmlns="http://www.w3.org/2000/svg">
<rect width="141" height="124" rx="6" fill="#1A1A1A"/>
<path d="M66.6828 85.288V94H65.3628V88.276L63.0708 94H61.7988L59.5068 88.3V94H58.2228V85.276H59.5068L62.4348 92.44L65.3628 85.276L66.6828 85.288ZM71.2311 85.12C72.0311 85.12 72.6911 85.312 73.2111 85.696C73.7311 86.08 74.0511 86.596 74.1711 87.244L72.8991 87.592C72.8191 87.184 72.6311 86.876 72.3351 86.668C72.0391 86.452 71.6631 86.344 71.2071 86.344C70.7191 86.344 70.3311 86.464 70.0431 86.704C69.7631 86.936 69.6231 87.244 69.6231 87.628C69.6231 87.94 69.7191 88.196 69.9111 88.396C70.1111 88.588 70.3911 88.728 70.7511 88.816L72.1911 89.188C72.9351 89.372 73.4831 89.668 73.8351 90.076C74.1871 90.484 74.3631 90.988 74.3631 91.588C74.3631 91.964 74.2911 92.312 74.1471 92.632C74.0031 92.944 73.7991 93.216 73.5351 93.448C73.2711 93.672 72.9471 93.848 72.5631 93.976C72.1871 94.096 71.7631 94.156 71.2911 94.156C70.4351 94.156 69.7271 93.96 69.1671 93.568C68.5911 93.168 68.2511 92.628 68.1471 91.948L69.4191 91.612C69.4751 92.02 69.6711 92.34 70.0071 92.572C70.3511 92.796 70.7911 92.908 71.3271 92.908C71.8551 92.908 72.2711 92.796 72.5751 92.572C72.8791 92.348 73.0311 92.04 73.0311 91.648C73.0311 91.04 72.6551 90.636 71.9031 90.436L70.4631 90.088C69.7191 89.912 69.1711 89.616 68.8191 89.2C68.4671 88.784 68.2911 88.276 68.2911 87.676C68.2911 87.3 68.3591 86.956 68.4951 86.644C68.6391 86.324 68.8391 86.052 69.0951 85.828C69.3591 85.604 69.6711 85.432 70.0311 85.312C70.3911 85.184 70.7911 85.12 71.2311 85.12ZM79.3164 89.416L82.5204 94H80.8044L78.4764 90.472L77.1684 92.104V94.024H75.8244V85.276H77.1684V90.028L80.9004 85.276H82.6164L79.3164 89.416Z" fill="white"/>
<path d="M72.7 63V55.7C72.8 54.1 73.5 52.6 74.7 51.6C76 50.4 76 48.3 74.8 47C73.6 45.7 71.5 45.7 70.2 46.9C68.9 45.7 66.8 45.7 65.6 47C64.4 48.3 64.4 50.4 65.7 51.6C66.9 52.6 67.6 54.1 67.7 55.7V63" stroke="#F2F2F2" stroke-width="2" stroke-linecap="round" stroke-linejoin="round"/>
<path d="M67.7 25V32.3C67.6 33.9 66.9 35.4 65.7 36.4C64.9 37.2 64.5 38.3 64.7 39.4C65 40.7 65.9 41.7 67.2 42C68.3 42.2 69.4 41.9 70.2 41.1C71 41.9 72.1 42.2 73.1 42C74.4 41.7 75.4 40.7 75.6 39.4C75.8 38.3 75.4 37.2 74.6 36.4C73.4 35.4 72.7 33.9 72.6 32.3V25" stroke="#F2F2F2" stroke-width="2" stroke-linecap="round" stroke-linejoin="round"/>
<path d="M80.4 44H86.4" stroke="#2779FF" stroke-width="2" stroke-linecap="round" stroke-linejoin="round"/>
<path d="M54 44H60" stroke="#2779FF" stroke-width="2" stroke-linecap="round" stroke-linejoin="round"/>
<path d="M80.4 40.7L83.2 37.8" stroke="#F2F2F2" stroke-width="2" stroke-linecap="round" stroke-linejoin="round"/>
<path d="M60 40.7L57.2 37.8" stroke="#F2F2F2" stroke-width="2" stroke-linecap="round" stroke-linejoin="round"/>
<path d="M80.4 47.3L83.2 50.2" stroke="#F2F2F2" stroke-width="2" stroke-linecap="round" stroke-linejoin="round"/>
<path d="M60 47.3L57.2 50.2" stroke="#F2F2F2" stroke-width="2" stroke-linecap="round" stroke-linejoin="round"/>
</svg>
