<svg width="141" height="124" viewBox="0 0 141 124" fill="none" xmlns="http://www.w3.org/2000/svg">
<rect width="141" height="124" rx="6" fill="#1A1A1A"/>
<path d="M89.6814 41.4602C89.828 41.4602 89.9469 41.3413 89.9469 41.1947C89.9469 41.0481 89.828 40.9292 89.6814 40.9292C89.5348 40.9292 89.4159 41.0481 89.4159 41.1947C89.4159 41.3413 89.5348 41.4602 89.6814 41.4602Z" stroke="white" stroke-width="2" stroke-linecap="round" stroke-linejoin="round"/>
<path d="M93 25H50.5221V57.3894H93V25Z" stroke="white" stroke-width="1.6" stroke-linecap="round" stroke-linejoin="round"/>
<path d="M86.3628 29.2478H54.5044V53.1416H86.3628V29.2478Z" stroke="white" stroke-width="1.6" stroke-linecap="round" stroke-linejoin="round"/>
<path d="M77.2035 38.9381H72.6903V34.4248C72.6903 34.1593 72.4248 33.8938 72.1593 33.8938H68.8407C68.5752 33.8938 68.3097 34.1593 68.3097 34.4248V38.9381H63.7965C63.531 38.9381 63.2655 39.2035 63.2655 39.469V42.7876C63.2655 43.0531 63.531 43.3186 63.7965 43.3186H68.3097V47.8319C68.3097 48.0973 68.5752 48.3628 68.8407 48.3628H72.1593C72.4248 48.3628 72.6903 48.0973 72.6903 47.8319V43.3186H77.2035C77.469 43.3186 77.7345 43.0531 77.7345 42.7876V39.469C77.7345 39.2035 77.469 38.9381 77.2035 38.9381Z" stroke="#2779FF" stroke-width="2.12389" stroke-linecap="round" stroke-linejoin="round"/>
<path d="M54.5044 59.646C58.0967 59.646 61.0088 56.7339 61.0088 53.1416C61.0088 49.5493 58.0967 46.6372 54.5044 46.6372C50.9121 46.6372 48 49.5493 48 53.1416C48 56.7339 50.9121 59.646 54.5044 59.646Z" fill="#1A1A1A"/>
<path d="M59 52.8774C59 55.4245 56.9796 57.5 54.5 57.5C52.0204 57.5 50 55.4245 50 52.8774V52.5C51.102 52.5 51.102 53.2547 52.2041 53.2547C53.3061 53.2547 53.3061 52.5 54.4082 52.5C55.5102 52.5 55.5102 53.2547 56.6122 53.2547C57.7143 53.2547 57.7143 52.5 58.8163 52.5H59V52.8774Z" fill="#2779FF"/>
<path d="M54.5044 59.646C58.0967 59.646 61.0088 56.7339 61.0088 53.1416C61.0088 49.5493 58.0967 46.6372 54.5044 46.6372C50.9121 46.6372 48 49.5493 48 53.1416C48 56.7339 50.9121 59.646 54.5044 59.646Z" stroke="white" stroke-width="1.6" stroke-linecap="round" stroke-linejoin="round"/>
<path d="M57.3039 85.276V94H55.9719L51.6759 87.424V94H50.3439V85.276H51.6759L55.9719 91.864V85.276H57.3039ZM63.3648 94C63.3168 93.808 63.2808 93.572 63.2568 93.292C63.0888 93.572 62.8488 93.788 62.5368 93.94C62.2248 94.084 61.8648 94.156 61.4568 94.156C60.8008 94.156 60.2368 93.964 59.7648 93.58C59.2928 93.18 59.0568 92.544 59.0568 91.672V88.096H60.3408V91.456C60.3408 92.04 60.4768 92.444 60.7488 92.668C61.0288 92.9 61.3528 93.016 61.7208 93.016C61.9288 93.016 62.1208 92.984 62.2968 92.92C62.4808 92.848 62.6408 92.744 62.7768 92.608C62.9208 92.472 63.0328 92.304 63.1128 92.104C63.1928 91.904 63.2328 91.672 63.2328 91.408V88.108H64.5168V92.92C64.5168 93.08 64.5248 93.268 64.5408 93.484C64.5648 93.692 64.5928 93.864 64.6248 94H63.3648ZM68.9558 88.024C69.1718 88.024 69.3958 88.052 69.6278 88.108V89.284C69.4118 89.228 69.1958 89.2 68.9798 89.2C68.4758 89.2 68.0838 89.356 67.8038 89.668C67.5318 89.98 67.3958 90.412 67.3958 90.964V94H66.0998V88.108H67.2878L67.3598 88.828C67.4798 88.564 67.6838 88.364 67.9718 88.228C68.2678 88.092 68.5958 88.024 68.9558 88.024ZM72.486 93.124C72.79 93.124 73.038 93.064 73.23 92.944C73.43 92.816 73.53 92.62 73.53 92.356C73.53 91.996 73.298 91.764 72.834 91.66L71.994 91.432C70.898 91.128 70.35 90.564 70.35 89.74C70.35 89.476 70.398 89.236 70.494 89.02C70.598 88.796 70.742 88.604 70.926 88.444C71.11 88.284 71.334 88.16 71.598 88.072C71.862 87.984 72.158 87.94 72.486 87.94C73.07 87.94 73.562 88.072 73.962 88.336C74.362 88.592 74.602 88.96 74.682 89.44L73.542 89.716C73.51 89.484 73.398 89.304 73.206 89.176C73.022 89.04 72.794 88.972 72.522 88.972C72.242 88.972 72.014 89.04 71.838 89.176C71.67 89.312 71.586 89.492 71.586 89.716C71.586 89.908 71.65 90.064 71.778 90.184C71.906 90.296 72.102 90.384 72.366 90.448L73.194 90.664C73.722 90.8 74.122 91.016 74.394 91.312C74.666 91.6 74.802 91.952 74.802 92.368C74.802 92.92 74.598 93.356 74.19 93.676C73.79 93.996 73.226 94.156 72.498 94.156C71.818 94.156 71.282 94.008 70.89 93.712C70.498 93.416 70.266 93.024 70.194 92.536L71.346 92.332C71.378 92.572 71.49 92.764 71.682 92.908C71.882 93.052 72.15 93.124 72.486 93.124ZM75.8472 86.044C75.8472 85.804 75.9272 85.604 76.0872 85.444C76.2552 85.276 76.4592 85.192 76.6992 85.192C76.9312 85.192 77.1272 85.276 77.2872 85.444C77.4552 85.604 77.5392 85.804 77.5392 86.044C77.5392 86.276 77.4552 86.476 77.2872 86.644C77.1272 86.804 76.9312 86.884 76.6992 86.884C76.4592 86.884 76.2552 86.804 76.0872 86.644C75.9272 86.476 75.8472 86.276 75.8472 86.044ZM77.3352 88.108V94H76.0632V88.108H77.3352ZM84.3683 90.376V94H83.0963V90.628C83.0963 90.052 82.9603 89.652 82.6883 89.428C82.4163 89.204 82.1003 89.092 81.7403 89.092C81.5323 89.092 81.3363 89.128 81.1523 89.2C80.9683 89.264 80.8043 89.364 80.6603 89.5C80.5243 89.636 80.4163 89.804 80.3363 90.004C80.2563 90.204 80.2163 90.436 80.2163 90.7V94H78.9443V88.108H80.1323L80.1803 88.792C80.3483 88.528 80.5923 88.32 80.9123 88.168C81.2323 88.016 81.5963 87.94 82.0043 87.94C82.7323 87.94 83.3083 88.148 83.7323 88.564C84.1563 88.972 84.3683 89.576 84.3683 90.376ZM91.4373 95.056C91.4373 95.736 91.1373 96.212 90.5373 96.484C89.9533 96.772 89.1933 96.916 88.2573 96.916C87.3693 96.916 86.6613 96.796 86.1333 96.556C85.6133 96.316 85.3533 95.924 85.3533 95.38C85.3533 95.1 85.4253 94.848 85.5693 94.624C85.7213 94.408 85.9253 94.248 86.1813 94.144C85.7973 93.912 85.6053 93.564 85.6053 93.1C85.6053 92.868 85.6693 92.64 85.7973 92.416C85.9333 92.184 86.1453 92.012 86.4333 91.9C86.2093 91.7 86.0373 91.464 85.9173 91.192C85.7973 90.92 85.7373 90.616 85.7373 90.28C85.7373 89.936 85.8013 89.62 85.9293 89.332C86.0573 89.044 86.2373 88.8 86.4693 88.6C86.7013 88.392 86.9773 88.232 87.2973 88.12C87.6173 88 87.9733 87.94 88.3653 87.94C88.8933 87.94 89.3533 88.04 89.7453 88.24C89.8813 87.992 90.0693 87.796 90.3093 87.652C90.5573 87.508 90.8493 87.436 91.1853 87.436C91.2893 87.436 91.3573 87.44 91.3893 87.448V88.504C91.3573 88.496 91.2893 88.492 91.1853 88.492C90.8653 88.492 90.6133 88.584 90.4293 88.768C90.7893 89.16 90.9693 89.66 90.9693 90.268C90.9693 90.612 90.9053 90.928 90.7773 91.216C90.6573 91.496 90.4813 91.74 90.2493 91.948C90.0253 92.148 89.7533 92.308 89.4333 92.428C89.1133 92.54 88.7613 92.596 88.3773 92.596C87.9853 92.596 87.6093 92.528 87.2493 92.392C86.8573 92.408 86.6613 92.572 86.6613 92.884C86.6613 93.004 86.7093 93.112 86.8053 93.208C86.9093 93.296 87.0733 93.34 87.2973 93.34H89.4093C90.0573 93.34 90.5573 93.492 90.9093 93.796C91.2613 94.1 91.4373 94.52 91.4373 95.056ZM86.9733 90.268C86.9733 90.652 87.0973 90.968 87.3453 91.216C87.6013 91.456 87.9373 91.576 88.3533 91.576C88.7853 91.568 89.1213 91.444 89.3613 91.204C89.6093 90.956 89.7333 90.652 89.7333 90.292C89.7333 89.908 89.6053 89.592 89.3493 89.344C89.1013 89.088 88.7693 88.96 88.3533 88.96C87.9373 88.96 87.6013 89.084 87.3453 89.332C87.0973 89.572 86.9733 89.884 86.9733 90.268ZM90.2013 95.068C90.2013 94.836 90.1093 94.664 89.9253 94.552C89.7493 94.44 89.5133 94.384 89.2173 94.384H87.1533H86.9973C86.8133 94.432 86.6773 94.516 86.5893 94.636C86.5013 94.764 86.4573 94.904 86.4573 95.056C86.4573 95.376 86.6213 95.584 86.9493 95.68C87.2773 95.784 87.7413 95.836 88.3413 95.836C88.9493 95.836 89.4093 95.784 89.7213 95.68C90.0413 95.576 90.2013 95.372 90.2013 95.068Z" fill="white"/>
</svg>
