<svg width="141" height="124" viewBox="0 0 141 124" fill="none" xmlns="http://www.w3.org/2000/svg">
<rect width="141" height="124" rx="6" fill="#1A1A1A"/>
<path d="M70 63C80.4934 63 89 54.4934 89 44C89 33.5066 80.4934 25 70 25C59.5066 25 51 33.5066 51 44C51 54.4934 59.5066 63 70 63Z" stroke="#F2F2F2" stroke-width="2" stroke-linejoin="round"/>
<path d="M80.6 40.5999L78.2 36.5999L72.3 39.9999V33.0999H67.7V39.9999L61.8 36.5999L59.4 40.5999L65.4 43.9999L59.4 47.3999L61.8 51.3999L67.7 47.9999V54.8999H72.3V47.9999L78.2 51.3999L80.6 47.3999L74.6 43.9999L80.6 40.5999Z" stroke="#0077FF" stroke-width="2" stroke-linecap="round" stroke-linejoin="round"/>
<path d="M18.4462 92.74V94H13.0822V85.276H18.4462V86.548H14.4142V89.02H18.0382V90.196H14.4142V92.74H18.4462ZM28.8721 90.232V94H27.6361V90.424C27.6361 89.984 27.5241 89.644 27.3001 89.404C27.0841 89.164 26.7841 89.044 26.4001 89.044C25.9921 89.044 25.6641 89.176 25.4161 89.44C25.1761 89.704 25.0561 90.068 25.0561 90.532V94H23.8081V90.424C23.8081 89.984 23.6961 89.644 23.4721 89.404C23.2561 89.164 22.9561 89.044 22.5721 89.044C22.1641 89.044 21.8361 89.176 21.5881 89.44C21.3481 89.704 21.2281 90.068 21.2281 90.532V94H19.9561V88.108H21.1321L21.1921 88.696C21.3601 88.448 21.5881 88.26 21.8761 88.132C22.1721 87.996 22.5041 87.928 22.8721 87.928C23.3281 87.928 23.7161 88.024 24.0361 88.216C24.3641 88.408 24.6161 88.684 24.7921 89.044C24.9361 88.7 25.1761 88.428 25.5121 88.228C25.8481 88.028 26.2481 87.928 26.7121 87.928C27.3601 87.928 27.8801 88.132 28.2721 88.54C28.6721 88.94 28.8721 89.504 28.8721 90.232ZM35.8575 91.552H31.2615C31.3095 92.056 31.4895 92.432 31.8015 92.68C32.1215 92.928 32.5095 93.052 32.9655 93.052C33.3495 93.052 33.6735 92.968 33.9375 92.8C34.2015 92.624 34.4095 92.384 34.5615 92.08L35.6295 92.512C35.4055 93.04 35.0535 93.448 34.5735 93.736C34.1015 94.016 33.5615 94.156 32.9535 94.156C32.5215 94.156 32.1255 94.084 31.7655 93.94C31.4135 93.788 31.1095 93.576 30.8535 93.304C30.5975 93.032 30.3975 92.708 30.2535 92.332C30.1175 91.948 30.0495 91.524 30.0495 91.06C30.0495 90.604 30.1175 90.184 30.2535 89.8C30.3975 89.416 30.5975 89.088 30.8535 88.816C31.1095 88.536 31.4175 88.32 31.7775 88.168C32.1375 88.016 32.5375 87.94 32.9775 87.94C33.4095 87.94 33.8015 88.016 34.1535 88.168C34.5135 88.312 34.8175 88.52 35.0655 88.792C35.3215 89.064 35.5175 89.392 35.6535 89.776C35.7895 90.152 35.8575 90.576 35.8575 91.048V91.552ZM34.5615 90.64C34.5295 90.104 34.3735 89.7 34.0935 89.428C33.8135 89.148 33.4335 89.008 32.9535 89.008C32.4735 89.008 32.0855 89.148 31.7895 89.428C31.5015 89.708 31.3295 90.112 31.2735 90.64H34.5615ZM39.9089 88.024C40.1249 88.024 40.3489 88.052 40.5809 88.108V89.284C40.3649 89.228 40.1489 89.2 39.9329 89.2C39.4289 89.2 39.0369 89.356 38.7569 89.668C38.4849 89.98 38.3489 90.412 38.3489 90.964V94H37.0529V88.108H38.2409L38.3129 88.828C38.4329 88.564 38.6369 88.364 38.9249 88.228C39.2209 88.092 39.5489 88.024 39.9089 88.024ZM47.1326 95.056C47.1326 95.736 46.8326 96.212 46.2326 96.484C45.6486 96.772 44.8886 96.916 43.9526 96.916C43.0646 96.916 42.3566 96.796 41.8286 96.556C41.3086 96.316 41.0486 95.924 41.0486 95.38C41.0486 95.1 41.1206 94.848 41.2646 94.624C41.4166 94.408 41.6206 94.248 41.8766 94.144C41.4926 93.912 41.3006 93.564 41.3006 93.1C41.3006 92.868 41.3646 92.64 41.4926 92.416C41.6286 92.184 41.8406 92.012 42.1286 91.9C41.9046 91.7 41.7326 91.464 41.6126 91.192C41.4926 90.92 41.4326 90.616 41.4326 90.28C41.4326 89.936 41.4966 89.62 41.6246 89.332C41.7526 89.044 41.9326 88.8 42.1646 88.6C42.3966 88.392 42.6726 88.232 42.9926 88.12C43.3126 88 43.6686 87.94 44.0606 87.94C44.5886 87.94 45.0486 88.04 45.4406 88.24C45.5766 87.992 45.7646 87.796 46.0046 87.652C46.2526 87.508 46.5446 87.436 46.8806 87.436C46.9846 87.436 47.0526 87.44 47.0846 87.448V88.504C47.0526 88.496 46.9846 88.492 46.8806 88.492C46.5606 88.492 46.3086 88.584 46.1246 88.768C46.4846 89.16 46.6646 89.66 46.6646 90.268C46.6646 90.612 46.6006 90.928 46.4726 91.216C46.3526 91.496 46.1766 91.74 45.9446 91.948C45.7206 92.148 45.4486 92.308 45.1286 92.428C44.8086 92.54 44.4566 92.596 44.0726 92.596C43.6806 92.596 43.3046 92.528 42.9446 92.392C42.5526 92.408 42.3566 92.572 42.3566 92.884C42.3566 93.004 42.4046 93.112 42.5006 93.208C42.6046 93.296 42.7686 93.34 42.9926 93.34H45.1046C45.7526 93.34 46.2526 93.492 46.6046 93.796C46.9566 94.1 47.1326 94.52 47.1326 95.056ZM42.6686 90.268C42.6686 90.652 42.7926 90.968 43.0406 91.216C43.2966 91.456 43.6326 91.576 44.0486 91.576C44.4806 91.568 44.8166 91.444 45.0566 91.204C45.3046 90.956 45.4286 90.652 45.4286 90.292C45.4286 89.908 45.3006 89.592 45.0446 89.344C44.7966 89.088 44.4646 88.96 44.0486 88.96C43.6326 88.96 43.2966 89.084 43.0406 89.332C42.7926 89.572 42.6686 89.884 42.6686 90.268ZM45.8966 95.068C45.8966 94.836 45.8046 94.664 45.6206 94.552C45.4446 94.44 45.2086 94.384 44.9126 94.384H42.8486H42.6926C42.5086 94.432 42.3726 94.516 42.2846 94.636C42.1966 94.764 42.1526 94.904 42.1526 95.056C42.1526 95.376 42.3166 95.584 42.6446 95.68C42.9726 95.784 43.4366 95.836 44.0366 95.836C44.6446 95.836 45.1046 95.784 45.4166 95.68C45.7366 95.576 45.8966 95.372 45.8966 95.068ZM53.5645 91.552H48.9685C49.0165 92.056 49.1965 92.432 49.5085 92.68C49.8285 92.928 50.2165 93.052 50.6725 93.052C51.0565 93.052 51.3805 92.968 51.6445 92.8C51.9085 92.624 52.1165 92.384 52.2685 92.08L53.3365 92.512C53.1125 93.04 52.7605 93.448 52.2805 93.736C51.8085 94.016 51.2685 94.156 50.6605 94.156C50.2285 94.156 49.8325 94.084 49.4725 93.94C49.1205 93.788 48.8165 93.576 48.5605 93.304C48.3045 93.032 48.1045 92.708 47.9605 92.332C47.8245 91.948 47.7565 91.524 47.7565 91.06C47.7565 90.604 47.8245 90.184 47.9605 89.8C48.1045 89.416 48.3045 89.088 48.5605 88.816C48.8165 88.536 49.1245 88.32 49.4845 88.168C49.8445 88.016 50.2445 87.94 50.6845 87.94C51.1165 87.94 51.5085 88.016 51.8605 88.168C52.2205 88.312 52.5245 88.52 52.7725 88.792C53.0285 89.064 53.2245 89.392 53.3605 89.776C53.4965 90.152 53.5645 90.576 53.5645 91.048V91.552ZM52.2685 90.64C52.2365 90.104 52.0805 89.7 51.8005 89.428C51.5205 89.148 51.1405 89.008 50.6605 89.008C50.1805 89.008 49.7925 89.148 49.4965 89.428C49.2085 89.708 49.0365 90.112 48.9805 90.64H52.2685ZM60.2199 90.376V94H58.9479V90.628C58.9479 90.052 58.8119 89.652 58.5399 89.428C58.2679 89.204 57.9519 89.092 57.5919 89.092C57.3839 89.092 57.1879 89.128 57.0039 89.2C56.8199 89.264 56.6559 89.364 56.5119 89.5C56.3759 89.636 56.2679 89.804 56.1879 90.004C56.1079 90.204 56.0679 90.436 56.0679 90.7V94H54.7959V88.108H55.9839L56.0319 88.792C56.1999 88.528 56.4439 88.32 56.7639 88.168C57.0839 88.016 57.4479 87.94 57.8559 87.94C58.5839 87.94 59.1599 88.148 59.5839 88.564C60.0079 88.972 60.2199 89.576 60.2199 90.376ZM64.3737 87.94C65.0457 87.94 65.6177 88.1 66.0897 88.42C66.5697 88.74 66.8977 89.176 67.0737 89.728L65.9697 90.172C65.8577 89.836 65.6577 89.572 65.3697 89.38C65.0817 89.188 64.7537 89.092 64.3857 89.092C63.8577 89.092 63.4377 89.268 63.1257 89.62C62.8137 89.972 62.6577 90.448 62.6577 91.048C62.6577 91.648 62.8137 92.124 63.1257 92.476C63.4377 92.82 63.8577 92.992 64.3857 92.992C64.7537 92.992 65.0817 92.9 65.3697 92.716C65.6577 92.532 65.8617 92.272 65.9817 91.936L67.0737 92.356C66.8737 92.916 66.5257 93.356 66.0297 93.676C65.5417 93.996 64.9857 94.156 64.3617 94.156C63.9137 94.156 63.5057 94.08 63.1377 93.928C62.7697 93.776 62.4537 93.564 62.1897 93.292C61.9337 93.02 61.7337 92.696 61.5897 92.32C61.4457 91.936 61.3737 91.512 61.3737 91.048C61.3737 90.576 61.4457 90.152 61.5897 89.776C61.7337 89.392 61.9377 89.064 62.2017 88.792C62.4657 88.52 62.7817 88.312 63.1497 88.168C63.5177 88.016 63.9257 87.94 64.3737 87.94ZM73.7916 88.108L71.0316 95.368C70.8316 95.896 70.5676 96.272 70.2396 96.496C69.9116 96.72 69.5436 96.832 69.1356 96.832C68.7276 96.832 68.2996 96.732 67.8516 96.532L68.2116 95.38C68.4916 95.564 68.7716 95.656 69.0516 95.656C69.4676 95.656 69.7676 95.42 69.9516 94.948L70.1796 94.348L67.6596 88.108H69.0036L70.7796 92.716L72.4596 88.108H73.7916ZM86.915 90.232V94H85.679V90.424C85.679 89.984 85.567 89.644 85.343 89.404C85.127 89.164 84.827 89.044 84.443 89.044C84.035 89.044 83.707 89.176 83.459 89.44C83.219 89.704 83.099 90.068 83.099 90.532V94H81.851V90.424C81.851 89.984 81.739 89.644 81.515 89.404C81.299 89.164 80.999 89.044 80.615 89.044C80.207 89.044 79.879 89.176 79.631 89.44C79.391 89.704 79.271 90.068 79.271 90.532V94H77.999V88.108H79.175L79.235 88.696C79.403 88.448 79.631 88.26 79.919 88.132C80.215 87.996 80.547 87.928 80.915 87.928C81.371 87.928 81.759 88.024 82.079 88.216C82.407 88.408 82.659 88.684 82.835 89.044C82.979 88.7 83.219 88.428 83.555 88.228C83.891 88.028 84.291 87.928 84.755 87.928C85.403 87.928 85.923 88.132 86.315 88.54C86.715 88.94 86.915 89.504 86.915 90.232ZM93.9004 91.552H89.3044C89.3524 92.056 89.5324 92.432 89.8444 92.68C90.1644 92.928 90.5524 93.052 91.0084 93.052C91.3924 93.052 91.7164 92.968 91.9804 92.8C92.2444 92.624 92.4524 92.384 92.6044 92.08L93.6724 92.512C93.4484 93.04 93.0964 93.448 92.6164 93.736C92.1444 94.016 91.6044 94.156 90.9964 94.156C90.5644 94.156 90.1684 94.084 89.8084 93.94C89.4564 93.788 89.1524 93.576 88.8964 93.304C88.6404 93.032 88.4404 92.708 88.2964 92.332C88.1604 91.948 88.0924 91.524 88.0924 91.06C88.0924 90.604 88.1604 90.184 88.2964 89.8C88.4404 89.416 88.6404 89.088 88.8964 88.816C89.1524 88.536 89.4604 88.32 89.8204 88.168C90.1804 88.016 90.5804 87.94 91.0204 87.94C91.4524 87.94 91.8444 88.016 92.1964 88.168C92.5564 88.312 92.8604 88.52 93.1084 88.792C93.3644 89.064 93.5604 89.392 93.6964 89.776C93.8324 90.152 93.9004 90.576 93.9004 91.048V91.552ZM92.6044 90.64C92.5724 90.104 92.4164 89.7 92.1364 89.428C91.8564 89.148 91.4764 89.008 90.9964 89.008C90.5164 89.008 90.1284 89.148 89.8324 89.428C89.5444 89.708 89.3724 90.112 89.3164 90.64H92.6044ZM99.7998 94C99.7758 93.84 99.7558 93.688 99.7398 93.544C99.7318 93.4 99.7238 93.264 99.7158 93.136C99.5158 93.472 99.2318 93.728 98.8638 93.904C98.5038 94.072 98.1038 94.156 97.6638 94.156C97.2398 94.156 96.8478 94.088 96.4878 93.952C96.1358 93.808 95.8318 93.604 95.5758 93.34C95.3278 93.068 95.1318 92.74 94.9878 92.356C94.8518 91.972 94.7838 91.536 94.7838 91.048C94.7838 90.592 94.8518 90.172 94.9878 89.788C95.1318 89.404 95.3318 89.076 95.5878 88.804C95.8518 88.532 96.1598 88.32 96.5118 88.168C96.8718 88.016 97.2678 87.94 97.6998 87.94C98.1078 87.94 98.4918 88.02 98.8518 88.18C99.2118 88.34 99.4958 88.572 99.7038 88.876V85.12H100.964V92.548C100.988 93.34 101.024 93.824 101.072 94H99.7998ZM99.6318 91.036C99.6318 90.452 99.4678 89.984 99.1398 89.632C98.8198 89.272 98.3918 89.092 97.8558 89.092C97.3198 89.092 96.8878 89.272 96.5598 89.632C96.2318 89.984 96.0678 90.452 96.0678 91.036C96.0678 91.636 96.2318 92.112 96.5598 92.464C96.8878 92.816 97.3198 92.992 97.8558 92.992C98.3918 92.992 98.8198 92.816 99.1398 92.464C99.4678 92.112 99.6318 91.636 99.6318 91.036ZM102.464 86.044C102.464 85.804 102.544 85.604 102.704 85.444C102.872 85.276 103.076 85.192 103.316 85.192C103.548 85.192 103.744 85.276 103.904 85.444C104.072 85.604 104.156 85.804 104.156 86.044C104.156 86.276 104.072 86.476 103.904 86.644C103.744 86.804 103.548 86.884 103.316 86.884C103.076 86.884 102.872 86.804 102.704 86.644C102.544 86.476 102.464 86.276 102.464 86.044ZM103.952 88.108V94H102.68V88.108H103.952ZM108.178 87.94C108.85 87.94 109.422 88.1 109.894 88.42C110.374 88.74 110.702 89.176 110.878 89.728L109.774 90.172C109.662 89.836 109.462 89.572 109.174 89.38C108.886 89.188 108.558 89.092 108.19 89.092C107.662 89.092 107.242 89.268 106.93 89.62C106.618 89.972 106.462 90.448 106.462 91.048C106.462 91.648 106.618 92.124 106.93 92.476C107.242 92.82 107.662 92.992 108.19 92.992C108.558 92.992 108.886 92.9 109.174 92.716C109.462 92.532 109.666 92.272 109.786 91.936L110.878 92.356C110.678 92.916 110.33 93.356 109.834 93.676C109.346 93.996 108.79 94.156 108.166 94.156C107.718 94.156 107.31 94.08 106.942 93.928C106.574 93.776 106.258 93.564 105.994 93.292C105.738 93.02 105.538 92.696 105.394 92.32C105.25 91.936 105.178 91.512 105.178 91.048C105.178 90.576 105.25 90.152 105.394 89.776C105.538 89.392 105.742 89.064 106.006 88.792C106.27 88.52 106.586 88.312 106.954 88.168C107.322 88.016 107.73 87.94 108.178 87.94ZM111.968 86.044C111.968 85.804 112.048 85.604 112.208 85.444C112.376 85.276 112.58 85.192 112.82 85.192C113.052 85.192 113.248 85.276 113.408 85.444C113.576 85.604 113.66 85.804 113.66 86.044C113.66 86.276 113.576 86.476 113.408 86.644C113.248 86.804 113.052 86.884 112.82 86.884C112.58 86.884 112.376 86.804 112.208 86.644C112.048 86.476 111.968 86.276 111.968 86.044ZM113.456 88.108V94H112.184V88.108H113.456ZM120.489 90.376V94H119.217V90.628C119.217 90.052 119.081 89.652 118.809 89.428C118.537 89.204 118.221 89.092 117.861 89.092C117.653 89.092 117.457 89.128 117.273 89.2C117.089 89.264 116.925 89.364 116.781 89.5C116.645 89.636 116.537 89.804 116.457 90.004C116.377 90.204 116.337 90.436 116.337 90.7V94H115.065V88.108H116.253L116.301 88.792C116.469 88.528 116.713 88.32 117.033 88.168C117.353 88.016 117.717 87.94 118.125 87.94C118.853 87.94 119.429 88.148 119.853 88.564C120.277 88.972 120.489 89.576 120.489 90.376ZM127.486 91.552H122.89C122.938 92.056 123.118 92.432 123.43 92.68C123.75 92.928 124.138 93.052 124.594 93.052C124.978 93.052 125.302 92.968 125.566 92.8C125.83 92.624 126.038 92.384 126.19 92.08L127.258 92.512C127.034 93.04 126.682 93.448 126.202 93.736C125.73 94.016 125.19 94.156 124.582 94.156C124.15 94.156 123.754 94.084 123.394 93.94C123.042 93.788 122.738 93.576 122.482 93.304C122.226 93.032 122.026 92.708 121.882 92.332C121.746 91.948 121.678 91.524 121.678 91.06C121.678 90.604 121.746 90.184 121.882 89.8C122.026 89.416 122.226 89.088 122.482 88.816C122.738 88.536 123.046 88.32 123.406 88.168C123.766 88.016 124.166 87.94 124.606 87.94C125.038 87.94 125.43 88.016 125.782 88.168C126.142 88.312 126.446 88.52 126.694 88.792C126.95 89.064 127.146 89.392 127.282 89.776C127.418 90.152 127.486 90.576 127.486 91.048V91.552ZM126.19 90.64C126.158 90.104 126.002 89.7 125.722 89.428C125.442 89.148 125.062 89.008 124.582 89.008C124.102 89.008 123.714 89.148 123.418 89.428C123.13 89.708 122.958 90.112 122.902 90.64H126.19Z" fill="white"/>
</svg>
