<svg width="141" height="124" viewBox="0 0 141 124" fill="none" xmlns="http://www.w3.org/2000/svg">
<rect width="141" height="124" rx="6" fill="#1A1A1A"/>
<path d="M89 30.6H51V63H89V30.6Z" stroke="#F2F2F2" stroke-width="2" stroke-linecap="round" stroke-linejoin="round"/>
<path d="M70 58.2C76.296 58.2 81.4 53.0961 81.4 46.8C81.4 40.504 76.296 35.4 70 35.4C63.7039 35.4 58.6 40.504 58.6 46.8C58.6 53.0961 63.7039 58.2 70 58.2Z" stroke="#F2F2F2" stroke-width="2" stroke-linecap="round" stroke-linejoin="round"/>
<path d="M76.5 44.6H72.2V40.3H67.8V44.6H63.5V49H67.8V53.3H72.2V49H76.5V44.6Z" stroke="#0076FF" stroke-width="2" stroke-linecap="round" stroke-linejoin="round"/>
<path d="M77.5 30.6V27C77.5 25.9 76.6 25 75.5 25H64.5C63.4 25 62.5 25.9 62.5 27V30.6" stroke="#F2F2F2" stroke-width="2" stroke-linecap="round" stroke-linejoin="round"/>
<path d="M41.5552 88.096C41.5552 88.512 41.4872 88.896 41.3512 89.248C41.2232 89.592 41.0352 89.892 40.7872 90.148C40.5392 90.396 40.2392 90.592 39.8872 90.736C39.5352 90.872 39.1392 90.94 38.6992 90.94H36.6352V94H35.2912V85.276H36.6352H38.7112C39.1512 85.276 39.5472 85.344 39.8992 85.48C40.2512 85.608 40.5472 85.796 40.7872 86.044C41.0352 86.284 41.2232 86.58 41.3512 86.932C41.4872 87.276 41.5552 87.664 41.5552 88.096ZM40.1512 88.072C40.1512 87.608 40.0072 87.228 39.7192 86.932C39.4392 86.636 39.0312 86.488 38.4952 86.488H36.6352V89.764H38.4592C39.0112 89.764 39.4312 89.608 39.7192 89.296C40.0072 88.984 40.1512 88.576 40.1512 88.072ZM45.5124 88.024C45.7284 88.024 45.9524 88.052 46.1844 88.108V89.284C45.9684 89.228 45.7524 89.2 45.5364 89.2C45.0324 89.2 44.6404 89.356 44.3604 89.668C44.0884 89.98 43.9524 90.412 43.9524 90.964V94H42.6564V88.108H43.8444L43.9164 88.828C44.0364 88.564 44.2404 88.364 44.5284 88.228C44.8244 88.092 45.1524 88.024 45.5124 88.024ZM47.1421 86.044C47.1421 85.804 47.2221 85.604 47.3821 85.444C47.5501 85.276 47.7541 85.192 47.9941 85.192C48.2261 85.192 48.4221 85.276 48.5821 85.444C48.7501 85.604 48.8341 85.804 48.8341 86.044C48.8341 86.276 48.7501 86.476 48.5821 86.644C48.4221 86.804 48.2261 86.884 47.9941 86.884C47.7541 86.884 47.5501 86.804 47.3821 86.644C47.2221 86.476 47.1421 86.276 47.1421 86.044ZM48.6301 88.108V94H47.3581V88.108H48.6301ZM59.1553 90.232V94H57.9193V90.424C57.9193 89.984 57.8073 89.644 57.5833 89.404C57.3673 89.164 57.0673 89.044 56.6833 89.044C56.2753 89.044 55.9473 89.176 55.6993 89.44C55.4593 89.704 55.3393 90.068 55.3393 90.532V94H54.0913V90.424C54.0913 89.984 53.9793 89.644 53.7553 89.404C53.5393 89.164 53.2393 89.044 52.8553 89.044C52.4473 89.044 52.1193 89.176 51.8713 89.44C51.6313 89.704 51.5113 90.068 51.5113 90.532V94H50.2393V88.108H51.4153L51.4753 88.696C51.6433 88.448 51.8713 88.26 52.1593 88.132C52.4553 87.996 52.7873 87.928 53.1553 87.928C53.6113 87.928 53.9993 88.024 54.3193 88.216C54.6473 88.408 54.8993 88.684 55.0753 89.044C55.2193 88.7 55.4593 88.428 55.7953 88.228C56.1313 88.028 56.5313 87.928 56.9953 87.928C57.6433 87.928 58.1633 88.132 58.5553 88.54C58.9553 88.94 59.1553 89.504 59.1553 90.232ZM64.4247 94C64.4087 93.92 64.3927 93.82 64.3767 93.7C64.3607 93.58 64.3447 93.436 64.3287 93.268C64.1607 93.532 63.9127 93.748 63.5847 93.916C63.2567 94.076 62.8767 94.156 62.4447 94.156C61.7967 94.156 61.2767 93.988 60.8847 93.652C60.5007 93.308 60.3087 92.844 60.3087 92.26C60.3087 91.684 60.5007 91.232 60.8847 90.904C61.2767 90.576 61.8007 90.412 62.4567 90.412H64.3047V90.184C64.3047 89.768 64.1847 89.464 63.9447 89.272C63.7127 89.08 63.3927 88.984 62.9847 88.984C62.2567 88.984 61.7407 89.28 61.4367 89.872L60.5007 89.332C60.7407 88.852 61.0807 88.5 61.5207 88.276C61.9607 88.052 62.4687 87.94 63.0447 87.94C63.7727 87.94 64.3727 88.128 64.8447 88.504C65.3167 88.88 65.5527 89.488 65.5527 90.328V92.74C65.5527 93.388 65.5887 93.808 65.6607 94H64.4247ZM64.3047 91.312H62.7447C62.3767 91.312 62.0927 91.396 61.8927 91.564C61.7007 91.724 61.6047 91.952 61.6047 92.248C61.6047 92.552 61.7047 92.784 61.9047 92.944C62.1127 93.096 62.3967 93.172 62.7567 93.172C63.1967 93.172 63.5647 93.032 63.8607 92.752C64.1567 92.464 64.3047 92.032 64.3047 91.456V91.312ZM69.8405 88.024C70.0565 88.024 70.2805 88.052 70.5125 88.108V89.284C70.2965 89.228 70.0805 89.2 69.8645 89.2C69.3605 89.2 68.9685 89.356 68.6885 89.668C68.4165 89.98 68.2805 90.412 68.2805 90.964V94H66.9845V88.108H68.1725L68.2445 88.828C68.3645 88.564 68.5685 88.364 68.8565 88.228C69.1525 88.092 69.4805 88.024 69.8405 88.024ZM77.2858 88.108L74.5258 95.368C74.3258 95.896 74.0618 96.272 73.7338 96.496C73.4058 96.72 73.0378 96.832 72.6298 96.832C72.2218 96.832 71.7938 96.732 71.3458 96.532L71.7058 95.38C71.9858 95.564 72.2658 95.656 72.5458 95.656C72.9618 95.656 73.2618 95.42 73.4458 94.948L73.6738 94.348L71.1538 88.108H72.4978L74.2738 92.716L75.9538 88.108H77.2858ZM87.7932 88.108C87.6252 87.58 87.3292 87.168 86.9052 86.872C86.4812 86.576 85.9812 86.428 85.4052 86.428C84.9812 86.428 84.5972 86.508 84.2532 86.668C83.9092 86.82 83.6132 87.036 83.3652 87.316C83.1172 87.596 82.9252 87.936 82.7892 88.336C82.6612 88.728 82.5972 89.164 82.5972 89.644C82.5972 90.132 82.6652 90.572 82.8012 90.964C82.9372 91.356 83.1292 91.692 83.3772 91.972C83.6252 92.244 83.9172 92.456 84.2532 92.608C84.5972 92.752 84.9772 92.824 85.3932 92.824C85.9932 92.824 86.5172 92.684 86.9652 92.404C87.4132 92.116 87.7212 91.732 87.8892 91.252L89.1492 91.792C88.8612 92.528 88.3772 93.104 87.6972 93.52C87.0172 93.936 86.2452 94.144 85.3812 94.144C84.7652 94.152 84.1972 94.048 83.6772 93.832C83.1652 93.616 82.7252 93.308 82.3572 92.908C81.9892 92.508 81.7012 92.032 81.4932 91.48C81.2932 90.928 81.1972 90.32 81.2052 89.656C81.2052 88.984 81.3052 88.372 81.5052 87.82C81.7132 87.26 82.0012 86.784 82.3692 86.392C82.7372 85.992 83.1772 85.684 83.6892 85.468C84.2012 85.244 84.7692 85.132 85.3932 85.132C86.3132 85.132 87.1012 85.364 87.7572 85.828C88.4132 86.292 88.8492 86.904 89.0652 87.664L87.7932 88.108ZM93.9208 94C93.9048 93.92 93.8888 93.82 93.8728 93.7C93.8568 93.58 93.8408 93.436 93.8248 93.268C93.6568 93.532 93.4088 93.748 93.0808 93.916C92.7528 94.076 92.3728 94.156 91.9408 94.156C91.2928 94.156 90.7728 93.988 90.3808 93.652C89.9968 93.308 89.8048 92.844 89.8048 92.26C89.8048 91.684 89.9968 91.232 90.3808 90.904C90.7728 90.576 91.2968 90.412 91.9528 90.412H93.8008V90.184C93.8008 89.768 93.6808 89.464 93.4408 89.272C93.2088 89.08 92.8888 88.984 92.4808 88.984C91.7528 88.984 91.2368 89.28 90.9328 89.872L89.9968 89.332C90.2368 88.852 90.5768 88.5 91.0168 88.276C91.4568 88.052 91.9648 87.94 92.5408 87.94C93.2688 87.94 93.8688 88.128 94.3408 88.504C94.8128 88.88 95.0488 89.488 95.0488 90.328V92.74C95.0488 93.388 95.0848 93.808 95.1568 94H93.9208ZM93.8008 91.312H92.2408C91.8728 91.312 91.5888 91.396 91.3888 91.564C91.1968 91.724 91.1008 91.952 91.1008 92.248C91.1008 92.552 91.2008 92.784 91.4008 92.944C91.6088 93.096 91.8928 93.172 92.2528 93.172C92.6928 93.172 93.0608 93.032 93.3568 92.752C93.6528 92.464 93.8008 92.032 93.8008 91.456V91.312ZM99.3366 88.024C99.5526 88.024 99.7766 88.052 100.009 88.108V89.284C99.7926 89.228 99.5766 89.2 99.3606 89.2C98.8566 89.2 98.4646 89.356 98.1846 89.668C97.9126 89.98 97.7766 90.412 97.7766 90.964V94H96.4806V88.108H97.6686L97.7406 88.828C97.8606 88.564 98.0646 88.364 98.3526 88.228C98.6486 88.092 98.9766 88.024 99.3366 88.024ZM106.277 91.552H101.681C101.729 92.056 101.909 92.432 102.221 92.68C102.541 92.928 102.929 93.052 103.385 93.052C103.769 93.052 104.093 92.968 104.357 92.8C104.621 92.624 104.829 92.384 104.981 92.08L106.049 92.512C105.825 93.04 105.473 93.448 104.993 93.736C104.521 94.016 103.981 94.156 103.373 94.156C102.941 94.156 102.545 94.084 102.185 93.94C101.833 93.788 101.529 93.576 101.273 93.304C101.017 93.032 100.817 92.708 100.673 92.332C100.537 91.948 100.469 91.524 100.469 91.06C100.469 90.604 100.537 90.184 100.673 89.8C100.817 89.416 101.017 89.088 101.273 88.816C101.529 88.536 101.837 88.32 102.197 88.168C102.557 88.016 102.957 87.94 103.397 87.94C103.829 87.94 104.221 88.016 104.573 88.168C104.933 88.312 105.237 88.52 105.485 88.792C105.741 89.064 105.937 89.392 106.073 89.776C106.209 90.152 106.277 90.576 106.277 91.048V91.552ZM104.981 90.64C104.949 90.104 104.793 89.7 104.513 89.428C104.233 89.148 103.853 89.008 103.373 89.008C102.893 89.008 102.505 89.148 102.209 89.428C101.921 89.708 101.749 90.112 101.693 90.64H104.981Z" fill="white"/>
</svg>
