<svg width="141" height="124" viewBox="0 0 141 124" fill="none" xmlns="http://www.w3.org/2000/svg">
<rect width="141" height="124" rx="6" fill="#1A1A1A"/>
<path d="M70 63C80.5 63 89 54.5 89 44C89 33.5 80.5 25 70 25C59.5 25 51 33.5 51 44C51 54.5 59.5 63 70 63Z" stroke="#F2F2F2" stroke-width="2" stroke-linecap="round" stroke-linejoin="round"/>
<path d="M75.8393 36.6405C75.9788 35.045 75.1554 33.6696 74 33.5685C72.8446 33.4674 71.7948 34.6789 71.6552 36.2745C71.5156 37.87 72.3391 39.2454 73.4945 39.3465C74.6499 39.4476 75.6997 38.2361 75.8393 36.6405Z" stroke="#2779FF" stroke-width="2" stroke-linecap="round" stroke-linejoin="round"/>
<path d="M81.0793 43.2363C81.4938 41.6893 80.9217 40.1919 79.8014 39.8917C78.6812 39.5915 77.437 40.6023 77.0225 42.1493C76.608 43.6963 77.1801 45.1938 78.3004 45.4939C79.4206 45.7941 80.6648 44.7833 81.0793 43.2363Z" stroke="#2779FF" stroke-width="1.9998" stroke-miterlimit="3.9998" stroke-linecap="round" stroke-linejoin="round"/>
<path d="M66.5528 39.4891C67.7082 39.388 68.5317 38.0126 68.3921 36.4171C68.2525 34.8216 67.2027 33.6101 66.0473 33.7111C64.892 33.8122 64.0685 35.1876 64.2081 36.7831C64.3477 38.3787 65.3974 39.5902 66.5528 39.4891Z" stroke="#2779FF" stroke-width="2" stroke-linecap="round" stroke-linejoin="round"/>
<path d="M61.7496 45.5003C62.8699 45.2001 63.442 43.7027 63.0275 42.1557C62.613 40.6087 61.3689 39.5979 60.2486 39.898C59.1284 40.1982 58.5562 41.6956 58.9707 43.2426C59.3852 44.7896 60.6294 45.8004 61.7496 45.5003Z" stroke="#2779FF" stroke-width="1.9998" stroke-miterlimit="3.9998" stroke-linecap="round" stroke-linejoin="round"/>
<path d="M75.3 47.3C74.8 47.1 74.4 46.8 74 46.4C73.6 46.1 73.4 45.7 73.2 45.2L72.9 44C72.4 42.4 70.7 41.5 69.2 42C68.2 42.3 67.5 43 67.2 44L66.8 45.2C66.7 45.7 66.4 46.1 66.1 46.4C65.7 46.8 65.3 47.1 64.8 47.3C63 48.2 62.2 50.4 63.1 52.2C63.7 53.5 65 54.3 66.4 54.3C66.9 54.3 67.5 54.2 67.9 54L69 53.4C69.6 53.1 70.4 53.1 71 53.4L72.1 53.9C72.6 54.1 73.1 54.2 73.6 54.2C75.6 54.2 77.3 52.6 77.3 50.5C77.4 49.2 76.6 47.9 75.3 47.3Z" stroke="#2779FF" stroke-width="2" stroke-linecap="round" stroke-linejoin="round"/>
<path d="M36.7225 85.276L33.4225 94H32.0425L28.7065 85.276H30.1585L32.7265 92.152L35.2945 85.276H36.7225ZM42.3848 91.552H37.7888C37.8368 92.056 38.0168 92.432 38.3288 92.68C38.6488 92.928 39.0368 93.052 39.4928 93.052C39.8768 93.052 40.2008 92.968 40.4648 92.8C40.7288 92.624 40.9368 92.384 41.0888 92.08L42.1568 92.512C41.9328 93.04 41.5808 93.448 41.1008 93.736C40.6288 94.016 40.0888 94.156 39.4808 94.156C39.0488 94.156 38.6528 94.084 38.2928 93.94C37.9408 93.788 37.6368 93.576 37.3808 93.304C37.1248 93.032 36.9248 92.708 36.7808 92.332C36.6448 91.948 36.5768 91.524 36.5768 91.06C36.5768 90.604 36.6448 90.184 36.7808 89.8C36.9248 89.416 37.1248 89.088 37.3808 88.816C37.6368 88.536 37.9448 88.32 38.3048 88.168C38.6648 88.016 39.0648 87.94 39.5048 87.94C39.9368 87.94 40.3288 88.016 40.6808 88.168C41.0408 88.312 41.3448 88.52 41.5928 88.792C41.8488 89.064 42.0448 89.392 42.1808 89.776C42.3168 90.152 42.3848 90.576 42.3848 91.048V91.552ZM41.0888 90.64C41.0568 90.104 40.9008 89.7 40.6208 89.428C40.3408 89.148 39.9608 89.008 39.4808 89.008C39.0008 89.008 38.6128 89.148 38.3168 89.428C38.0288 89.708 37.8568 90.112 37.8008 90.64H41.0888ZM46.5693 89.164H45.4173V94H44.1573V89.164H43.0053V88.108H44.1573V86.26H45.4173V88.108H46.5693V89.164ZM52.9317 91.552H48.3357C48.3837 92.056 48.5637 92.432 48.8757 92.68C49.1957 92.928 49.5837 93.052 50.0397 93.052C50.4237 93.052 50.7477 92.968 51.0117 92.8C51.2757 92.624 51.4837 92.384 51.6357 92.08L52.7037 92.512C52.4797 93.04 52.1277 93.448 51.6477 93.736C51.1757 94.016 50.6357 94.156 50.0277 94.156C49.5957 94.156 49.1997 94.084 48.8397 93.94C48.4877 93.788 48.1837 93.576 47.9277 93.304C47.6717 93.032 47.4717 92.708 47.3277 92.332C47.1917 91.948 47.1237 91.524 47.1237 91.06C47.1237 90.604 47.1917 90.184 47.3277 89.8C47.4717 89.416 47.6717 89.088 47.9277 88.816C48.1837 88.536 48.4917 88.32 48.8517 88.168C49.2117 88.016 49.6117 87.94 50.0517 87.94C50.4837 87.94 50.8757 88.016 51.2277 88.168C51.5877 88.312 51.8917 88.52 52.1397 88.792C52.3957 89.064 52.5917 89.392 52.7277 89.776C52.8637 90.152 52.9317 90.576 52.9317 91.048V91.552ZM51.6357 90.64C51.6037 90.104 51.4477 89.7 51.1677 89.428C50.8877 89.148 50.5077 89.008 50.0277 89.008C49.5477 89.008 49.1597 89.148 48.8637 89.428C48.5757 89.708 48.4037 90.112 48.3477 90.64H51.6357ZM56.9831 88.024C57.1991 88.024 57.4231 88.052 57.6551 88.108V89.284C57.4391 89.228 57.2231 89.2 57.0071 89.2C56.5031 89.2 56.1111 89.356 55.8311 89.668C55.5591 89.98 55.4231 90.412 55.4231 90.964V94H54.1271V88.108H55.3151L55.3871 88.828C55.5071 88.564 55.7111 88.364 55.9991 88.228C56.2951 88.092 56.6231 88.024 56.9831 88.024ZM58.6128 86.044C58.6128 85.804 58.6928 85.604 58.8528 85.444C59.0208 85.276 59.2248 85.192 59.4648 85.192C59.6968 85.192 59.8928 85.276 60.0528 85.444C60.2208 85.604 60.3048 85.804 60.3048 86.044C60.3048 86.276 60.2208 86.476 60.0528 86.644C59.8928 86.804 59.6968 86.884 59.4648 86.884C59.2248 86.884 59.0208 86.804 58.8528 86.644C58.6928 86.476 58.6128 86.276 58.6128 86.044ZM60.1008 88.108V94H58.8288V88.108H60.1008ZM67.134 90.376V94H65.862V90.628C65.862 90.052 65.726 89.652 65.454 89.428C65.182 89.204 64.866 89.092 64.506 89.092C64.298 89.092 64.102 89.128 63.918 89.2C63.734 89.264 63.57 89.364 63.426 89.5C63.29 89.636 63.182 89.804 63.102 90.004C63.022 90.204 62.982 90.436 62.982 90.7V94H61.71V88.108H62.898L62.946 88.792C63.114 88.528 63.358 88.32 63.678 88.168C63.998 88.016 64.362 87.94 64.77 87.94C65.498 87.94 66.074 88.148 66.498 88.564C66.922 88.972 67.134 89.576 67.134 90.376ZM72.4149 94C72.3989 93.92 72.3829 93.82 72.3669 93.7C72.3509 93.58 72.3349 93.436 72.3189 93.268C72.1509 93.532 71.9029 93.748 71.5749 93.916C71.2469 94.076 70.8669 94.156 70.4349 94.156C69.7869 94.156 69.2669 93.988 68.8749 93.652C68.4909 93.308 68.2989 92.844 68.2989 92.26C68.2989 91.684 68.4909 91.232 68.8749 90.904C69.2669 90.576 69.7909 90.412 70.4469 90.412H72.2949V90.184C72.2949 89.768 72.1749 89.464 71.9349 89.272C71.7029 89.08 71.3829 88.984 70.9749 88.984C70.2469 88.984 69.7309 89.28 69.4269 89.872L68.4909 89.332C68.7309 88.852 69.0709 88.5 69.5109 88.276C69.9509 88.052 70.4589 87.94 71.0349 87.94C71.7629 87.94 72.3629 88.128 72.8349 88.504C73.3069 88.88 73.5429 89.488 73.5429 90.328V92.74C73.5429 93.388 73.5789 93.808 73.6509 94H72.4149ZM72.2949 91.312H70.7349C70.3669 91.312 70.0829 91.396 69.8829 91.564C69.6909 91.724 69.5949 91.952 69.5949 92.248C69.5949 92.552 69.6949 92.784 69.8949 92.944C70.1029 93.096 70.3869 93.172 70.7469 93.172C71.1869 93.172 71.5549 93.032 71.8509 92.752C72.1469 92.464 72.2949 92.032 72.2949 91.456V91.312ZM77.8308 88.024C78.0468 88.024 78.2708 88.052 78.5028 88.108V89.284C78.2868 89.228 78.0708 89.2 77.8548 89.2C77.3508 89.2 76.9588 89.356 76.6788 89.668C76.4068 89.98 76.2708 90.412 76.2708 90.964V94H74.9748V88.108H76.1628L76.2348 88.828C76.3548 88.564 76.5588 88.364 76.8468 88.228C77.1428 88.092 77.4708 88.024 77.8308 88.024ZM85.276 88.108L82.516 95.368C82.316 95.896 82.052 96.272 81.724 96.496C81.396 96.72 81.028 96.832 80.62 96.832C80.212 96.832 79.784 96.732 79.336 96.532L79.696 95.38C79.976 95.564 80.256 95.656 80.536 95.656C80.952 95.656 81.252 95.42 81.436 94.948L81.664 94.348L79.144 88.108H80.488L82.264 92.716L83.944 88.108H85.276ZM95.7834 88.108C95.6154 87.58 95.3194 87.168 94.8954 86.872C94.4714 86.576 93.9714 86.428 93.3954 86.428C92.9714 86.428 92.5874 86.508 92.2434 86.668C91.8994 86.82 91.6034 87.036 91.3554 87.316C91.1074 87.596 90.9154 87.936 90.7794 88.336C90.6514 88.728 90.5874 89.164 90.5874 89.644C90.5874 90.132 90.6554 90.572 90.7914 90.964C90.9274 91.356 91.1194 91.692 91.3674 91.972C91.6154 92.244 91.9074 92.456 92.2434 92.608C92.5874 92.752 92.9674 92.824 93.3834 92.824C93.9834 92.824 94.5074 92.684 94.9554 92.404C95.4034 92.116 95.7114 91.732 95.8794 91.252L97.1394 91.792C96.8514 92.528 96.3674 93.104 95.6874 93.52C95.0074 93.936 94.2354 94.144 93.3714 94.144C92.7554 94.152 92.1874 94.048 91.6674 93.832C91.1554 93.616 90.7154 93.308 90.3474 92.908C89.9794 92.508 89.6914 92.032 89.4834 91.48C89.2834 90.928 89.1874 90.32 89.1954 89.656C89.1954 88.984 89.2954 88.372 89.4954 87.82C89.7034 87.26 89.9914 86.784 90.3594 86.392C90.7274 85.992 91.1674 85.684 91.6794 85.468C92.1914 85.244 92.7594 85.132 93.3834 85.132C94.3034 85.132 95.0914 85.364 95.7474 85.828C96.4034 86.292 96.8394 86.904 97.0554 87.664L95.7834 88.108ZM101.911 94C101.895 93.92 101.879 93.82 101.863 93.7C101.847 93.58 101.831 93.436 101.815 93.268C101.647 93.532 101.399 93.748 101.071 93.916C100.743 94.076 100.363 94.156 99.931 94.156C99.283 94.156 98.763 93.988 98.371 93.652C97.987 93.308 97.795 92.844 97.795 92.26C97.795 91.684 97.987 91.232 98.371 90.904C98.763 90.576 99.287 90.412 99.943 90.412H101.791V90.184C101.791 89.768 101.671 89.464 101.431 89.272C101.199 89.08 100.879 88.984 100.471 88.984C99.743 88.984 99.227 89.28 98.923 89.872L97.987 89.332C98.227 88.852 98.567 88.5 99.007 88.276C99.447 88.052 99.955 87.94 100.531 87.94C101.259 87.94 101.859 88.128 102.331 88.504C102.803 88.88 103.039 89.488 103.039 90.328V92.74C103.039 93.388 103.075 93.808 103.147 94H101.911ZM101.791 91.312H100.231C99.863 91.312 99.579 91.396 99.379 91.564C99.187 91.724 99.091 91.952 99.091 92.248C99.091 92.552 99.191 92.784 99.391 92.944C99.599 93.096 99.883 93.172 100.243 93.172C100.683 93.172 101.051 93.032 101.347 92.752C101.643 92.464 101.791 92.032 101.791 91.456V91.312ZM107.327 88.024C107.543 88.024 107.767 88.052 107.999 88.108V89.284C107.783 89.228 107.567 89.2 107.351 89.2C106.847 89.2 106.455 89.356 106.175 89.668C105.903 89.98 105.767 90.412 105.767 90.964V94H104.471V88.108H105.659L105.731 88.828C105.851 88.564 106.055 88.364 106.343 88.228C106.639 88.092 106.967 88.024 107.327 88.024ZM114.268 91.552H109.672C109.72 92.056 109.9 92.432 110.212 92.68C110.532 92.928 110.92 93.052 111.376 93.052C111.76 93.052 112.084 92.968 112.348 92.8C112.612 92.624 112.82 92.384 112.972 92.08L114.04 92.512C113.816 93.04 113.464 93.448 112.984 93.736C112.512 94.016 111.972 94.156 111.364 94.156C110.932 94.156 110.536 94.084 110.176 93.94C109.824 93.788 109.52 93.576 109.264 93.304C109.008 93.032 108.808 92.708 108.664 92.332C108.528 91.948 108.46 91.524 108.46 91.06C108.46 90.604 108.528 90.184 108.664 89.8C108.808 89.416 109.008 89.088 109.264 88.816C109.52 88.536 109.828 88.32 110.188 88.168C110.548 88.016 110.948 87.94 111.388 87.94C111.82 87.94 112.212 88.016 112.564 88.168C112.924 88.312 113.228 88.52 113.476 88.792C113.732 89.064 113.928 89.392 114.064 89.776C114.2 90.152 114.268 90.576 114.268 91.048V91.552ZM112.972 90.64C112.94 90.104 112.784 89.7 112.504 89.428C112.224 89.148 111.844 89.008 111.364 89.008C110.884 89.008 110.496 89.148 110.2 89.428C109.912 89.708 109.74 90.112 109.684 90.64H112.972Z" fill="white"/>
</svg>
